<?xml version="1.0" standalone="no"?>
<!DOCTYPE svg PUBLIC "-//W3C//DTD SVG 1.1//EN" "http://www.w3.org/Graphics/SVG/1.1/DTD/svg11.dtd" >
<svg xmlns="http://www.w3.org/2000/svg" xmlns:xlink="http://www.w3.org/1999/xlink" version="1.1">
<metadata>
Created by FontForge 20170812 at Sat Dec 12 19:25:15 2020
 By www-data
Copyright \(c\) 2020 by Serdar Ozturk. All rights reserved.
</metadata>
<defs>
<font id="ArodoraPro-Light" horiz-adv-x="0" >
  <font-face 
    font-family="Arodora Pro"
    font-weight="300"
    font-stretch="normal"
    units-per-em="1000"
    panose-1="0 0 0 0 0 0 0 0 0 0"
    ascent="800"
    descent="-200"
    x-height="500"
    cap-height="650"
    bbox="-373 -237.04 1110 975"
    underline-thickness="50"
    underline-position="-100"
    stemh="45"
    stemv="35"
    unicode-range="U+0020-FB05"
  />
<missing-glyph horiz-adv-x="514" 
d="M93 -200v1000h317v-1000h-317zM169 744v-110h163v33h-64v68h-35v-68h-31v77h-33zM233 538h-31v78h-33v-110h163v110h-33v-78h-31v75h-35v-75zM169 343h163v65c0 51 -32 81 -79 81c-53 0 -84 -30 -84 -81v-65zM199 377v31c0 31 19 50 53 50c30 0 50 -21 50 -50v-31h-103z
M169 194h33v54h130v30h-130v51h-33v-135zM166 107c0 -46 38 -82 84 -82c47 0 84 36 84 82s-37 83 -84 83c-46 0 -84 -37 -84 -83zM199 107c0 28 22 50 51 50s52 -21 52 -50c0 -26 -23 -52 -52 -52c-28 0 -51 26 -51 52zM332 -102h-109l109 80v32h-163v-32h108l-108 -80v-33
h163v33z" />
    <glyph glyph-name="fi" unicode="fi" horiz-adv-x="509" 
d="M141 0h-47v443h-72l9 45h63v12c0 76 -3 193 165 200c82 3 151 -14 191 -37l-10 -40c-43 25 -93 35 -148 35c-143 0 -151 -64 -151 -158v-12h173v-45h-173v-443zM450 0h-47v488h47v-488z" />
    <glyph glyph-name="fl" unicode="fl" horiz-adv-x="506" 
d="M141 0h-48v443h-72l10 45h62v12c0 76 -3 193 165 200c74 3 136 -11 177 -30h13v-670h-47v640c-35 12 -74 18 -110 18c-143 0 -150 -64 -150 -158v-12h171v-45h-171v-443z" />
    <glyph glyph-name="f_f" unicode="ff" horiz-adv-x="691" 
d="M470 443v-443h-48v443h-287v-443h-48v443h-74l9 45h65v19c0 109 21 177 138 177c36 0 72 -7 103 -17l-6 -42c-28 10 -48 14 -78 16c-87 4 -109 -36 -109 -138v-15h287v19c0 109 21 177 138 177c36 0 72 -7 103 -17l-6 -42c-28 10 -48 14 -78 16c-87 4 -109 -36 -109 -138
v-15h172v-45h-172z" />
    <glyph glyph-name="f_f_i" unicode="ffi" horiz-adv-x="825" 
d="M461 0h-48v443h-254v-443h-47v443h-72l9 45h63v12c0 76 -3 193 165 200c80 3 147 -13 187 -35c25 20 61 33 114 35c83 3 151 -14 192 -37l-11 -40c-43 25 -93 35 -148 35c-143 0 -150 -64 -150 -158v-12h173v-45h-173v-443zM159 488h254v12c0 40 -1 93 24 133
c-38 18 -81 25 -127 25c-143 0 -151 -64 -151 -158v-12zM770 0h-48v488h48v-488z" />
    <glyph glyph-name="f_f_l" unicode="ffl" horiz-adv-x="821" 
d="M453 0h-47v443h-260v-443h-48v443h-72l10 45h62v12c0 76 -3 193 166 200c81 3 151 -14 192 -36c24 20 61 34 115 36c73 3 135 -11 176 -30h14v-670h-48v640c-35 12 -74 18 -109 18c-143 0 -151 -64 -151 -158v-12h172v-45h-172v-443zM146 488h260v12c0 40 -1 92 23 132
c-40 18 -86 26 -133 26c-142 0 -150 -64 -150 -158v-12z" />
    <glyph glyph-name=".notdef" horiz-adv-x="514" 
d="M93 -200v1000h317v-1000h-317zM169 744v-110h163v33h-64v68h-35v-68h-31v77h-33zM233 538h-31v78h-33v-110h163v110h-33v-78h-31v75h-35v-75zM169 343h163v65c0 51 -32 81 -79 81c-53 0 -84 -30 -84 -81v-65zM199 377v31c0 31 19 50 53 50c30 0 50 -21 50 -50v-31h-103z
M169 194h33v54h130v30h-130v51h-33v-135zM166 107c0 -46 38 -82 84 -82c47 0 84 36 84 82s-37 83 -84 83c-46 0 -84 -37 -84 -83zM199 107c0 28 22 50 51 50s52 -21 52 -50c0 -26 -23 -52 -52 -52c-28 0 -51 26 -51 52zM332 -102h-109l109 80v32h-163v-32h108l-108 -80v-33
h163v33z" />
    <glyph glyph-name="NULL" 
 />
    <glyph glyph-name="CR" horiz-adv-x="333" 
 />
    <glyph glyph-name="space" unicode=" " horiz-adv-x="250" 
 />
    <glyph glyph-name="exclam" unicode="!" horiz-adv-x="204" 
d="M125 187h-48v483h48v-483zM72 22c0 17 12 30 29 30c18 0 29 -13 29 -30c0 -16 -12 -29 -29 -29c-16 0 -29 13 -29 29z" />
    <glyph glyph-name="quotedbl" unicode="&#x22;" horiz-adv-x="315" 
d="M49 473h-20l48 227h43v-21zM207 473h-21l48 227h43v-21z" />
    <glyph glyph-name="numbersign" unicode="#" horiz-adv-x="659" 
d="M165 50h-42l25 149h-111l9 40h108l35 214h-104l10 40h101l25 157h42l-26 -157h230l26 157h41l-25 -157h110l-10 -40h-107l-35 -214h103l-9 -40h-100l-25 -149h-41l24 149h-230zM195 239h231l35 214h-231z" />
    <glyph glyph-name="dollar" unicode="$" horiz-adv-x="549" 
d="M44 192l49 5c20 -80 104 -154 193 -155c105 -1 178 59 178 127c0 90 -86 120 -149 146c-18 7 -88 33 -112 42c-62 26 -135 79 -135 162c0 80 75 149 196 157v84h41v-83c115 -7 189 -80 197 -182l-44 -6c0 79 -71 145 -172 145c-104 0 -169 -58 -169 -115
c0 -78 93 -112 131 -127c19 -7 86 -34 101 -40c109 -37 165 -91 165 -180c0 -92 -81 -171 -208 -178v-83h-40v83c-103 10 -197 90 -222 198z" />
    <glyph glyph-name="percent" unicode="%" horiz-adv-x="765" 
d="M216 348c-92 0 -166 74 -166 166c0 95 70 163 166 163s166 -68 166 -163c0 -92 -74 -166 -166 -166zM216 640c-70 0 -126 -52 -126 -126c0 -69 59 -127 126 -127s126 57 126 127c0 73 -57 126 -126 126zM146 51l-24 22l461 505l26 -21zM553 -11c-92 0 -166 74 -166 166
c0 95 70 163 166 163s166 -68 166 -163c0 -92 -74 -166 -166 -166zM553 280c-70 0 -126 -51 -126 -125c0 -70 59 -127 126 -127s126 56 126 127c0 73 -57 125 -126 125z" />
    <glyph glyph-name="ampersand" unicode="&#x26;" horiz-adv-x="701" 
d="M664 40l-24 -42l-136 116c-63 -74 -145 -123 -230 -123c-125 0 -212 87 -223 171c-11 88 45 172 152 213c-46 46 -85 98 -85 151c0 98 94 151 191 151c127 0 202 -77 210 -182l-45 -5c0 75 -65 144 -165 144c-71 0 -142 -37 -142 -111c0 -59 105 -151 136 -177l194 -165
c31 45 55 98 68 152l41 -23c-15 -58 -41 -112 -73 -159zM469 145l-192 164c-16 13 -32 27 -49 43c-91 -44 -137 -109 -130 -179s81 -134 173 -134c72 0 142 42 198 106z" />
    <glyph glyph-name="quotesingle" unicode="'" horiz-adv-x="139" 
d="M75 423h-20v227h43v-21z" />
    <glyph glyph-name="parenleft" unicode="(" horiz-adv-x="365" 
d="M297 -122c-157 113 -234 260 -234 448s77 335 234 448l23 -35c-142 -111 -209 -240 -209 -413c0 -171 66 -301 209 -413z" />
    <glyph glyph-name="parenright" unicode=")" horiz-adv-x="367" 
d="M76 774c157 -113 234 -260 234 -448s-77 -335 -234 -448l-23 35c154 120 214 263 209 413c-7 218 -96 321 -209 413z" />
    <glyph glyph-name="asterisk" unicode="*" horiz-adv-x="407" 
d="M185 499l-127 -9v36l126 -8l-79 96l30 21l68 -111l70 113l30 -21l-81 -98l129 8v-36l-130 9l81 -104l-29 -21l-70 118l-68 -116l-29 21z" />
    <glyph glyph-name="plus" unicode="+" horiz-adv-x="555" 
d="M300 270v-185h-45v185h-185v45h185v185h45v-185h185v-45h-185z" />
    <glyph glyph-name="comma" unicode="," horiz-adv-x="173" 
d="M13 -128l83 255h47v-28l-96 -227h-34z" />
    <glyph glyph-name="hyphen" unicode="-" horiz-adv-x="505" 
d="M440 278h-375v50h375v-50z" />
    <glyph glyph-name="period" unicode="." horiz-adv-x="207" 
d="M74 20c0 18 12 30 29 30s29 -12 29 -30c0 -17 -12 -29 -29 -29s-29 12 -29 29z" />
    <glyph glyph-name="slash" unicode="/" horiz-adv-x="330" 
d="M304 800l-236 -900h-43l236 900h43z" />
    <glyph glyph-name="zero" unicode="0" horiz-adv-x="657" 
d="M35 331c0 202 120 341 293 341c172 0 291 -139 291 -341c0 -201 -118 -338 -291 -338c-174 0 -293 138 -293 338zM83 331c0 -175 97 -290 245 -290s244 113 244 290c0 176 -97 294 -244 294s-245 -118 -245 -294z" />
    <glyph glyph-name="one" unicode="1" horiz-adv-x="312" 
d="M27 625l183 45h37v-670h-48v620l-166 -34z" />
    <glyph glyph-name="two" unicode="2" horiz-adv-x="534" 
d="M58 528l-7 50c48 58 130 95 195 95c150 0 214 -74 214 -178c0 -86 -86 -173 -135 -226l-206 -221h345v-48h-420v41l225 232c71 73 144 150 144 230c0 65 -47 121 -159 121c-67 0 -130 -28 -196 -96z" />
    <glyph glyph-name="three" unicode="3" horiz-adv-x="557" 
d="M41 88l7 52c53 -64 162 -99 232 -99c114 0 168 56 168 127c0 95 -112 159 -259 151v41c132 8 249 57 249 140c0 72 -64 124 -167 124c-63 0 -144 -14 -204 -52l-7 50c52 29 138 50 203 50c137 0 220 -68 220 -168c0 -76 -57 -132 -163 -158c106 -27 174 -89 174 -186
c0 -96 -75 -167 -222 -167c-79 0 -188 45 -231 95z" />
    <glyph glyph-name="four" unicode="4" horiz-adv-x="602" 
d="M46 208l369 462h39v-462h108v-43h-108v-165h-47v165h-361v43zM407 590l-304 -382h304v382z" />
    <glyph glyph-name="five" unicode="5" horiz-adv-x="521" 
d="M41 88l7 56c54 -65 146 -103 219 -103c107 0 170 69 170 164s-84 178 -201 169c-38 -3 -93 -20 -126 -37l-30 28l18 305h353l-5 -43h-302l-15 -240c43 20 85 32 132 31c128 -1 222 -96 222 -214c0 -127 -82 -211 -224 -211c-79 0 -175 45 -218 95z" />
    <glyph glyph-name="six" unicode="6" horiz-adv-x="525" 
d="M258 -7c-148 0 -211 107 -211 319c0 217 85 360 232 360c75 0 128 -17 188 -50l-7 -48c-82 40 -122 50 -174 50c-120 0 -182 -113 -191 -278c64 34 115 56 193 56c122 0 190 -80 190 -198c0 -127 -78 -211 -220 -211zM279 359c-72 -3 -125 -24 -186 -59
c0 -169 46 -259 173 -259c102 0 165 62 165 164c0 101 -57 158 -152 154z" />
    <glyph glyph-name="seven" unicode="7" horiz-adv-x="483" 
d="M390 627h-354l-5 43h417v-31l-289 -639h-54z" />
    <glyph glyph-name="eight" unicode="8" horiz-adv-x="551" 
d="M274 -7c-142 0 -234 83 -234 191c0 74 52 134 132 162c-62 28 -99 82 -99 153c0 87 80 173 201 173c122 0 203 -84 203 -170c0 -73 -36 -129 -101 -156c80 -28 133 -87 133 -158c0 -109 -94 -195 -235 -195zM274 631c-93 0 -153 -68 -153 -138c0 -79 68 -130 153 -130
c87 0 155 50 155 134c0 68 -63 134 -155 134zM274 327c-100 0 -186 -58 -186 -143c0 -83 72 -150 186 -150c113 0 188 70 188 154c0 82 -91 139 -188 139z" />
    <glyph glyph-name="nine" unicode="9" horiz-adv-x="518" 
d="M54 43l7 48c82 -40 127 -50 179 -50c111 0 173 105 186 260c-65 -34 -116 -55 -188 -55c-127 0 -195 83 -195 206c0 132 78 220 225 220c142 0 207 -107 207 -319c0 -217 -86 -360 -228 -360c-75 0 -133 17 -193 50zM260 624c-107 0 -169 -67 -169 -178
c0 -104 56 -161 156 -157c68 3 120 25 181 58c0 122 -10 277 -168 277z" />
    <glyph glyph-name="colon" unicode=":" horiz-adv-x="132" 
d="M36 482c0 18 12 29 29 29c19 0 30 -11 30 -29s-11 -29 -30 -29c-17 0 -29 11 -29 29zM36 20c0 18 12 30 29 30c19 0 30 -12 30 -30c0 -17 -11 -29 -30 -29c-17 0 -29 12 -29 29z" />
    <glyph glyph-name="semicolon" unicode=";" horiz-adv-x="178" 
d="M83 482c0 18 12 29 29 29c18 0 29 -11 29 -29s-11 -29 -29 -29c-17 0 -29 11 -29 29zM15 -128l77 255h47v-28l-91 -227h-33z" />
    <glyph glyph-name="less" unicode="&#x3c;" horiz-adv-x="436" 
d="M387 449v-43l-292 -156l292 -159v-43l-346 181v41z" />
    <glyph glyph-name="equal" unicode="=" horiz-adv-x="525" 
d="M480 406h-435v44h435v-44zM480 198h-435v45h435v-45z" />
    <glyph glyph-name="greater" unicode="&#x3e;" horiz-adv-x="434" 
d="M41 406v43l346 -179v-41l-346 -181v43l292 159z" />
    <glyph glyph-name="question" unicode="?" horiz-adv-x="483" 
d="M213 187h-43c0 224 204 214 204 331c0 68 -59 115 -164 114c-55 0 -126 -20 -170 -45l-9 44c57 29 130 47 197 46c123 -2 194 -68 194 -159c0 -163 -209 -114 -209 -331zM164 22c0 18 12 30 29 30c18 0 29 -12 29 -30c0 -17 -11 -29 -29 -29c-17 0 -29 12 -29 29z" />
    <glyph glyph-name="at" unicode="@" horiz-adv-x="779" 
d="M70 317c0 -179 144 -323 323 -323c44 0 88 10 144 33l13 -27c-60 -25 -107 -36 -157 -36c-196 0 -353 157 -353 353s157 353 353 353s353 -157 353 -353c0 -138 -63 -229 -158 -229c-62 0 -104 46 -104 148c-3 -23 -36 -74 -120 -76c-80 -1 -153 70 -153 157
c0 83 70 157 145 158c61 2 106 -26 128 -75v72h41v-236c0 -83 27 -115 74 -115c67 0 117 84 117 196c0 193 -158 323 -323 323c-179 0 -323 -143 -323 -323zM254 317c0 -69 57 -120 126 -118c60 1 104 46 104 90v61c0 31 -52 87 -112 86c-70 0 -118 -56 -118 -119z" />
    <glyph glyph-name="A" unicode="A" horiz-adv-x="718" 
d="M72 0h-49l242 670h189l242 -670h-49l-73 202c-71 6 -130 42 -215 42c-84 0 -138 -37 -214 -42zM297 623l-136 -376c68 9 120 41 198 41s134 -31 198 -41l-135 376h-125z" />
    <glyph glyph-name="B" unicode="B" horiz-adv-x="594" 
d="M65 0v670h278c116 0 198 -73 198 -180c0 -70 -44 -128 -109 -154c73 -19 124 -72 124 -150c0 -116 -77 -186 -198 -186h-293zM343 626h-230v-274h230c81 0 151 63 151 138c0 80 -62 136 -151 136zM358 310h-245v-266h245c95 0 151 52 151 142c0 75 -67 124 -151 124z" />
    <glyph glyph-name="C" unicode="C" horiz-adv-x="662" 
d="M381 -7c-184 0 -336 162 -336 346c0 185 152 338 336 338c88 0 178 -39 241 -104l-34 -34c-53 58 -129 91 -207 91c-159 0 -289 -132 -289 -291c0 -160 129 -298 289 -298c74 0 156 37 208 94l34 -34c-64 -66 -155 -108 -242 -108z" />
    <glyph glyph-name="D" unicode="D" horiz-adv-x="696" 
d="M70 0v670h252c202 0 325 -128 325 -338c0 -204 -126 -332 -325 -332h-252zM322 626h-204v-582h204c169 0 278 112 278 289c0 181 -106 293 -278 293z" />
    <glyph glyph-name="E" unicode="E" horiz-adv-x="556" 
d="M67 0v670h439v-47h-392v-254h379v-47h-379v-274h392v-48h-439z" />
    <glyph glyph-name="F" unicode="F" horiz-adv-x="552" 
d="M62 0v670h439v-47h-392v-269h379v-47h-379v-307h-47z" />
    <glyph glyph-name="G" unicode="G" horiz-adv-x="703" 
d="M394 -7c-199 0 -343 143 -343 340c0 199 142 344 340 344c99 0 202 -41 259 -104l-34 -33c-53 57 -138 90 -225 90c-173 0 -292 -124 -292 -297c0 -172 121 -292 295 -292c67 0 165 34 213 78v179h-259v48h306v-245c-61 -63 -169 -108 -260 -108z" />
    <glyph glyph-name="H" unicode="H" horiz-adv-x="611" 
d="M54 0v670h48v-301h408v301h47v-670h-47v322h-408v-322h-48z" />
    <glyph glyph-name="I" unicode="I" horiz-adv-x="211" 
d="M132 0h-47v670h47v-670z" />
    <glyph glyph-name="J" unicode="J" horiz-adv-x="526" 
d="M206 -7c-58 0 -111 12 -157 33l11 46c42 -21 100 -31 146 -31c123 0 212 82 212 194v435h48v-435c0 -139 -111 -242 -260 -242z" />
    <glyph glyph-name="K" unicode="K" horiz-adv-x="552" 
d="M119 335v-335h-47v670h47v-317l320 317h62l-329 -326l361 -344h-62z" />
    <glyph glyph-name="L" unicode="L" horiz-adv-x="543" 
d="M73 0v670h47v-622h392v-48h-439z" />
    <glyph glyph-name="M" unicode="M" horiz-adv-x="791" 
d="M125 605v-605h-48v670h59l262 -367l259 367h57v-670h-47v603l-261 -374h-16z" />
    <glyph glyph-name="N" unicode="N" horiz-adv-x="728" 
d="M76 0v670h47l484 -595v595h48v-670h-48l-484 595v-595h-47z" />
    <glyph glyph-name="O" unicode="O" horiz-adv-x="778" 
d="M58 333c0 189 153 344 336 344s336 -155 336 -344c0 -188 -153 -340 -336 -340s-336 152 -336 340zM105 333c0 -160 132 -294 289 -294c156 0 288 134 288 294c0 162 -131 298 -288 298s-289 -136 -289 -298z" />
    <glyph glyph-name="P" unicode="P" horiz-adv-x="588" 
d="M69 0v670h228c158 0 244 -81 244 -217c0 -138 -80 -220 -244 -220h-180v-233h-48zM297 625h-180v-347h180c131 0 197 62 197 176c0 108 -70 171 -197 171z" />
    <glyph glyph-name="Q" unicode="Q" horiz-adv-x="780" 
d="M52 330c0 188 153 342 336 342c184 0 336 -155 336 -342c0 -117 -61 -220 -151 -281h1c-52 -36 -71 -89 -45 -144c18 -36 59 -57 105 -57c19 0 40 4 60 12l17 -37c-25 -17 -54 -24 -83 -24c-56 0 -111 29 -139 79c-23 42 -24 88 -8 128c-29 -8 -61 -13 -93 -13
c-183 0 -336 151 -336 337zM100 330c0 -159 131 -291 288 -291c158 0 289 133 289 291c0 161 -132 296 -289 296s-288 -135 -288 -296z" />
    <glyph glyph-name="R" unicode="R" horiz-adv-x="586" 
d="M70 0v670h226c158 0 244 -66 244 -202c0 -108 -48 -171 -148 -194l173 -274h-57l-168 266c-14 -1 -28 -1 -44 -1h-178v-265h-48zM296 626h-178v-318h178c130 0 197 46 197 161c0 109 -72 157 -197 157z" />
    <glyph glyph-name="S" unicode="S" horiz-adv-x="553" 
d="M47 192l49 5c20 -80 104 -154 193 -155c105 -1 178 59 178 127c0 90 -86 120 -149 146c-18 7 -88 33 -112 43c-62 25 -135 78 -135 162c0 83 83 155 215 157c128 2 211 -73 219 -182l-44 -5c0 78 -71 144 -172 144c-104 0 -169 -58 -169 -114c0 -79 93 -113 131 -127
c19 -8 86 -35 101 -40c109 -38 165 -92 165 -181c0 -96 -90 -179 -228 -179c-110 0 -216 84 -242 199z" />
    <glyph glyph-name="T" unicode="T" horiz-adv-x="595" 
d="M274 623h-244v47h536v-47h-245v-623h-47v623z" />
    <glyph glyph-name="U" unicode="U" horiz-adv-x="679" 
d="M567 670h45l-1 -411c1 -146 -93 -264 -268 -264c-178 0 -273 113 -273 264l-1 411h45v-410c0 -130 88 -217 231 -217c135 0 221 90 223 216z" />
    <glyph glyph-name="V" unicode="V" horiz-adv-x="666" 
d="M308 0l-284 670h51l259 -610l260 610h51l-286 -670h-51z" />
    <glyph glyph-name="W" unicode="W" horiz-adv-x="910" 
d="M827 670h51l-212 -670h-51l-160 579l-159 -579h-51l-213 670h50l187 -585l161 585h50l162 -585z" />
    <glyph glyph-name="X" unicode="X" horiz-adv-x="611" 
d="M278 334l-252 336h59l223 -297l224 297h58l-253 -336l250 -334h-58l-222 295l-222 -295h-58z" />
    <glyph glyph-name="Y" unicode="Y" horiz-adv-x="577" 
d="M264 268l-246 402h55l214 -358l218 358h54l-248 -402v-268h-47v268z" />
    <glyph glyph-name="Z" unicode="Z" horiz-adv-x="603" 
d="M45 0v37l444 586h-431v47h498v-36l-441 -586h450v-48h-520z" />
    <glyph glyph-name="bracketleft" unicode="[" horiz-adv-x="336" 
d="M303 -122h-239v894h239v-45h-193v-804h193v-45z" />
    <glyph glyph-name="backslash" unicode="\" horiz-adv-x="329" 
d="M259 -100l-236 900h47l236 -900h-47z" />
    <glyph glyph-name="bracketright" unicode="]" horiz-adv-x="326" 
d="M271 772v-894h-239v45h193v804h-193v45h239z" />
    <glyph glyph-name="asciicircum" unicode="^" horiz-adv-x="446" 
d="M71 560l132 142h37l131 -142h-37l-113 108l-113 -108h-37z" />
    <glyph glyph-name="underscore" unicode="_" horiz-adv-x="520" 
d="M488 -132h-455v45h455v-45z" />
    <glyph glyph-name="grave" unicode="`" horiz-adv-x="275" 
d="M207 559h-21l-95 121v21h43z" />
    <glyph glyph-name="a" unicode="a" horiz-adv-x="609" 
d="M43 248c0 144 104 257 243 257c104 0 174 -40 217 -120v115h47v-500h-47v123c-31 -76 -122 -130 -218 -130c-139 0 -242 113 -242 255zM300 38c101 0 203 83 203 166v87c0 82 -88 169 -202 169c-141 0 -210 -110 -210 -212c0 -120 86 -210 209 -210z" />
    <glyph glyph-name="b" unicode="b" horiz-adv-x="622" 
d="M575 248c0 -142 -103 -255 -242 -255c-96 0 -187 54 -218 130v-123h-47v670h47v-285c43 80 114 120 218 120c139 0 242 -113 242 -257zM115 204c0 -83 102 -166 203 -166c123 0 209 90 209 210c0 102 -68 212 -209 212c-114 0 -203 -87 -203 -169v-87z" />
    <glyph glyph-name="c" unicode="c" horiz-adv-x="542" 
d="M313 -7c-142 0 -257 115 -257 255c0 141 116 257 257 257c72 0 140 -30 188 -82l-33 -33c-37 42 -96 69 -155 69c-115 0 -209 -95 -209 -211c0 -115 93 -209 209 -209c60 0 113 24 156 69l33 -33c-48 -51 -117 -82 -189 -82z" />
    <glyph glyph-name="d" unicode="d" horiz-adv-x="615" 
d="M48 248c0 144 103 257 242 257c104 0 175 -40 218 -120v285h47v-670h-47v123c-31 -76 -121 -130 -218 -130c-139 0 -242 113 -242 255zM305 38c102 0 203 83 203 166v87c0 82 -89 169 -203 169c-141 0 -209 -110 -209 -212c0 -120 87 -210 209 -210z" />
    <glyph glyph-name="e" unicode="e" horiz-adv-x="601" 
d="M305 -7c-140 0 -249 113 -249 255c0 143 109 257 249 257c139 0 249 -112 249 -255c0 -9 -1 -12 -1 -19h-449c8 -110 90 -193 201 -193c73 0 131 31 171 94l45 -12c-44 -78 -124 -127 -216 -127zM104 268h401c-8 113 -92 194 -200 194s-193 -83 -201 -194z" />
    <glyph glyph-name="f" unicode="f" horiz-adv-x="338" 
d="M137 443v-443h-47v443h-75l9 45h66v19c0 109 21 177 138 177c36 0 72 -7 103 -17l-7 -42c-28 10 -48 14 -77 16c-88 4 -110 -36 -110 -138v-15h173v-45h-173z" />
    <glyph glyph-name="g" unicode="g" horiz-adv-x="628" 
d="M512 375v125h48v-500c0 -157 -104 -247 -276 -236c-81 5 -144 23 -202 61l7 48c58 -38 118 -58 195 -63c144 -9 228 61 228 190v131c-26 -82 -115 -138 -223 -138c-137 0 -236 110 -236 255c0 146 96 257 236 257c112 0 183 -41 223 -130zM512 210v92
c-29 95 -95 153 -198 158c-124 7 -214 -82 -214 -212c0 -127 90 -215 212 -210c109 5 200 84 200 172z" />
    <glyph glyph-name="h" unicode="h" horiz-adv-x="561" 
d="M112 0h-47v670h47v-269c24 60 100 104 186 104c119 0 203 -103 203 -257v-248h-47v248c0 135 -72 218 -180 211c-99 -7 -162 -76 -162 -136v-323z" />
    <glyph glyph-name="i" unicode="i" horiz-adv-x="182" 
d="M61 650c0 18 12 29 29 29c18 0 29 -11 29 -29s-11 -29 -29 -29c-17 0 -29 11 -29 29zM113 0h-48v500h48v-500z" />
    <glyph glyph-name="j" unicode="j" horiz-adv-x="194" 
d="M75 650c0 18 13 29 29 29c17 0 30 -11 30 -29c0 -17 -13 -29 -30 -29c-16 0 -29 11 -29 29zM80 500h48v-561c0 -88 -49 -158 -116 -171c-19 -3 -40 -3 -63 0l8 47c12 -3 23 -2 30 -1c53 6 93 64 93 133v553z" />
    <glyph glyph-name="k" unicode="k" horiz-adv-x="484" 
d="M115 244v-244h-48v670h48v-409l261 239h60l-268 -248l295 -252h-63z" />
    <glyph glyph-name="l" unicode="l" horiz-adv-x="183" 
d="M115 0h-48v670h48v-670z" />
    <glyph glyph-name="m" unicode="m" horiz-adv-x="899" 
d="M112 0h-47v500h47v-93c35 58 88 98 184 98c78 0 135 -46 165 -122c31 72 106 122 184 122c119 0 197 -102 197 -257v-248h-48v248c0 136 -68 219 -173 212c-60 -4 -126 -61 -147 -121c7 -28 10 -58 10 -91v-248h-48v248c0 137 -61 215 -157 213
c-94 -2 -167 -73 -167 -129v-332z" />
    <glyph glyph-name="n" unicode="n" horiz-adv-x="578" 
d="M131 323v-323h-47v500h47v-97c39 61 97 102 186 102c116 0 205 -105 205 -257v-248h-48v248c0 135 -77 218 -181 212c-92 -6 -162 -75 -162 -137z" />
    <glyph glyph-name="o" unicode="o" horiz-adv-x="613" 
d="M308 -7c-141 0 -257 114 -257 255s116 257 257 257s257 -116 257 -257s-116 -255 -257 -255zM308 462c-113 0 -209 -94 -209 -214c0 -116 94 -211 209 -211c113 0 210 92 210 211c0 116 -94 214 -210 214z" />
    <glyph glyph-name="p" unicode="p" horiz-adv-x="624" 
d="M574 252c0 -144 -102 -257 -240 -257c-96 0 -178 46 -219 123v-268h-48v650h48v-120c41 81 120 127 219 127c135 0 240 -115 240 -255zM115 280v-69c0 -86 102 -170 204 -170c122 -1 208 87 208 211c0 120 -89 210 -208 210c-112 0 -204 -83 -204 -182z" />
    <glyph glyph-name="q" unicode="q" horiz-adv-x="623" 
d="M51 252c0 140 105 255 240 255c99 0 178 -46 219 -127v120h48v-650h-48v268c-41 -77 -123 -123 -219 -123c-138 0 -240 113 -240 257zM306 462c-119 0 -208 -90 -208 -210c0 -124 86 -212 208 -211c102 0 204 84 204 170v69c0 99 -92 182 -204 182z" />
    <glyph glyph-name="r" unicode="r" horiz-adv-x="393" 
d="M63 0v500h48v-98c22 55 72 96 158 103c37 3 80 -4 107 -11l-8 -50c-39 14 -68 19 -110 16c-87 -6 -147 -76 -147 -129v-331h-48z" />
    <glyph glyph-name="s" unicode="s" horiz-adv-x="463" 
d="M55 146l47 5c16 -66 71 -115 140 -115c72 0 127 38 127 84c0 41 -24 66 -99 103c-28 13 -60 27 -80 35c-83 36 -113 70 -113 128c0 69 68 119 163 120c96 2 163 -54 169 -141l-43 -6c-7 65 -51 103 -122 105c-68 2 -119 -33 -119 -80c0 -41 19 -59 103 -97
c30 -13 51 -22 71 -32c89 -45 120 -80 120 -135c0 -71 -76 -127 -177 -127c-97 0 -167 62 -187 153z" />
    <glyph glyph-name="t" unicode="t" horiz-adv-x="431" 
d="M154 603h47v-115h168v-45h-168v-281c0 -99 29 -122 102 -118c33 2 59 8 77 16l7 -47c-34 -12 -71 -18 -103 -18c-93 0 -130 46 -130 142v306h-114l9 45h105v115z" />
    <glyph glyph-name="u" unicode="u" horiz-adv-x="555" 
d="M443 178v322h48v-500h-48v97c-38 -61 -95 -102 -184 -102c-116 0 -205 105 -205 257v248h48v-248c0 -135 77 -218 181 -211c92 6 160 74 160 137z" />
    <glyph glyph-name="v" unicode="v" horiz-adv-x="531" 
d="M458 500h51l-213 -500h-51l-221 500h51l195 -441z" />
    <glyph glyph-name="w" unicode="w" horiz-adv-x="832" 
d="M222 0l-194 500h51l167 -430l146 430h51l145 -430l167 430h51l-195 -500h-51l-143 425l-144 -425h-51z" />
    <glyph glyph-name="x" unicode="x" horiz-adv-x="509" 
d="M225 250l-200 250h58l171 -214l171 214h58l-200 -250l200 -250h-58l-171 214l-171 -214h-58z" />
    <glyph glyph-name="y" unicode="y" horiz-adv-x="526" 
d="M456 500h51l-212 -500c-22 -53 -67 -214 -196 -236l-7 44c90 18 135 144 155 192l-224 500h52l195 -444z" />
    <glyph glyph-name="z" unicode="z" horiz-adv-x="523" 
d="M54 0v36l337 417h-324v47h392v-36l-335 -416h345v-48h-415z" />
    <glyph glyph-name="braceleft" unicode="{" horiz-adv-x="412" 
d="M87 326c76 -8 92 -116 92 -204c0 -105 62 -180 168 -209l-23 -35c-115 34 -188 120 -188 221c0 107 -10 202 -88 201v52c78 -1 88 94 88 201c0 101 73 187 188 221l23 -35c-106 -29 -168 -103 -168 -209c0 -88 -16 -196 -92 -204z" />
    <glyph glyph-name="bar" unicode="|" horiz-adv-x="165" 
d="M105 -200h-47v923h47v-923z" />
    <glyph glyph-name="braceright" unicode="}" horiz-adv-x="412" 
d="M323 326c-76 8 -92 116 -92 204c0 106 -61 180 -168 209l23 35c115 -34 188 -120 188 -221c0 -107 11 -202 88 -201v-52c-77 1 -88 -94 -88 -201c0 -101 -73 -187 -188 -221l-23 35c107 29 168 104 168 209c0 88 16 196 92 204z" />
    <glyph glyph-name="asciitilde" unicode="~" horiz-adv-x="503" 
d="M383 413l38 -6c-5 -48 -23 -117 -82 -117c-24 0 -52 11 -83 31c-59 40 -87 52 -118 48c-29 -5 -43 -25 -53 -79l-38 11c10 57 27 109 93 109c41 0 77 -25 113 -46c34 -21 58 -31 76 -31c40 0 50 48 54 80z" />
    <glyph glyph-name="uni00A0" unicode="&#xa0;" horiz-adv-x="260" 
 />
    <glyph glyph-name="exclamdown" unicode="&#xa1;" horiz-adv-x="210" 
d="M79 477c0 17 13 29 30 29s29 -12 29 -29c0 -16 -12 -29 -29 -29s-30 13 -30 29zM131 -200h-48v463h48v-463z" />
    <glyph glyph-name="cent" unicode="&#xa2;" horiz-adv-x="543" 
d="M307 700l-1 -93c72 0 139 -31 187 -82l-33 -33c-37 42 -96 69 -155 69c-115 0 -209 -95 -209 -211c0 -115 93 -209 209 -209c60 0 113 24 156 69l33 -33c-48 -51 -116 -82 -187 -82l-1 -95h-41l1 98c-123 19 -218 125 -218 252c0 128 95 235 217 254l1 96h41z" />
    <glyph glyph-name="sterling" unicode="&#xa3;" horiz-adv-x="613" 
d="M171 459v-131h347v-44h-347v-236h410v-48h-537v37c53 0 79 5 79 39v208h-79v44h79v131c0 124 87 194 225 196c128 2 223 -72 231 -181l-45 -5c-6 87 -86 142 -183 142c-119 0 -180 -64 -180 -152z" />
    <glyph glyph-name="currency" unicode="&#xa4;" horiz-adv-x="543" 
d="M272 113c-53 0 -100 18 -136 48l-41 -41l-30 29l41 41c-29 37 -46 83 -46 134c0 50 19 98 51 135l-46 47l29 29l48 -47c35 28 80 45 130 45s96 -17 132 -46l48 49l30 -29l-48 -49c31 -37 50 -84 50 -134c0 -51 -17 -97 -46 -133l43 -43l-29 -29l-43 43
c-36 -31 -84 -49 -137 -49zM272 487c-85 0 -165 -71 -165 -163c0 -96 77 -166 165 -166s165 69 165 166c0 92 -79 163 -165 163z" />
    <glyph glyph-name="yen" unicode="&#xa5;" horiz-adv-x="580" 
d="M482 240h-166v-96h166v-38h-166v-106h-47v106h-162v38h162v96h-162v38h155l-239 372h55l214 -340l218 340h54l-242 -372h160v-38z" />
    <glyph glyph-name="brokenbar" unicode="&#xa6;" horiz-adv-x="259" 
d="M151 350h-48v300h48v-300zM151 -130h-48v300h48v-300z" />
    <glyph glyph-name="section" unicode="&#xa7;" horiz-adv-x="545" 
d="M92 87c28 -97 96 -153 188 -156c99 -3 176 42 176 111c0 63 -35 96 -148 139c-18 7 -89 30 -112 40c-61 25 -133 63 -133 141c0 69 48 110 130 127c-46 24 -77 55 -77 116c0 65 60 111 164 113c99 1 162 -57 168 -142l-45 -6c-6 62 -46 102 -119 104
c-77 2 -121 -30 -121 -75c0 -59 81 -87 110 -100c27 -11 50 -22 70 -31c61 -29 116 -63 116 -138c0 -68 -46 -103 -107 -117c104 -37 153 -88 153 -171c0 -97 -88 -160 -225 -160c-117 0 -211 84 -237 199zM251 250c89 -5 159 11 159 80c0 56 -48 84 -104 108l-40 18
c-117 -3 -154 -46 -154 -94s41 -76 130 -108l6 -3z" />
    <glyph glyph-name="dieresis" unicode="&#xa8;" horiz-adv-x="365" 
d="M248 650c0 17 12 29 29 29c19 0 29 -12 29 -29c0 -18 -10 -30 -29 -30c-17 0 -29 12 -29 30zM58 650c0 17 13 29 30 29c18 0 29 -12 29 -29c0 -18 -11 -30 -29 -30c-17 0 -30 12 -30 30z" />
    <glyph glyph-name="copyright" unicode="&#xa9;" horiz-adv-x="789" 
d="M60 324c0 191 147 338 338 338c190 0 337 -147 337 -338c0 -190 -147 -337 -337 -337c-191 0 -338 147 -338 337zM93 324c0 -168 136 -304 305 -304c168 0 304 136 304 304c0 169 -136 305 -304 305c-169 0 -305 -136 -305 -305zM403 139c-111 0 -189 76 -189 185
c0 103 80 179 189 179c47 0 94 -20 127 -56l-24 -28c-25 28 -65 46 -103 46c-85 0 -149 -61 -149 -141c0 -84 63 -146 149 -146c37 0 84 20 105 47l23 -31c-40 -36 -80 -55 -128 -55z" />
    <glyph glyph-name="ordfeminine" unicode="&#xaa;" horiz-adv-x="355" 
d="M31 583c0 79 56 141 133 141c57 0 96 -22 119 -66v63h26v-275h-26v68c-17 -42 -66 -71 -120 -71c-76 0 -132 61 -132 140zM172 467c56 0 111 46 111 92v48c0 45 -48 93 -111 93c-77 0 -115 -61 -115 -117c0 -66 47 -116 115 -116z" />
    <glyph glyph-name="guillemotleft" unicode="&#xab;" horiz-adv-x="506" 
d="M255 476l-146 -178l146 -178l-29 -27l-163 205l163 205zM458 476l-146 -178l146 -178l-29 -27l-163 205l163 205z" />
    <glyph glyph-name="logicalnot" unicode="&#xac;" horiz-adv-x="550" 
d="M56 364v47h438v-240h-47v193h-391z" />
    <glyph glyph-name="registered" unicode="&#xae;" horiz-adv-x="789" 
d="M60 324c0 191 147 338 338 338c190 0 337 -147 337 -338c0 -190 -147 -337 -337 -337c-191 0 -338 147 -338 337zM93 324c0 -168 136 -304 305 -304c168 0 304 136 304 304c0 169 -136 305 -304 305c-169 0 -305 -136 -305 -305zM260 162v330h146c80 1 130 -29 130 -99
c0 -58 -26 -86 -77 -96l88 -135h-43l-85 130h-123v-130h-36zM406 461h-110v-138h110c66 1 93 19 93 71c0 47 -37 67 -93 67z" />
    <glyph glyph-name="macron" unicode="&#xaf;" horiz-adv-x="436" 
d="M24 618v38h386v-38h-386z" />
    <glyph glyph-name="degree" unicode="&#xb0;" horiz-adv-x="401" 
d="M200 441c-97 0 -168 70 -168 167c0 91 73 165 168 165s168 -74 168 -165c0 -97 -71 -167 -168 -167zM200 734c-70 0 -128 -53 -128 -126c0 -75 55 -129 128 -129s128 53 128 129c0 73 -58 126 -128 126z" />
    <glyph glyph-name="plusminus" unicode="&#xb1;" horiz-adv-x="555" 
d="M302 420v-185h-46v185h-186v45h186v185h46v-185h183v-45h-183zM467 92h-375v45h375v-45z" />
    <glyph glyph-name="twosuperior" unicode="&#xb2;" horiz-adv-x="365" 
d="M51 775l-4 36c30 39 81 63 127 63c94 0 141 -44 141 -128c0 -38 -21 -80 -59 -119l-155 -152h218v-35h-279v27l168 161c52 49 73 84 73 125c0 55 -34 86 -101 86c-40 0 -79 -11 -129 -64z" />
    <glyph glyph-name="threesuperior" unicode="&#xb3;" horiz-adv-x="365" 
d="M23 497l6 40c37 -43 103 -67 149 -67c75 0 112 42 112 91c0 59 -66 91 -168 86v32c31 1 160 -3 160 82c0 42 -38 77 -104 77c-41 0 -90 -12 -130 -36l-5 38c34 20 87 34 131 34c90 0 143 -50 143 -112c0 -50 -28 -81 -88 -96c60 -18 97 -55 97 -112
c0 -64 -56 -120 -152 -120c-53 0 -122 29 -151 63z" />
    <glyph glyph-name="acute" unicode="&#xb4;" horiz-adv-x="275" 
d="M59 558l80 142h43v-21l-102 -121h-21z" />
    <glyph glyph-name="uni00B5" unicode="&#xb5;" horiz-adv-x="654" 
d="M497 252v248h48v-335c0 -76 18 -118 68 -118v-47c-65 0 -94 45 -106 102c-41 -69 -113 -107 -194 -107c-77 0 -145 33 -188 93v-288h-47v700h47v-248c0 -131 78 -214 189 -214c99 0 183 78 183 214z" />
    <glyph glyph-name="paragraph" unicode="&#xb6;" horiz-adv-x="689" 
d="M39 443c0 129 86 207 244 207h332v-850h-42v805h-247v-805h-43v433c-164 0 -244 78 -244 210z" />
    <glyph glyph-name="periodcentered" unicode="&#xb7;" horiz-adv-x="129" 
d="M34 261c0 18 12 29 29 29c19 0 29 -11 29 -29s-10 -29 -29 -29c-17 0 -29 11 -29 29z" />
    <glyph glyph-name="cedilla" unicode="&#xb8;" horiz-adv-x="260" 
d="M130 92c86 -30 127 -123 99 -209c-23 -61 -85 -103 -152 -103c-19 0 -39 3 -58 11l8 37c15 -5 30 -7 45 -7c52 0 101 29 117 77c22 67 -14 137 -77 161z" />
    <glyph glyph-name="onesuperior" unicode="&#xb9;" horiz-adv-x="259" 
d="M20 844l147 30h24v-432h-35v393l-132 -21z" />
    <glyph glyph-name="guillemotright" unicode="&#xbb;" horiz-adv-x="506" 
d="M259 120l146 178l-146 178l29 27l163 -205l-163 -205zM56 120l146 178l-146 178l29 27l163 -205l-163 -205z" />
    <glyph glyph-name="onequarter" unicode="&#xbc;" horiz-adv-x="760" 
d="M3 684l147 30h24v-432h-34v393l-132 -21zM535 700l-316 -700h-39l316 700h39zM414 135l237 299h29v-299h64v-33h-64v-102h-35v102h-231v33zM645 374l-188 -239h188v239z" />
    <glyph glyph-name="onehalf" unicode="&#xbd;" horiz-adv-x="740" 
d="M3 684l147 30h24v-432h-34v393l-132 -21zM488 700l-316 -700h-38l316 700h38zM444 335l-4 36c30 39 81 63 127 63c94 0 142 -44 142 -128c0 -39 -22 -81 -60 -119l-155 -152h219v-35h-280v27l169 161c52 49 72 84 72 125c0 55 -34 86 -101 86c-40 0 -79 -11 -129 -64z
" />
    <glyph glyph-name="threequarters" unicode="&#xbe;" horiz-adv-x="886" 
d="M11 337l6 40c37 -43 103 -67 149 -67c75 0 112 42 112 91c0 59 -66 91 -168 86v32c31 1 160 -3 160 82c0 42 -38 77 -104 77c-41 0 -90 -12 -130 -36l-5 38c34 20 87 34 131 34c90 0 143 -50 143 -112c0 -50 -28 -81 -88 -96c60 -18 97 -55 97 -112
c0 -64 -56 -120 -152 -120c-53 0 -122 29 -151 63zM615 700l-316 -700h-39l316 700h39zM541 135l237 299h28v-299h65v-33h-65v-102h-34v102h-231v33zM772 374l-188 -239h188v239z" />
    <glyph glyph-name="questiondown" unicode="&#xbf;" horiz-adv-x="481" 
d="M251 476c0 18 13 29 30 29c18 0 29 -11 29 -29s-11 -29 -29 -29c-17 0 -30 11 -30 29zM263 309h43c0 -220 -204 -241 -204 -381c0 -73 57 -120 164 -120c54 0 126 20 169 45l10 -44c-57 -29 -130 -47 -198 -46c-123 2 -193 68 -193 165c0 187 209 174 209 381z" />
    <glyph glyph-name="Agrave" unicode="&#xc0;" horiz-adv-x="718" 
d="M378 709h-21l-95 121v21h43zM72 0h-49l242 670h189l242 -670h-49l-73 202c-71 6 -130 42 -215 42c-84 0 -138 -37 -214 -42zM297 623l-136 -376c68 9 120 41 198 41s134 -31 198 -41l-135 376h-125z" />
    <glyph glyph-name="Aacute" unicode="&#xc1;" horiz-adv-x="718" 
d="M350 708l80 142h43v-21l-102 -121h-21zM72 0h-49l242 670h189l242 -670h-49l-73 202c-71 6 -130 42 -215 42c-84 0 -138 -37 -214 -42zM297 623l-136 -376c68 9 120 41 198 41s134 -31 198 -41l-135 376h-125z" />
    <glyph glyph-name="Acircumflex" unicode="&#xc2;" horiz-adv-x="718" 
d="M209 708l132 142h37l131 -142h-37l-113 108l-113 -108h-37zM72 0h-49l242 670h189l242 -670h-49l-73 202c-71 6 -130 42 -215 42c-84 0 -138 -37 -214 -42zM297 623l-136 -376c68 9 120 41 198 41s134 -31 198 -41l-135 376h-125z" />
    <glyph glyph-name="Atilde" unicode="&#xc3;" horiz-adv-x="718" 
d="M507 845l39 -6c-5 -48 -23 -117 -83 -117c-23 0 -51 11 -82 31c-59 40 -87 52 -118 48c-29 -5 -43 -25 -53 -79l-38 11c10 57 27 109 93 109c40 0 77 -25 113 -46c34 -21 58 -31 76 -31c41 0 50 48 53 80zM72 0h-49l242 670h189l242 -670h-49l-73 202
c-71 6 -130 42 -215 42c-84 0 -138 -37 -214 -42zM297 623l-136 -376c68 9 120 41 198 41s134 -31 198 -41l-135 376h-125z" />
    <glyph glyph-name="Adieresis" unicode="&#xc4;" horiz-adv-x="718" 
d="M240 794c0 18 12 29 29 29c18 0 29 -11 29 -29s-11 -29 -29 -29c-17 0 -29 11 -29 29zM420 794c0 18 12 29 29 29c18 0 29 -11 29 -29s-11 -29 -29 -29c-17 0 -29 11 -29 29zM72 0h-49l242 670h189l242 -670h-49l-73 202c-71 6 -130 42 -215 42c-84 0 -138 -37 -214 -42z
M297 623l-136 -376c68 9 120 41 198 41s134 -31 198 -41l-135 376h-125z" />
    <glyph glyph-name="Aring" unicode="&#xc5;" horiz-adv-x="682" 
d="M53 0h-49l242 670h9c-25 22 -41 54 -41 90c0 70 57 127 126 127c70 0 126 -57 126 -127c0 -36 -15 -68 -40 -90h9l242 -670h-49l-73 202c-71 6 -130 42 -215 42c-84 0 -138 -37 -214 -42zM248 760c0 -50 41 -89 92 -89s92 39 92 89c0 52 -40 93 -92 93
c-51 0 -92 -41 -92 -93zM278 623l-136 -376c68 9 120 41 198 41c79 0 135 -31 199 -41l-136 376h-125z" />
    <glyph glyph-name="AE" unicode="&#xc6;" horiz-adv-x="901" 
d="M412 0v239c-17 4 -35 7 -55 7c-89 0 -138 -38 -213 -43l-74 -203h-49l242 670h588v-47h-391v-254h378v-47h-378v-274h391v-48h-439zM412 283v340h-117l-135 -375c67 9 115 41 197 41c20 0 38 -2 55 -6z" />
    <glyph glyph-name="Ccedilla" unicode="&#xc7;" horiz-adv-x="662" 
d="M381 -7c-184 0 -336 162 -336 346c0 185 152 338 336 338c88 0 178 -39 241 -104l-34 -34c-53 58 -129 91 -207 91c-159 0 -289 -132 -289 -291c0 -160 129 -298 289 -298c74 0 156 37 208 94l34 -34c-45 -46 -104 -81 -164 -97c20 -34 25 -79 11 -121
c-23 -61 -85 -103 -152 -103c-19 0 -39 3 -58 11l8 38c14 -6 30 -10 46 -10c48 0 99 27 116 79c13 39 5 72 -12 98c-12 -2 -25 -3 -37 -3z" />
    <glyph glyph-name="Egrave" unicode="&#xc8;" horiz-adv-x="556" 
d="M336 709h-21l-95 121v21h43zM67 0v670h439v-47h-392v-254h379v-47h-379v-274h392v-48h-439z" />
    <glyph glyph-name="Eacute" unicode="&#xc9;" horiz-adv-x="556" 
d="M217 708l79 142h43v-21l-102 -121h-20zM67 0v670h439v-47h-392v-254h379v-47h-379v-274h392v-48h-439z" />
    <glyph glyph-name="Ecircumflex" unicode="&#xca;" horiz-adv-x="556" 
d="M128 708l131 142h37l132 -142h-37l-113 108l-113 -108h-37zM67 0v670h439v-47h-392v-254h379v-47h-379v-274h392v-48h-439z" />
    <glyph glyph-name="Edieresis" unicode="&#xcb;" horiz-adv-x="556" 
d="M343 805c0 18 13 29 30 29c18 0 29 -11 29 -29s-11 -29 -29 -29c-17 0 -30 11 -30 29zM154 805c0 18 12 29 29 29c19 0 29 -11 29 -29s-10 -29 -29 -29c-17 0 -29 11 -29 29zM67 0v670h439v-47h-392v-254h379v-47h-379v-274h392v-48h-439z" />
    <glyph glyph-name="Igrave" unicode="&#xcc;" horiz-adv-x="211" 
d="M163 709h-20l-95 121v21h42zM132 0h-47v670h47v-670z" />
    <glyph glyph-name="Iacute" unicode="&#xcd;" horiz-adv-x="211" 
d="M44 708l80 142h43v-21l-102 -121h-21zM132 0h-47v670h47v-670z" />
    <glyph glyph-name="Icircumflex" unicode="&#xce;" horiz-adv-x="211" 
d="M-45 708l132 142h37l132 -142h-37l-113 108l-114 -108h-37zM132 0h-47v670h47v-670z" />
    <glyph glyph-name="Idieresis" unicode="&#xcf;" horiz-adv-x="211" 
d="M171 805c0 18 12 29 29 29c19 0 30 -11 30 -29s-11 -29 -30 -29c-17 0 -29 11 -29 29zM-19 805c0 18 13 29 30 29c18 0 29 -11 29 -29s-11 -29 -29 -29c-17 0 -30 11 -30 29zM132 0h-47v670h47v-670z" />
    <glyph glyph-name="Eth" unicode="&#xd0;" horiz-adv-x="724" 
d="M94 348v302h252c202 0 325 -124 325 -328c0 -198 -126 -322 -325 -322h-252v303h-57v45h57zM346 606h-204v-258h205v-45h-205v-259h204c169 0 278 109 278 279c0 175 -106 283 -278 283z" />
    <glyph glyph-name="Ntilde" unicode="&#xd1;" horiz-adv-x="728" 
d="M512 845l39 -6c-5 -48 -23 -117 -83 -117c-23 0 -51 11 -82 31c-59 40 -87 52 -118 48c-29 -5 -43 -25 -53 -79l-38 11c10 57 27 109 93 109c40 0 77 -25 113 -46c34 -21 58 -31 76 -31c41 0 50 48 53 80zM76 0v670h47l484 -595v595h48v-670h-48l-484 595v-595h-47z" />
    <glyph glyph-name="Ograve" unicode="&#xd2;" horiz-adv-x="778" 
d="M447 709h-21l-95 121v21h43zM58 333c0 189 153 344 336 344s336 -155 336 -344c0 -188 -153 -340 -336 -340s-336 152 -336 340zM105 333c0 -160 132 -294 289 -294c156 0 288 134 288 294c0 162 -131 298 -288 298s-289 -136 -289 -298z" />
    <glyph glyph-name="Oacute" unicode="&#xd3;" horiz-adv-x="778" 
d="M328 708l80 142h43v-21l-102 -121h-21zM58 333c0 189 153 344 336 344s336 -155 336 -344c0 -188 -153 -340 -336 -340s-336 152 -336 340zM105 333c0 -160 132 -294 289 -294c156 0 288 134 288 294c0 162 -131 298 -288 298s-289 -136 -289 -298z" />
    <glyph glyph-name="Ocircumflex" unicode="&#xd4;" horiz-adv-x="778" 
d="M239 708l132 142h37l132 -142h-38l-113 108l-113 -108h-37zM58 333c0 189 153 344 336 344s336 -155 336 -344c0 -188 -153 -340 -336 -340s-336 152 -336 340zM105 333c0 -160 132 -294 289 -294c156 0 288 134 288 294c0 162 -131 298 -288 298s-289 -136 -289 -298z
" />
    <glyph glyph-name="Otilde" unicode="&#xd5;" horiz-adv-x="778" 
d="M538 845l38 -6c-5 -48 -23 -117 -82 -117c-24 0 -52 11 -83 31c-59 40 -87 52 -118 48c-29 -5 -43 -25 -53 -79l-38 11c10 57 27 109 93 109c41 0 77 -25 113 -46c34 -21 58 -31 76 -31c40 0 50 48 54 80zM58 333c0 189 153 344 336 344s336 -155 336 -344
c0 -188 -153 -340 -336 -340s-336 152 -336 340zM105 333c0 -160 132 -294 289 -294c156 0 288 134 288 294c0 162 -131 298 -288 298s-289 -136 -289 -298z" />
    <glyph glyph-name="Odieresis" unicode="&#xd6;" horiz-adv-x="744" 
d="M255 812c0 18 12 29 29 29c19 0 29 -11 29 -29s-10 -29 -29 -29c-17 0 -29 11 -29 29zM435 812c0 18 12 29 29 29c19 0 29 -11 29 -29s-10 -29 -29 -29c-17 0 -29 11 -29 29zM38 333c0 189 153 344 336 344s336 -155 336 -344c0 -188 -153 -340 -336 -340
s-336 152 -336 340zM86 333c0 -160 131 -294 288 -294s289 134 289 294c0 162 -132 298 -289 298c-156 0 -288 -136 -288 -298z" />
    <glyph glyph-name="multiply" unicode="&#xd7;" horiz-adv-x="512" 
d="M260 261l-147 -147l-34 32l148 148l-149 149l33 33l149 -149l145 145l34 -32l-146 -146l144 -145l-33 -32z" />
    <glyph glyph-name="Oslash" unicode="&#xd8;" horiz-adv-x="744" 
d="M38 333c0 189 153 344 336 344c89 0 171 -37 232 -96l54 50l23 -26l-53 -50c50 -60 80 -138 80 -222c0 -188 -153 -340 -336 -340c-92 0 -177 39 -238 101l-73 -68l-22 26l72 68c-47 58 -75 132 -75 213zM86 333c0 -68 23 -131 62 -181l423 397c-51 50 -121 82 -197 82
c-156 0 -288 -136 -288 -298zM595 523l-425 -397c53 -53 125 -87 204 -87c157 0 289 134 289 294c0 71 -26 138 -68 190z" />
    <glyph glyph-name="Ugrave" unicode="&#xd9;" horiz-adv-x="679" 
d="M397 709h-21l-95 121v21h43zM567 670h45l-1 -411c1 -146 -93 -264 -268 -264c-178 0 -273 113 -273 264l-1 411h45v-410c0 -130 88 -217 231 -217c135 0 221 90 223 216z" />
    <glyph glyph-name="Uacute" unicode="&#xda;" horiz-adv-x="679" 
d="M278 708l80 142h43v-21l-102 -121h-21zM567 670h45l-1 -411c1 -146 -93 -264 -268 -264c-178 0 -273 113 -273 264l-1 411h45v-410c0 -130 88 -217 231 -217c135 0 221 90 223 216z" />
    <glyph glyph-name="Ucircumflex" unicode="&#xdb;" horiz-adv-x="679" 
d="M189 708l132 142h37l132 -142h-38l-113 108l-113 -108h-37zM567 670h45l-1 -411c1 -146 -93 -264 -268 -264c-178 0 -273 113 -273 264l-1 411h45v-410c0 -130 88 -217 231 -217c135 0 221 90 223 216z" />
    <glyph glyph-name="Udieresis" unicode="&#xdc;" horiz-adv-x="679" 
d="M405 805c0 18 12 29 29 29c19 0 29 -11 29 -29s-10 -29 -29 -29c-17 0 -29 11 -29 29zM215 805c0 18 13 29 30 29c18 0 29 -11 29 -29s-11 -29 -29 -29c-17 0 -30 11 -30 29zM567 670h45l-1 -411c1 -146 -93 -264 -268 -264c-178 0 -273 113 -273 264l-1 411h45v-410
c0 -130 88 -217 231 -217c135 0 221 90 223 216z" />
    <glyph glyph-name="Yacute" unicode="&#xdd;" horiz-adv-x="577" 
d="M278 708l79 142h43v-21l-102 -121h-20zM264 268l-246 402h55l214 -358l218 358h54l-248 -402v-268h-47v268z" />
    <glyph glyph-name="Thorn" unicode="&#xde;" horiz-adv-x="590" 
d="M567 324c0 -141 -101 -255 -242 -255c-124 0 -198 67 -217 124v-193h-48v650h48v-177c30 48 101 108 217 108c141 0 242 -116 242 -257zM108 268c0 -78 90 -149 193 -154c121 -6 219 79 219 210c0 130 -99 220 -218 212c-114 -9 -194 -82 -194 -144v-124z" />
    <glyph glyph-name="germandbls" unicode="&#xdf;" horiz-adv-x="550" 
d="M73 0v417c0 153 95 236 212 236c110 0 188 -76 188 -163c0 -64 -84 -111 -84 -160c0 -48 125 -94 125 -183c0 -90 -78 -151 -194 -151c-21 0 -39 1 -55 4v48c26 -7 44 -10 68 -8c84 5 133 47 133 111c0 65 -125 116 -125 172c0 71 85 102 85 167c0 68 -65 122 -152 119
c-76 -2 -153 -70 -153 -192v-417h-48z" />
    <glyph glyph-name="agrave" unicode="&#xe0;" horiz-adv-x="609" 
d="M321 558h-21l-95 121v21h43zM43 248c0 144 104 257 243 257c104 0 174 -40 217 -120v115h47v-500h-47v123c-31 -76 -122 -130 -218 -130c-139 0 -242 113 -242 255zM300 38c101 0 203 83 203 166v87c0 82 -88 169 -202 169c-141 0 -210 -110 -210 -212
c0 -120 86 -210 209 -210z" />
    <glyph glyph-name="aacute" unicode="&#xe1;" horiz-adv-x="609" 
d="M265 558l81 142h43v-21l-103 -121h-21zM43 248c0 144 104 257 243 257c104 0 174 -40 217 -120v115h47v-500h-47v123c-31 -76 -122 -130 -218 -130c-139 0 -242 113 -242 255zM300 38c101 0 203 83 203 166v87c0 82 -88 169 -202 169c-141 0 -210 -110 -210 -212
c0 -120 86 -210 209 -210z" />
    <glyph glyph-name="acircumflex" unicode="&#xe2;" horiz-adv-x="609" 
d="M148 558l132 142h37l131 -142h-37l-113 108l-113 -108h-37zM43 248c0 144 104 257 243 257c104 0 174 -40 217 -120v115h47v-500h-47v123c-31 -76 -122 -130 -218 -130c-139 0 -242 113 -242 255zM300 38c101 0 203 83 203 166v87c0 82 -88 169 -202 169
c-141 0 -210 -110 -210 -212c0 -120 86 -210 209 -210z" />
    <glyph glyph-name="atilde" unicode="&#xe3;" horiz-adv-x="609" 
d="M435 684l39 -6c-6 -48 -23 -117 -83 -117c-23 0 -51 11 -82 31c-59 40 -88 52 -118 48c-29 -5 -43 -25 -54 -79l-37 11c10 57 26 109 93 109c40 0 76 -25 112 -46c35 -21 59 -31 77 -31c41 0 50 48 53 80zM43 248c0 144 104 257 243 257c104 0 174 -40 217 -120v115h47
v-500h-47v123c-31 -76 -122 -130 -218 -130c-139 0 -242 113 -242 255zM300 38c101 0 203 83 203 166v87c0 82 -88 169 -202 169c-141 0 -210 -110 -210 -212c0 -120 86 -210 209 -210z" />
    <glyph glyph-name="adieresis" unicode="&#xe4;" horiz-adv-x="609" 
d="M178 643c0 17 12 29 29 29c19 0 29 -12 29 -29c0 -18 -10 -30 -29 -30c-17 0 -29 12 -29 30zM358 643c0 17 12 29 29 29c19 0 29 -12 29 -29c0 -18 -10 -30 -29 -30c-17 0 -29 12 -29 30zM43 248c0 144 104 257 243 257c104 0 174 -40 217 -120v115h47v-500h-47v123
c-31 -76 -122 -130 -218 -130c-139 0 -242 113 -242 255zM300 38c101 0 203 83 203 166v87c0 82 -88 169 -202 169c-141 0 -210 -110 -210 -212c0 -120 86 -210 209 -210z" />
    <glyph glyph-name="aring" unicode="&#xe5;" horiz-adv-x="609" 
d="M172 679c0 70 57 127 126 127c70 0 126 -57 126 -127c0 -67 -56 -122 -126 -122c-69 0 -126 55 -126 122zM206 679c0 -49 41 -88 92 -88s92 39 92 88c0 53 -40 93 -92 93c-51 0 -92 -41 -92 -93zM43 248c0 144 104 257 243 257c104 0 174 -40 217 -120v115h47v-500h-47
v123c-31 -76 -122 -130 -218 -130c-139 0 -242 113 -242 255zM300 38c101 0 203 83 203 166v87c0 82 -88 169 -202 169c-141 0 -210 -110 -210 -212c0 -120 86 -210 209 -210z" />
    <glyph glyph-name="ae" unicode="&#xe6;" horiz-adv-x="1070" 
d="M59 248c0 144 104 257 242 257c105 0 175 -40 217 -120v115h48v-101c45 64 118 106 202 106c140 0 249 -112 249 -255c0 -9 0 -12 -1 -19h-449c9 -110 91 -193 201 -193c74 0 131 31 171 94l45 -12c-43 -78 -124 -127 -216 -127c-84 0 -157 41 -202 105v-98h-48v123
c-31 -76 -121 -130 -218 -130c-138 0 -241 113 -241 255zM567 268h401c-7 113 -91 194 -200 194c-108 0 -192 -83 -201 -194zM315 38c102 0 203 83 203 166v87c0 82 -88 169 -202 169c-141 0 -210 -110 -210 -212c0 -120 87 -210 209 -210z" />
    <glyph glyph-name="ccedilla" unicode="&#xe7;" horiz-adv-x="542" 
d="M313 -7c-142 0 -257 115 -257 255c0 141 116 257 257 257c72 0 140 -30 188 -82l-33 -33c-37 42 -96 69 -155 69c-115 0 -209 -95 -209 -211c0 -115 93 -209 209 -209c60 0 113 24 156 69l33 -33c-35 -37 -81 -64 -131 -75c19 -34 23 -76 10 -117
c-23 -61 -85 -103 -152 -103c-19 0 -39 3 -58 11l7 38c14 -6 30 -10 46 -10c48 0 99 27 116 79c13 38 6 70 -10 96c-6 -1 -11 -1 -17 -1z" />
    <glyph glyph-name="egrave" unicode="&#xe8;" horiz-adv-x="601" 
d="M326 562h-20l-95 121v21h42zM305 -7c-140 0 -249 113 -249 255c0 143 109 257 249 257c139 0 249 -112 249 -255c0 -9 -1 -12 -1 -19h-449c8 -110 90 -193 201 -193c73 0 131 31 171 94l45 -12c-44 -78 -124 -127 -216 -127zM104 268h401c-8 113 -92 194 -200 194
s-193 -83 -201 -194z" />
    <glyph glyph-name="eacute" unicode="&#xe9;" horiz-adv-x="601" 
d="M271 562l81 142h43v-21l-104 -121h-20zM305 -7c-140 0 -249 113 -249 255c0 143 109 257 249 257c139 0 249 -112 249 -255c0 -9 -1 -12 -1 -19h-449c8 -110 90 -193 201 -193c73 0 131 31 171 94l45 -12c-44 -78 -124 -127 -216 -127zM104 268h401
c-8 113 -92 194 -200 194s-193 -83 -201 -194z" />
    <glyph glyph-name="ecircumflex" unicode="&#xea;" horiz-adv-x="601" 
d="M154 562l131 142h37l132 -142h-37l-113 108l-113 -108h-37zM305 -7c-140 0 -249 113 -249 255c0 143 109 257 249 257c139 0 249 -112 249 -255c0 -9 -1 -12 -1 -19h-449c8 -110 90 -193 201 -193c73 0 131 31 171 94l45 -12c-44 -78 -124 -127 -216 -127zM104 268h401
c-8 113 -92 194 -200 194s-193 -83 -201 -194z" />
    <glyph glyph-name="edieresis" unicode="&#xeb;" horiz-adv-x="601" 
d="M184 647c0 17 12 29 29 29c18 0 29 -12 29 -29c0 -18 -11 -30 -29 -30c-17 0 -29 12 -29 30zM364 647c0 17 12 29 29 29c18 0 29 -12 29 -29c0 -18 -11 -30 -29 -30c-17 0 -29 12 -29 30zM305 -7c-140 0 -249 113 -249 255c0 143 109 257 249 257
c139 0 249 -112 249 -255c0 -9 -1 -12 -1 -19h-449c8 -110 90 -193 201 -193c73 0 131 31 171 94l45 -12c-44 -78 -124 -127 -216 -127zM104 268h401c-8 113 -92 194 -200 194s-193 -83 -201 -194z" />
    <glyph glyph-name="igrave" unicode="&#xec;" horiz-adv-x="183" 
d="M119 558h-20l-95 121v21h42zM120 0h-48v500h48v-500z" />
    <glyph glyph-name="iacute" unicode="&#xed;" horiz-adv-x="183" 
d="M64 558l81 142h43v-21l-104 -121h-20zM120 0h-48v500h48v-500z" />
    <glyph glyph-name="icircumflex" unicode="&#xee;" horiz-adv-x="183" 
d="M-54 558l132 142h37l132 -142h-37l-113 108l-113 -108h-38zM120 0h-48v500h48v-500z" />
    <glyph glyph-name="idieresis" unicode="&#xef;" horiz-adv-x="183" 
d="M-24 643c0 17 13 29 30 29c18 0 29 -12 29 -29c0 -18 -11 -30 -29 -30c-17 0 -30 12 -30 30zM157 643c0 17 12 29 29 29c18 0 29 -12 29 -29c0 -18 -11 -30 -29 -30c-17 0 -29 12 -29 30zM120 0h-48v500h48v-500z" />
    <glyph glyph-name="eth" unicode="&#xf0;" horiz-adv-x="572" 
d="M42 238c0 141 89 224 209 227c113 3 184 -49 217 -116c-18 89 -56 167 -111 230l-203 -62l-6 28l187 57c-18 18 -37 34 -57 48h58c14 -11 27 -23 40 -35l70 22l5 -29l-52 -16c85 -95 128 -218 128 -355c0 -154 -76 -244 -251 -244c-168 0 -234 114 -234 245zM275 36
c131 0 204 66 204 202c0 89 -83 180 -204 182c-104 1 -185 -58 -185 -182c0 -114 60 -202 185 -202z" />
    <glyph glyph-name="ntilde" unicode="&#xf1;" horiz-adv-x="578" 
d="M446 692l39 -6c-6 -47 -24 -117 -83 -117c-24 0 -52 11 -82 31c-60 40 -88 52 -119 48c-29 -5 -42 -25 -53 -79l-38 11c10 57 28 109 94 109c40 0 76 -25 112 -46c35 -21 59 -31 77 -31c10 0 18 3 25 8c15 12 24 37 28 72zM131 323v-323h-47v500h47v-97
c39 61 97 102 186 102c116 0 205 -105 205 -257v-248h-48v248c0 135 -77 218 -181 212c-92 -6 -162 -75 -162 -137z" />
    <glyph glyph-name="ograve" unicode="&#xf2;" horiz-adv-x="613" 
d="M331 566h-21l-95 121v21h43zM308 -7c-141 0 -257 114 -257 255s116 257 257 257s257 -116 257 -257s-116 -255 -257 -255zM308 462c-113 0 -209 -94 -209 -214c0 -116 94 -211 209 -211c113 0 210 92 210 211c0 116 -94 214 -210 214z" />
    <glyph glyph-name="oacute" unicode="&#xf3;" horiz-adv-x="613" 
d="M275 566l81 142h43v-21l-103 -121h-21zM308 -7c-141 0 -257 114 -257 255s116 257 257 257s257 -116 257 -257s-116 -255 -257 -255zM308 462c-113 0 -209 -94 -209 -214c0 -116 94 -211 209 -211c113 0 210 92 210 211c0 116 -94 214 -210 214z" />
    <glyph glyph-name="ocircumflex" unicode="&#xf4;" horiz-adv-x="613" 
d="M158 566l132 142h37l131 -142h-37l-113 108l-113 -108h-37zM308 -7c-141 0 -257 114 -257 255s116 257 257 257s257 -116 257 -257s-116 -255 -257 -255zM308 462c-113 0 -209 -94 -209 -214c0 -116 94 -211 209 -211c113 0 210 92 210 211c0 116 -94 214 -210 214z" />
    <glyph glyph-name="otilde" unicode="&#xf5;" horiz-adv-x="613" 
d="M445 692l39 -6c-6 -48 -23 -117 -83 -117c-23 0 -51 11 -82 31c-59 40 -88 52 -118 48c-29 -5 -43 -25 -54 -79l-37 11c10 57 26 109 93 109c40 0 76 -25 112 -46c35 -21 59 -31 77 -31c41 0 50 48 53 80zM308 -7c-141 0 -257 114 -257 255s116 257 257 257
s257 -116 257 -257s-116 -255 -257 -255zM308 462c-113 0 -209 -94 -209 -214c0 -116 94 -211 209 -211c113 0 210 92 210 211c0 116 -94 214 -210 214z" />
    <glyph glyph-name="odieresis" unicode="&#xf6;" horiz-adv-x="613" 
d="M188 651c0 17 12 29 29 29c19 0 29 -12 29 -29c0 -18 -10 -30 -29 -30c-17 0 -29 12 -29 30zM368 651c0 17 12 29 29 29c19 0 29 -12 29 -29c0 -18 -10 -30 -29 -30c-17 0 -29 12 -29 30zM308 -7c-141 0 -257 114 -257 255s116 257 257 257s257 -116 257 -257
s-116 -255 -257 -255zM308 462c-113 0 -209 -94 -209 -214c0 -116 94 -211 209 -211c113 0 210 92 210 211c0 116 -94 214 -210 214z" />
    <glyph glyph-name="divide" unicode="&#xf7;" horiz-adv-x="531" 
d="M239 482c0 18 12 29 29 29c19 0 29 -11 29 -29s-10 -29 -29 -29c-17 0 -29 11 -29 29zM491 233h-450v46h450v-46zM239 20c0 18 12 30 29 30c19 0 29 -12 29 -30c0 -17 -10 -29 -29 -29c-17 0 -29 12 -29 29z" />
    <glyph glyph-name="oslash" unicode="&#xf8;" horiz-adv-x="580" 
d="M290 -7c-72 0 -137 29 -184 77l-45 -42l-22 26l45 42c-32 42 -51 95 -51 152c0 141 116 257 257 257c65 0 124 -24 169 -64l44 40l24 -25l-43 -40c39 -45 63 -104 63 -168c0 -141 -116 -255 -257 -255zM290 462c-113 0 -209 -94 -209 -214c0 -45 13 -86 37 -121l308 283
c-37 32 -84 52 -136 52zM450 385l-310 -284c38 -40 91 -64 150 -64c113 0 210 92 210 211c0 52 -19 100 -50 137z" />
    <glyph glyph-name="ugrave" unicode="&#xf9;" horiz-adv-x="555" 
d="M298 558h-21l-95 121v21h43zM443 178v322h48v-500h-48v97c-38 -61 -95 -102 -184 -102c-116 0 -205 105 -205 257v248h48v-248c0 -135 77 -218 181 -211c92 6 160 74 160 137z" />
    <glyph glyph-name="uacute" unicode="&#xfa;" horiz-adv-x="555" 
d="M242 558l81 142h43v-21l-103 -121h-21zM443 178v322h48v-500h-48v97c-38 -61 -95 -102 -184 -102c-116 0 -205 105 -205 257v248h48v-248c0 -135 77 -218 181 -211c92 6 160 74 160 137z" />
    <glyph glyph-name="ucircumflex" unicode="&#xfb;" horiz-adv-x="555" 
d="M125 558l132 142h37l131 -142h-37l-113 108l-113 -108h-37zM443 178v322h48v-500h-48v97c-38 -61 -95 -102 -184 -102c-116 0 -205 105 -205 257v248h48v-248c0 -135 77 -218 181 -211c92 6 160 74 160 137z" />
    <glyph glyph-name="udieresis" unicode="&#xfc;" horiz-adv-x="555" 
d="M155 643c0 17 12 29 29 29c19 0 29 -12 29 -29c0 -18 -10 -30 -29 -30c-17 0 -29 12 -29 30zM335 643c0 17 12 29 29 29c19 0 29 -12 29 -29c0 -18 -10 -30 -29 -30c-17 0 -29 12 -29 30zM443 178v322h48v-500h-48v97c-38 -61 -95 -102 -184 -102
c-116 0 -205 105 -205 257v248h48v-248c0 -135 77 -218 181 -211c92 6 160 74 160 137z" />
    <glyph glyph-name="yacute" unicode="&#xfd;" horiz-adv-x="526" 
d="M228 558l81 142h43v-21l-104 -121h-20zM456 500h51l-212 -500c-22 -53 -67 -214 -196 -236l-7 44c90 18 135 144 155 192l-224 500h52l195 -444z" />
    <glyph glyph-name="thorn" unicode="&#xfe;" horiz-adv-x="635" 
d="M584 248c0 -141 -102 -255 -243 -255c-123 0 -198 67 -217 124v-317h-47v900h47v-303c30 48 102 108 217 108c141 0 243 -116 243 -257zM124 192c0 -78 90 -149 193 -154c121 -6 219 79 219 210c0 130 -99 220 -217 212c-114 -9 -195 -82 -195 -144v-124z" />
    <glyph glyph-name="ydieresis" unicode="&#xff;" horiz-adv-x="526" 
d="M141 643c0 17 12 29 29 29c18 0 29 -12 29 -29c0 -18 -11 -30 -29 -30c-17 0 -29 12 -29 30zM321 643c0 17 12 29 29 29c18 0 29 -12 29 -29c0 -18 -11 -30 -29 -30c-17 0 -29 12 -29 30zM456 500h51l-212 -500c-22 -53 -67 -214 -196 -236l-7 44c90 18 135 144 155 192
l-224 500h52l195 -444z" />
    <glyph glyph-name="Amacron" unicode="&#x100;" horiz-adv-x="718" 
d="M166 768v38h386v-38h-386zM72 0h-49l242 670h189l242 -670h-49l-73 202c-71 6 -130 42 -215 42c-84 0 -138 -37 -214 -42zM297 623l-136 -376c68 9 120 41 198 41s134 -31 198 -41l-135 376h-125z" />
    <glyph glyph-name="amacron" unicode="&#x101;" horiz-adv-x="609" 
d="M105 612v38h386v-38h-386zM43 248c0 144 104 257 243 257c104 0 174 -40 217 -120v115h47v-500h-47v123c-31 -76 -122 -130 -218 -130c-139 0 -242 113 -242 255zM300 38c101 0 203 83 203 166v87c0 82 -88 169 -202 169c-141 0 -210 -110 -210 -212
c0 -120 86 -210 209 -210z" />
    <glyph glyph-name="Abreve" unicode="&#x102;" horiz-adv-x="718" 
d="M462 850h35c1 -82 -58 -142 -141 -143c-77 -1 -135 60 -134 143h34c0 -60 42 -104 102 -104c58 0 104 46 104 104zM72 0h-49l242 670h189l242 -670h-49l-73 202c-71 6 -130 42 -215 42c-84 0 -138 -37 -214 -42zM297 623l-136 -376c68 9 120 41 198 41s134 -31 198 -41
l-135 376h-125z" />
    <glyph glyph-name="abreve" unicode="&#x103;" horiz-adv-x="609" 
d="M399 700h35c1 -82 -58 -142 -141 -143c-77 -1 -135 60 -134 143h35c0 -60 42 -104 101 -104c58 0 104 46 104 104zM43 248c0 144 104 257 243 257c104 0 174 -40 217 -120v115h47v-500h-47v123c-31 -76 -122 -130 -218 -130c-139 0 -242 113 -242 255zM300 38
c101 0 203 83 203 166v87c0 82 -88 169 -202 169c-141 0 -210 -110 -210 -212c0 -120 86 -210 209 -210z" />
    <glyph glyph-name="Aogonek" unicode="&#x104;" horiz-adv-x="682" 
d="M53 0h-49l242 670h189l242 -670h-32c-13 -34 -11 -75 4 -108c22 -51 69 -76 113 -76c16 0 32 3 46 10l7 -38c-22 -9 -43 -13 -63 -13c-65 0 -120 41 -144 102c-19 52 -15 104 11 147l-64 178c-71 6 -130 42 -215 42c-84 0 -138 -37 -214 -42zM278 623l-136 -376
c68 9 120 41 198 41c79 0 135 -31 199 -41l-136 376h-125z" />
    <glyph glyph-name="aogonek" unicode="&#x105;" horiz-adv-x="580" 
d="M34 248c0 144 104 257 243 257c104 0 174 -40 217 -120v115h47v-500h-17c-16 -35 -15 -80 0 -115c23 -51 69 -76 114 -76c16 0 32 3 46 10l7 -38c-22 -9 -43 -13 -63 -13c-65 0 -120 41 -144 102c-19 51 -15 102 10 144v109c-31 -76 -122 -130 -218 -130
c-139 0 -242 113 -242 255zM291 38c101 0 203 83 203 166v87c0 82 -88 169 -202 169c-141 0 -210 -110 -210 -212c0 -120 86 -210 209 -210z" />
    <glyph glyph-name="Cacute" unicode="&#x106;" horiz-adv-x="662" 
d="M352 708l80 142h42v-21l-101 -121h-21zM381 -7c-184 0 -336 162 -336 346c0 185 152 338 336 338c88 0 178 -39 241 -104l-34 -34c-53 58 -129 91 -207 91c-159 0 -289 -132 -289 -291c0 -160 129 -298 289 -298c74 0 156 37 208 94l34 -34c-64 -66 -155 -108 -242 -108z
" />
    <glyph glyph-name="cacute" unicode="&#x107;" horiz-adv-x="542" 
d="M264 558l81 142h43v-21l-103 -121h-21zM313 -7c-142 0 -257 115 -257 255c0 141 116 257 257 257c72 0 140 -30 188 -82l-33 -33c-37 42 -96 69 -155 69c-115 0 -209 -95 -209 -211c0 -115 93 -209 209 -209c60 0 113 24 156 69l33 -33c-48 -51 -117 -82 -189 -82z" />
    <glyph glyph-name="Ccircumflex" unicode="&#x108;" horiz-adv-x="662" 
d="M206 700l132 142h37l131 -142h-37l-113 108l-113 -108h-37zM381 -7c-184 0 -336 162 -336 346c0 185 152 338 336 338c88 0 178 -39 241 -104l-34 -34c-53 58 -129 91 -207 91c-159 0 -289 -132 -289 -291c0 -160 129 -298 289 -298c74 0 156 37 208 94l34 -34
c-64 -66 -155 -108 -242 -108z" />
    <glyph glyph-name="ccircumflex" unicode="&#x109;" horiz-adv-x="542" 
d="M147 558l132 142h37l131 -142h-37l-113 108l-113 -108h-37zM313 -7c-142 0 -257 115 -257 255c0 141 116 257 257 257c72 0 140 -30 188 -82l-33 -33c-37 42 -96 69 -155 69c-115 0 -209 -95 -209 -211c0 -115 93 -209 209 -209c60 0 113 24 156 69l33 -33
c-48 -51 -117 -82 -189 -82z" />
    <glyph glyph-name="Cdotaccent" unicode="&#x10a;" horiz-adv-x="662" 
d="M338 820c0 17 12 29 29 29c19 0 30 -12 30 -29c0 -18 -11 -30 -30 -30c-17 0 -29 12 -29 30zM381 -7c-184 0 -336 162 -336 346c0 185 152 338 336 338c88 0 178 -39 241 -104l-34 -34c-53 58 -129 91 -207 91c-159 0 -289 -132 -289 -291c0 -160 129 -298 289 -298
c74 0 156 37 208 94l34 -34c-64 -66 -155 -108 -242 -108z" />
    <glyph glyph-name="cdotaccent" unicode="&#x10b;" horiz-adv-x="542" 
d="M268 670c0 18 12 29 29 29c19 0 29 -11 29 -29s-10 -29 -29 -29c-17 0 -29 11 -29 29zM313 -7c-142 0 -257 115 -257 255c0 141 116 257 257 257c72 0 140 -30 188 -82l-33 -33c-37 42 -96 69 -155 69c-115 0 -209 -95 -209 -211c0 -115 93 -209 209 -209
c60 0 113 24 156 69l33 -33c-48 -51 -117 -82 -189 -82z" />
    <glyph glyph-name="Ccaron" unicode="&#x10c;" horiz-adv-x="662" 
d="M193 850h38l113 -107l113 107h37l-132 -142h-37zM381 -7c-184 0 -336 162 -336 346c0 185 152 338 336 338c88 0 178 -39 241 -104l-34 -34c-53 58 -129 91 -207 91c-159 0 -289 -132 -289 -291c0 -160 129 -298 289 -298c74 0 156 37 208 94l34 -34
c-64 -66 -155 -108 -242 -108z" />
    <glyph glyph-name="ccaron" unicode="&#x10d;" horiz-adv-x="542" 
d="M147 700h37l113 -108l113 108h37l-131 -142h-37zM313 -7c-142 0 -257 115 -257 255c0 141 116 257 257 257c72 0 140 -30 188 -82l-33 -33c-37 42 -96 69 -155 69c-115 0 -209 -95 -209 -211c0 -115 93 -209 209 -209c60 0 113 24 156 69l33 -33
c-48 -51 -117 -82 -189 -82z" />
    <glyph glyph-name="Dcaron" unicode="&#x10e;" horiz-adv-x="696" 
d="M198 850h37l113 -108l113 108h38l-132 -142h-37zM70 0v670h252c202 0 325 -128 325 -338c0 -204 -126 -332 -325 -332h-252zM322 626h-204v-582h204c169 0 278 112 278 289c0 181 -106 293 -278 293z" />
    <glyph glyph-name="dcaron" unicode="&#x10f;" horiz-adv-x="745" 
d="M48 248c0 144 103 257 242 257c104 0 175 -40 218 -120v265h47v-650h-47v123c-31 -76 -121 -130 -218 -130c-139 0 -242 113 -242 255zM639 423h-21l55 227h43v-21zM305 38c102 0 203 83 203 166v87c0 82 -89 169 -203 169c-141 0 -209 -110 -209 -212
c0 -120 87 -210 209 -210z" />
    <glyph glyph-name="Dcroat" unicode="&#x110;" horiz-adv-x="729" 
d="M113 670h252c202 0 325 -128 325 -338c0 -203 -125 -332 -325 -332h-252v311h-84v43h84v316zM161 626v-272h228v-43h-228v-267h204c167 0 278 115 278 289c0 179 -108 293 -278 293h-204z" />
    <glyph glyph-name="dcroat" unicode="&#x111;" horiz-adv-x="593" 
d="M31 248c0 144 103 257 242 257c104 0 175 -40 218 -120v180h-200v32h200v73h47v-73h41v-32h-41v-565h-47v123c-31 -76 -122 -130 -218 -130c-139 0 -242 113 -242 255zM288 38c101 0 203 83 203 166v87c0 82 -89 169 -203 169c-141 0 -209 -110 -209 -212
c0 -120 86 -210 209 -210z" />
    <glyph glyph-name="Emacron" unicode="&#x112;" horiz-adv-x="556" 
d="M88 768v38h386v-38h-386zM67 0v670h439v-47h-392v-254h379v-47h-379v-274h392v-48h-439z" />
    <glyph glyph-name="emacron" unicode="&#x113;" horiz-adv-x="601" 
d="M111 616v38h386v-38h-386zM305 -7c-140 0 -249 113 -249 255c0 143 109 257 249 257c139 0 249 -112 249 -255c0 -9 -1 -12 -1 -19h-449c8 -110 90 -193 201 -193c73 0 131 31 171 94l45 -12c-44 -78 -124 -127 -216 -127zM104 268h401c-8 113 -92 194 -200 194
s-193 -83 -201 -194z" />
    <glyph glyph-name="Ebreve" unicode="&#x114;" horiz-adv-x="556" 
d="M387 842h35c1 -82 -58 -142 -141 -143c-77 -1 -135 60 -134 143h34c0 -60 42 -104 102 -104c58 0 104 46 104 104zM67 0v670h439v-47h-392v-254h379v-47h-379v-274h392v-48h-439z" />
    <glyph glyph-name="ebreve" unicode="&#x115;" horiz-adv-x="601" 
d="M405 704h35c1 -82 -58 -142 -141 -143c-77 -1 -135 60 -134 143h34c0 -60 43 -104 102 -104c58 0 104 46 104 104zM305 -7c-140 0 -249 113 -249 255c0 143 109 257 249 257c139 0 249 -112 249 -255c0 -9 -1 -12 -1 -19h-449c8 -110 90 -193 201 -193
c73 0 131 31 171 94l45 -12c-44 -78 -124 -127 -216 -127zM104 268h401c-8 113 -92 194 -200 194s-193 -83 -201 -194z" />
    <glyph glyph-name="Edotaccent" unicode="&#x116;" horiz-adv-x="556" 
d="M250 820c0 17 13 29 30 29c18 0 29 -12 29 -29c0 -18 -11 -30 -29 -30c-17 0 -30 12 -30 30zM67 0v670h439v-47h-392v-254h379v-47h-379v-274h392v-48h-439z" />
    <glyph glyph-name="edotaccent" unicode="&#x117;" horiz-adv-x="601" 
d="M275 674c0 18 12 29 29 29c18 0 29 -11 29 -29s-11 -29 -29 -29c-17 0 -29 11 -29 29zM305 -7c-140 0 -249 113 -249 255c0 143 109 257 249 257c139 0 249 -112 249 -255c0 -9 -1 -12 -1 -19h-449c8 -110 90 -193 201 -193c73 0 131 31 171 94l45 -12
c-44 -78 -124 -127 -216 -127zM104 268h401c-8 113 -92 194 -200 194s-193 -83 -201 -194z" />
    <glyph glyph-name="Eogonek" unicode="&#x118;" horiz-adv-x="530" 
d="M59 0v670h439v-47h-391v-254h378v-47h-378v-274h274c1 1 3 2 4 4l2 -4h111v-48h-108c-13 -34 -11 -75 3 -108c23 -51 69 -76 114 -76c16 0 32 3 46 10l7 -38c-22 -9 -43 -13 -63 -13c-65 0 -120 41 -144 102c-16 43 -16 85 -1 123h-293z" />
    <glyph glyph-name="eogonek" unicode="&#x119;" horiz-adv-x="581" 
d="M292 -7c-139 0 -249 113 -249 255c0 143 110 257 249 257c140 0 249 -112 249 -255c0 -9 0 -12 -1 -19h-449c9 -110 91 -193 201 -193c74 0 131 31 171 94l45 -12c-17 -31 -40 -57 -67 -78c-26 -36 -28 -90 -10 -132c23 -51 69 -76 113 -76c16 0 32 3 46 10l8 -38
c-22 -9 -43 -13 -63 -13c-65 0 -120 41 -144 102c-15 40 -16 81 -3 117c-30 -12 -62 -19 -96 -19zM91 268h401c-8 113 -91 194 -200 194c-108 0 -193 -83 -201 -194z" />
    <glyph glyph-name="Ecaron" unicode="&#x11a;" horiz-adv-x="556" 
d="M130 850h38l113 -108l113 108h37l-132 -142h-37zM67 0v670h439v-47h-392v-254h379v-47h-379v-274h392v-48h-439z" />
    <glyph glyph-name="ecaron" unicode="&#x11b;" horiz-adv-x="601" 
d="M154 704h37l113 -108l113 108h37l-132 -142h-37zM305 -7c-140 0 -249 113 -249 255c0 143 109 257 249 257c139 0 249 -112 249 -255c0 -9 -1 -12 -1 -19h-449c8 -110 90 -193 201 -193c73 0 131 31 171 94l45 -12c-44 -78 -124 -127 -216 -127zM104 268h401
c-8 113 -92 194 -200 194s-193 -83 -201 -194z" />
    <glyph glyph-name="Gcircumflex" unicode="&#x11c;" horiz-adv-x="703" 
d="M240 700l132 142h37l131 -142h-37l-113 108l-113 -108h-37zM394 -7c-199 0 -343 143 -343 340c0 199 142 344 340 344c99 0 202 -41 259 -104l-34 -33c-53 57 -138 90 -225 90c-173 0 -292 -124 -292 -297c0 -172 121 -292 295 -292c67 0 165 34 213 78v179h-259v48h306
v-245c-61 -63 -169 -108 -260 -108z" />
    <glyph glyph-name="gcircumflex" unicode="&#x11d;" horiz-adv-x="628" 
d="M156 566l132 142h37l132 -142h-37l-113 108l-113 -108h-38zM512 375v125h48v-500c0 -157 -104 -247 -276 -236c-81 5 -144 23 -202 61l7 48c58 -38 118 -58 195 -63c144 -9 228 61 228 190v131c-26 -82 -115 -138 -223 -138c-137 0 -236 110 -236 255
c0 146 96 257 236 257c112 0 183 -41 223 -130zM512 210v92c-29 95 -95 153 -198 158c-124 7 -214 -82 -214 -212c0 -127 90 -215 212 -210c109 5 200 84 200 172z" />
    <glyph glyph-name="Gbreve" unicode="&#x11e;" horiz-adv-x="703" 
d="M462 850h35c1 -82 -58 -142 -141 -143c-77 -1 -135 60 -134 143h35c0 -60 42 -104 101 -104s104 46 104 104zM394 -7c-199 0 -343 143 -343 340c0 199 142 344 340 344c99 0 202 -41 259 -104l-34 -33c-53 57 -138 90 -225 90c-173 0 -292 -124 -292 -297
c0 -172 121 -292 295 -292c67 0 165 34 213 78v179h-259v48h306v-245c-61 -63 -169 -108 -260 -108z" />
    <glyph glyph-name="gbreve" unicode="&#x11f;" horiz-adv-x="628" 
d="M408 708h35c1 -82 -58 -142 -141 -143c-77 -1 -135 60 -134 143h34c0 -60 42 -104 102 -104c58 0 104 46 104 104zM512 375v125h48v-500c0 -157 -104 -247 -276 -236c-81 5 -144 23 -202 61l7 48c58 -38 118 -58 195 -63c144 -9 228 61 228 190v131
c-26 -82 -115 -138 -223 -138c-137 0 -236 110 -236 255c0 146 96 257 236 257c112 0 183 -41 223 -130zM512 210v92c-29 95 -95 153 -198 158c-124 7 -214 -82 -214 -212c0 -127 90 -215 212 -210c109 5 200 84 200 172z" />
    <glyph glyph-name="Gdotaccent" unicode="&#x120;" horiz-adv-x="703" 
d="M333 820c0 17 12 29 29 29c19 0 30 -12 30 -29c0 -18 -11 -30 -30 -30c-17 0 -29 12 -29 30zM394 -7c-199 0 -343 143 -343 340c0 199 142 344 340 344c99 0 202 -41 259 -104l-34 -33c-53 57 -138 90 -225 90c-173 0 -292 -124 -292 -297c0 -172 121 -292 295 -292
c67 0 165 34 213 78v179h-259v48h306v-245c-61 -63 -169 -108 -260 -108z" />
    <glyph glyph-name="gdotaccent" unicode="&#x121;" horiz-adv-x="628" 
d="M277 678c0 18 13 29 30 29c18 0 29 -11 29 -29s-11 -29 -29 -29c-17 0 -30 11 -30 29zM512 375v125h48v-500c0 -157 -104 -247 -276 -236c-81 5 -144 23 -202 61l7 48c58 -38 118 -58 195 -63c144 -9 228 61 228 190v131c-26 -82 -115 -138 -223 -138
c-137 0 -236 110 -236 255c0 146 96 257 236 257c112 0 183 -41 223 -130zM512 210v92c-29 95 -95 153 -198 158c-124 7 -214 -82 -214 -212c0 -127 90 -215 212 -210c109 5 200 84 200 172z" />
    <glyph glyph-name="uni0122" unicode="&#x122;" horiz-adv-x="703" 
d="M394 -7c-199 0 -343 143 -343 340c0 199 142 344 340 344c99 0 202 -41 259 -104l-34 -33c-53 57 -138 90 -225 90c-173 0 -292 -124 -292 -297c0 -172 121 -292 295 -292c67 0 165 34 213 78v179h-259v48h306v-245c-61 -63 -169 -108 -260 -108zM294 -220l72 142h43v-21
l-94 -121h-21z" />
    <glyph glyph-name="uni0123" unicode="&#x123;" horiz-adv-x="628" 
d="M340 814h20l-49 -227h-43v21zM512 375v125h48v-500c0 -157 -104 -247 -276 -236c-81 5 -144 23 -202 61l7 48c58 -38 118 -58 195 -63c144 -9 228 61 228 190v131c-26 -82 -115 -138 -223 -138c-137 0 -236 110 -236 255c0 146 96 257 236 257c112 0 183 -41 223 -130z
M512 210v92c-29 95 -95 153 -198 158c-124 7 -214 -82 -214 -212c0 -127 90 -215 212 -210c109 5 200 84 200 172z" />
    <glyph glyph-name="Hcircumflex" unicode="&#x124;" horiz-adv-x="611" 
d="M155 728l132 142h37l132 -142h-37l-113 108l-113 -108h-38zM54 0v670h48v-301h408v301h47v-670h-47v322h-408v-322h-48z" />
    <glyph glyph-name="hcircumflex" unicode="&#x125;" horiz-adv-x="561" 
d="M-59 700l132 142h37l131 -142h-37l-113 108l-113 -108h-37zM112 0h-47v670h47v-269c24 60 100 104 186 104c119 0 203 -103 203 -257v-248h-47v248c0 135 -72 218 -180 211c-99 -7 -162 -76 -162 -136v-323z" />
    <glyph glyph-name="Hbar" unicode="&#x126;" horiz-adv-x="670" 
d="M87 650h48v-107h408v107h47v-107h56v-42h-56v-501h-47v302h-408v-302h-48v501h-63v42h63v107zM135 349h408v152h-408v-152z" />
    <glyph glyph-name="hbar" unicode="&#x127;" horiz-adv-x="534" 
d="M85 0h-48v565h-26v32h26v73h48v-73h214v-32h-214v-164c23 60 99 104 185 104c120 0 204 -103 204 -257v-248h-48v248c0 135 -71 218 -179 211c-99 -7 -162 -76 -162 -136v-323z" />
    <glyph glyph-name="Itilde" unicode="&#x128;" horiz-adv-x="211" 
d="M245 830l39 -7c-6 -49 -23 -116 -84 -116c-23 0 -50 10 -81 30c-59 41 -88 53 -118 48c-30 -4 -43 -24 -54 -78l-38 11c10 57 28 109 94 109c40 0 76 -25 112 -46c35 -21 59 -31 77 -31c40 0 50 49 53 80zM132 0h-47v670h47v-670z" />
    <glyph glyph-name="itilde" unicode="&#x129;" horiz-adv-x="183" 
d="M234 684l39 -6c-6 -47 -24 -117 -83 -117c-24 0 -52 11 -82 31c-60 40 -88 52 -119 48c-29 -5 -43 -25 -53 -79l-38 11c10 57 27 109 93 109c41 0 77 -25 113 -46c35 -21 59 -31 77 -31c10 0 18 3 25 8c15 12 24 37 28 72zM120 0h-48v500h48v-500z" />
    <glyph glyph-name="Imacron" unicode="&#x12a;" horiz-adv-x="211" 
d="M-88 768v38h387v-38h-387zM132 0h-47v670h47v-670z" />
    <glyph glyph-name="imacron" unicode="&#x12b;" horiz-adv-x="183" 
d="M-96 612v38h386v-38h-386zM120 0h-48v500h48v-500z" />
    <glyph glyph-name="Iogonek" unicode="&#x12e;" horiz-adv-x="268" 
d="M157 0h-21c-13 -34 -10 -75 4 -108c22 -51 69 -76 113 -76c16 0 32 3 46 10l7 -38c-22 -9 -43 -13 -63 -13c-65 0 -120 41 -144 102c-18 51 -14 102 10 145v648h48v-670z" />
    <glyph glyph-name="iogonek" unicode="&#x12f;" horiz-adv-x="182" 
d="M61 650c0 17 12 29 29 29c18 0 29 -12 29 -29c0 -18 -11 -30 -29 -30c-17 0 -29 12 -29 30zM113 0h-21c-13 -34 -10 -75 4 -108c22 -51 69 -76 113 -76c16 0 32 3 46 10l7 -38c-22 -9 -43 -13 -63 -13c-65 0 -120 41 -144 102c-18 51 -14 102 10 145v478h48v-500z" />
    <glyph glyph-name="Idotaccent" unicode="&#x130;" horiz-adv-x="211" 
d="M76 819c0 18 13 29 30 29c18 0 29 -11 29 -29s-11 -29 -29 -29c-17 0 -30 11 -30 29zM132 0h-47v670h47v-670z" />
    <glyph glyph-name="dotlessi" unicode="&#x131;" horiz-adv-x="183" 
d="M120 0h-48v500h48v-500z" />
    <glyph glyph-name="IJ" unicode="&#x132;" horiz-adv-x="729" 
d="M132 0h-47v670h47v-670zM409 -7c-58 0 -111 12 -157 33l11 46c42 -21 100 -31 146 -31c123 0 212 82 212 194v435h48v-435c0 -139 -111 -242 -260 -242z" />
    <glyph glyph-name="ij" unicode="&#x133;" horiz-adv-x="365" 
d="M61 650c0 18 12 29 29 29c18 0 29 -11 29 -29s-11 -29 -29 -29c-17 0 -29 11 -29 29zM246 650c0 18 13 29 29 29c17 0 30 -11 30 -29c0 -17 -13 -29 -30 -29c-16 0 -29 11 -29 29zM113 0h-48v500h48v-500zM251 500h48v-561c0 -88 -49 -158 -116 -171c-18 -3 -39 -3 -63 0
l8 47c12 -3 23 -2 30 -1c53 6 93 64 93 133v553z" />
    <glyph glyph-name="Jcircumflex" unicode="&#x134;" horiz-adv-x="546" 
d="M292 708l132 142h37l131 -142h-37l-113 108l-113 -108h-37zM206 -7c-58 0 -111 12 -157 33l11 46c42 -21 100 -31 146 -31c123 0 212 82 212 194v435h48v-435c0 -139 -111 -242 -260 -242z" />
    <glyph glyph-name="jcircumflex" unicode="&#x135;" horiz-adv-x="194" 
d="M-53 558l132 142h37l132 -142h-38l-113 108l-113 -108h-37zM80 500h48v-561c0 -88 -49 -158 -116 -171c-19 -3 -40 -3 -63 0l8 47c12 -3 23 -2 30 -1c53 6 93 64 93 133v553z" />
    <glyph glyph-name="uni0136" unicode="&#x136;" horiz-adv-x="552" 
d="M119 335v-335h-47v670h47v-317l320 317h62l-329 -326l361 -344h-62zM246 -220l72 142h43v-21l-94 -121h-21z" />
    <glyph glyph-name="uni0137" unicode="&#x137;" horiz-adv-x="484" 
d="M115 244v-244h-48v670h48v-409l261 239h60l-268 -248l295 -252h-63zM186 -220l73 142h42v-21l-94 -121h-21z" />
    <glyph glyph-name="kgreenlandic" unicode="&#x138;" horiz-adv-x="484" 
d="M115 244v-244h-48v500h48v-239l261 239h60l-268 -248l295 -252h-63z" />
    <glyph glyph-name="Lacute" unicode="&#x139;" horiz-adv-x="543" 
d="M83 708l80 142h43v-21l-102 -121h-21zM73 0v670h47v-622h392v-48h-439z" />
    <glyph glyph-name="lacute" unicode="&#x13a;" horiz-adv-x="183" 
d="M58 758l81 142h43v-21l-103 -121h-21zM115 0h-48v670h48v-670z" />
    <glyph glyph-name="uni013B" unicode="&#x13b;" horiz-adv-x="543" 
d="M73 0v670h47v-622h392v-48h-439zM210 -220l72 142h43v-21l-95 -121h-20z" />
    <glyph glyph-name="uni013C" unicode="&#x13c;" horiz-adv-x="183" 
d="M115 0h-48v670h48v-670zM-4 -220l73 142h42v-21l-94 -121h-21z" />
    <glyph glyph-name="Lcaron" unicode="&#x13d;" horiz-adv-x="530" 
d="M56 0v670h48v-622h391v-48h-439zM267 430h-21l50 227h43v-20z" />
    <glyph glyph-name="lcaron" unicode="&#x13e;" horiz-adv-x="540" 
d="M210 700h37l113 -108l113 108h38l-132 -142h-37zM115 0h-48v670h48v-670z" />
    <glyph glyph-name="Ldot" unicode="&#x13f;" horiz-adv-x="543" 
d="M73 0v670h47v-622h392v-48h-439zM311 349c0 18 12 29 29 29c19 0 29 -11 29 -29s-10 -29 -29 -29c-17 0 -29 11 -29 29z" />
    <glyph glyph-name="ldot" unicode="&#x140;" horiz-adv-x="312" 
d="M115 0h-48v670h48v-670zM217 261c0 18 12 29 29 29c19 0 29 -11 29 -29s-10 -29 -29 -29c-17 0 -29 11 -29 29z" />
    <glyph glyph-name="Lslash" unicode="&#x141;" horiz-adv-x="569" 
d="M89 0v279l-55 -13v45l55 13v346h48v-335l314 73v-45l-314 -73v-242h391v-48h-439z" />
    <glyph glyph-name="lslash" unicode="&#x142;" horiz-adv-x="214" 
d="M131 0h-48v300l-76 -36v45l76 37v324h48v-301l77 37v-45l-77 -38v-323z" />
    <glyph glyph-name="Nacute" unicode="&#x143;" horiz-adv-x="728" 
d="M303 708l80 142h42v-21l-101 -121h-21zM76 0v670h47l484 -595v595h48v-670h-48l-484 595v-595h-47z" />
    <glyph glyph-name="nacute" unicode="&#x144;" horiz-adv-x="578" 
d="M276 566l81 142h43v-21l-104 -121h-20zM131 323v-323h-47v500h47v-97c39 61 97 102 186 102c116 0 205 -105 205 -257v-248h-48v248c0 135 -77 218 -181 212c-92 -6 -162 -75 -162 -137z" />
    <glyph glyph-name="uni0145" unicode="&#x145;" horiz-adv-x="728" 
d="M76 0v670h47l484 -595v595h48v-670h-48l-484 595v-595h-47zM258 -220l72 142h43v-21l-94 -121h-21z" />
    <glyph glyph-name="uni0146" unicode="&#x146;" horiz-adv-x="578" 
d="M131 323v-323h-47v500h47v-97c39 61 97 102 186 102c116 0 205 -105 205 -257v-248h-48v248c0 135 -77 218 -181 212c-92 -6 -162 -75 -162 -137zM225 -220l72 142h43v-21l-94 -121h-21z" />
    <glyph glyph-name="Ncaron" unicode="&#x147;" horiz-adv-x="728" 
d="M214 841h37l113 -108l113 108h37l-132 -142h-37zM76 0v670h47l484 -595v595h48v-670h-48l-484 595v-595h-47z" />
    <glyph glyph-name="ncaron" unicode="&#x148;" horiz-adv-x="578" 
d="M159 708h37l113 -108l113 108h37l-132 -142h-37zM131 323v-323h-47v500h47v-97c39 61 97 102 186 102c116 0 205 -105 205 -257v-248h-48v248c0 135 -77 218 -181 212c-92 -6 -162 -75 -162 -137z" />
    <glyph glyph-name="napostrophe" unicode="&#x149;" horiz-adv-x="600" 
d="M44 422h-21l50 227h43v-20zM153 323v-323h-47v500h47v-97c39 61 97 102 186 102c116 0 205 -105 205 -257v-248h-48v248c0 135 -77 218 -181 212c-92 -6 -162 -75 -162 -137z" />
    <glyph glyph-name="Eng" unicode="&#x14a;" horiz-adv-x="716" 
d="M68 0v670h47l484 -595v595h48v-730c0 -17 -4 -39 -9 -57c-22 -65 -87 -105 -157 -105c-23 0 -46 4 -69 13l7 36c18 -6 36 -9 53 -9c70 0 127 50 127 122v60l-484 595v-595h-47z" />
    <glyph glyph-name="eng" unicode="&#x14b;" horiz-adv-x="580" 
d="M129 0h-47v500h47v-97c39 62 91 102 180 102c121 0 205 -105 205 -257v-308c0 -16 -5 -41 -9 -57c-22 -65 -87 -105 -157 -105c-23 0 -46 4 -69 13l8 36c18 -6 36 -9 53 -9c71 0 127 49 127 122v308c0 134 -72 217 -182 211c-83 -5 -156 -69 -156 -136v-323z" />
    <glyph glyph-name="Omacron" unicode="&#x14c;" horiz-adv-x="778" 
d="M196 768v38h386v-38h-386zM58 333c0 189 153 344 336 344s336 -155 336 -344c0 -188 -153 -340 -336 -340s-336 152 -336 340zM105 333c0 -160 132 -294 289 -294c156 0 288 134 288 294c0 162 -131 298 -288 298s-289 -136 -289 -298z" />
    <glyph glyph-name="omacron" unicode="&#x14d;" horiz-adv-x="613" 
d="M115 620v38h386v-38h-386zM308 -7c-141 0 -257 114 -257 255s116 257 257 257s257 -116 257 -257s-116 -255 -257 -255zM308 462c-113 0 -209 -94 -209 -214c0 -116 94 -211 209 -211c113 0 210 92 210 211c0 116 -94 214 -210 214z" />
    <glyph glyph-name="Obreve" unicode="&#x14e;" horiz-adv-x="778" 
d="M495 842h35c1 -82 -58 -142 -141 -143c-77 -1 -135 60 -134 143h34c0 -60 42 -104 102 -104c58 0 104 46 104 104zM58 333c0 189 153 344 336 344s336 -155 336 -344c0 -188 -153 -340 -336 -340s-336 152 -336 340zM105 333c0 -160 132 -294 289 -294
c156 0 288 134 288 294c0 162 -131 298 -288 298s-289 -136 -289 -298z" />
    <glyph glyph-name="obreve" unicode="&#x14f;" horiz-adv-x="613" 
d="M409 708h35c1 -82 -58 -142 -141 -143c-77 -1 -135 60 -134 143h35c0 -60 42 -104 101 -104c58 0 104 46 104 104zM308 -7c-141 0 -257 114 -257 255s116 257 257 257s257 -116 257 -257s-116 -255 -257 -255zM308 462c-113 0 -209 -94 -209 -214
c0 -116 94 -211 209 -211c113 0 210 92 210 211c0 116 -94 214 -210 214z" />
    <glyph glyph-name="Ohungarumlaut" unicode="&#x150;" horiz-adv-x="778" 
d="M239 708l73 142h43v-21l-95 -121h-21zM423 708l73 142h43v-21l-95 -121h-21zM58 333c0 189 153 344 336 344s336 -155 336 -344c0 -188 -153 -340 -336 -340s-336 152 -336 340zM105 333c0 -160 132 -294 289 -294c156 0 288 134 288 294c0 162 -131 298 -288 298
s-289 -136 -289 -298z" />
    <glyph glyph-name="ohungarumlaut" unicode="&#x151;" horiz-adv-x="613" 
d="M176 566l73 142h42v-21l-95 -121h-20zM360 566l73 142h42v-21l-95 -121h-20zM308 -7c-141 0 -257 114 -257 255s116 257 257 257s257 -116 257 -257s-116 -255 -257 -255zM308 462c-113 0 -209 -94 -209 -214c0 -116 94 -211 209 -211c113 0 210 92 210 211
c0 116 -94 214 -210 214z" />
    <glyph glyph-name="OE" unicode="&#x152;" horiz-adv-x="1158" 
d="M45 333c0 189 153 344 336 344c122 0 231 -69 290 -171v164h439v-47h-392v-254h379v-47h-379v-274h392v-48h-439v162c-59 -101 -168 -169 -290 -169c-183 0 -336 152 -336 340zM92 333c0 -160 132 -294 289 -294s288 134 288 294c0 162 -131 298 -288 298
s-289 -136 -289 -298z" />
    <glyph glyph-name="oe" unicode="&#x153;" horiz-adv-x="1030" 
d="M290 -7c-141 0 -257 114 -257 255s116 257 257 257c103 0 192 -62 233 -150c39 89 125 150 227 150c140 0 249 -112 249 -255c0 -9 0 -12 -1 -19h-449c9 -110 91 -193 201 -193c74 0 131 31 171 94l45 -12c-43 -78 -124 -127 -216 -127c-102 0 -188 60 -227 148
c-41 -87 -130 -148 -233 -148zM549 268h401c-8 113 -91 194 -200 194c-108 0 -193 -83 -201 -194zM290 462c-113 0 -209 -94 -209 -214c0 -116 94 -211 209 -211c113 0 210 92 210 211c0 116 -94 214 -210 214z" />
    <glyph glyph-name="Racute" unicode="&#x154;" horiz-adv-x="586" 
d="M231 708l80 142h43v-21l-102 -121h-21zM70 0v670h226c158 0 244 -66 244 -202c0 -108 -48 -171 -148 -194l173 -274h-57l-168 266c-14 -1 -28 -1 -44 -1h-178v-265h-48zM296 626h-178v-318h178c130 0 197 46 197 161c0 109 -72 157 -197 157z" />
    <glyph glyph-name="racute" unicode="&#x155;" horiz-adv-x="393" 
d="M186 558l81 142h43v-21l-103 -121h-21zM63 0v500h48v-98c22 55 72 96 158 103c37 3 80 -4 107 -11l-8 -50c-39 14 -68 19 -110 16c-87 -6 -147 -76 -147 -129v-331h-48z" />
    <glyph glyph-name="uni0156" unicode="&#x156;" horiz-adv-x="586" 
d="M70 0v670h226c158 0 244 -66 244 -202c0 -108 -48 -171 -148 -194l173 -274h-57l-168 266c-14 -1 -28 -1 -44 -1h-178v-265h-48zM296 626h-178v-318h178c130 0 197 46 197 161c0 109 -72 157 -197 157zM221 -220l72 142h43v-21l-94 -121h-21z" />
    <glyph glyph-name="uni0157" unicode="&#x157;" horiz-adv-x="393" 
d="M63 0v500h48v-98c22 55 72 96 158 103c37 3 80 -4 107 -11l-8 -50c-39 14 -68 19 -110 16c-87 -6 -147 -76 -147 -129v-331h-48zM47 -220l73 142h42v-21l-94 -121h-21z" />
    <glyph glyph-name="Rcaron" unicode="&#x158;" horiz-adv-x="586" 
d="M142 850h38l113 -108l113 108h37l-132 -142h-37zM70 0v670h226c158 0 244 -66 244 -202c0 -108 -48 -171 -148 -194l173 -274h-57l-168 266c-14 -1 -28 -1 -44 -1h-178v-265h-48zM296 626h-178v-318h178c130 0 197 46 197 161c0 109 -72 157 -197 157z" />
    <glyph glyph-name="rcaron" unicode="&#x159;" horiz-adv-x="393" 
d="M69 700h37l113 -108l113 108h38l-132 -142h-37zM63 0v500h48v-98c22 55 72 96 158 103c37 3 80 -4 107 -11l-8 -50c-39 14 -68 19 -110 16c-87 -6 -147 -76 -147 -129v-331h-48z" />
    <glyph glyph-name="Sacute" unicode="&#x15a;" horiz-adv-x="553" 
d="M215 708l80 142h43v-21l-102 -121h-21zM47 192l49 5c20 -80 104 -154 193 -155c105 -1 178 59 178 127c0 90 -86 120 -149 146c-18 7 -88 33 -112 43c-62 25 -135 78 -135 162c0 83 83 155 215 157c128 2 211 -73 219 -182l-44 -5c0 78 -71 144 -172 144
c-104 0 -169 -58 -169 -114c0 -79 93 -113 131 -127c19 -8 86 -35 101 -40c109 -38 165 -92 165 -181c0 -96 -90 -179 -228 -179c-110 0 -216 84 -242 199z" />
    <glyph glyph-name="sacute" unicode="&#x15b;" horiz-adv-x="463" 
d="M211 566l82 142h42v-21l-103 -121h-21zM55 146l47 5c16 -66 71 -115 140 -115c72 0 127 38 127 84c0 41 -24 66 -99 103c-28 13 -60 27 -80 35c-83 36 -113 70 -113 128c0 69 68 119 163 120c96 2 163 -54 169 -141l-43 -6c-7 65 -51 103 -122 105
c-68 2 -119 -33 -119 -80c0 -41 19 -59 103 -97c30 -13 51 -22 71 -32c89 -45 120 -80 120 -135c0 -71 -76 -127 -177 -127c-97 0 -167 62 -187 153z" />
    <glyph glyph-name="Scircumflex" unicode="&#x15c;" horiz-adv-x="553" 
d="M131 700l132 142h37l131 -142h-37l-113 108l-113 -108h-37zM47 192l49 5c20 -80 104 -154 193 -155c105 -1 178 59 178 127c0 90 -86 120 -149 146c-18 7 -88 33 -112 43c-62 25 -135 78 -135 162c0 83 83 155 215 157c128 2 211 -73 219 -182l-44 -5
c0 78 -71 144 -172 144c-104 0 -169 -58 -169 -114c0 -79 93 -113 131 -127c19 -8 86 -35 101 -40c109 -38 165 -92 165 -181c0 -96 -90 -179 -228 -179c-110 0 -216 84 -242 199z" />
    <glyph glyph-name="scircumflex" unicode="&#x15d;" horiz-adv-x="463" 
d="M94 566l132 142h37l132 -142h-37l-113 108l-113 -108h-38zM55 146l47 5c16 -66 71 -115 140 -115c72 0 127 38 127 84c0 41 -24 66 -99 103c-28 13 -60 27 -80 35c-83 36 -113 70 -113 128c0 69 68 119 163 120c96 2 163 -54 169 -141l-43 -6c-7 65 -51 103 -122 105
c-68 2 -119 -33 -119 -80c0 -41 19 -59 103 -97c30 -13 51 -22 71 -32c89 -45 120 -80 120 -135c0 -71 -76 -127 -177 -127c-97 0 -167 62 -187 153z" />
    <glyph glyph-name="Scedilla" unicode="&#x15e;" horiz-adv-x="553" 
d="M47 192l49 5c20 -80 104 -154 193 -155c105 -1 178 59 178 127c0 90 -86 120 -149 146c-18 7 -88 33 -112 43c-62 25 -135 78 -135 162c0 83 83 155 215 157c128 2 211 -73 219 -182l-44 -5c0 78 -71 144 -172 144c-104 0 -169 -58 -169 -114c0 -79 93 -113 131 -127
c19 -8 86 -35 101 -40c109 -38 165 -92 165 -181c0 -80 -61 -150 -161 -172c19 -34 23 -76 10 -117c-23 -61 -85 -103 -152 -103c-19 0 -39 3 -58 11l7 38c14 -6 30 -10 46 -10c48 0 99 27 116 79c13 38 6 70 -10 96c-8 -1 -17 -1 -26 -1c-110 0 -216 84 -242 199z" />
    <glyph glyph-name="scedilla" unicode="&#x15f;" horiz-adv-x="463" 
d="M55 146l47 5c16 -66 71 -115 140 -115c72 0 127 38 127 84c0 41 -24 66 -99 103c-28 13 -60 27 -80 35c-83 36 -113 70 -113 128c0 69 68 119 163 120c96 2 163 -54 169 -141l-43 -6c-7 65 -51 103 -122 105c-68 2 -119 -33 -119 -80c0 -41 19 -59 103 -97
c30 -13 51 -22 71 -32c89 -45 120 -80 120 -135s-46 -101 -114 -119c19 -34 24 -77 10 -118c-23 -61 -85 -103 -152 -103c-19 0 -39 3 -58 11l8 38c14 -6 30 -10 46 -10c48 0 99 27 116 79c12 38 5 70 -10 96c-8 -1 -15 -1 -23 -1c-97 0 -167 62 -187 153z" />
    <glyph glyph-name="Scaron" unicode="&#x160;" horiz-adv-x="553" 
d="M131 842h37l113 -108l113 108h37l-131 -142h-37zM47 192l49 5c20 -80 104 -154 193 -155c105 -1 178 59 178 127c0 90 -86 120 -149 146c-18 7 -88 33 -112 43c-62 25 -135 78 -135 162c0 83 83 155 215 157c128 2 211 -73 219 -182l-44 -5c0 78 -71 144 -172 144
c-104 0 -169 -58 -169 -114c0 -79 93 -113 131 -127c19 -8 86 -35 101 -40c109 -38 165 -92 165 -181c0 -96 -90 -179 -228 -179c-110 0 -216 84 -242 199z" />
    <glyph glyph-name="scaron" unicode="&#x161;" horiz-adv-x="463" 
d="M94 708h38l113 -108l113 108h37l-132 -142h-37zM55 146l47 5c16 -66 71 -115 140 -115c72 0 127 38 127 84c0 41 -24 66 -99 103c-28 13 -60 27 -80 35c-83 36 -113 70 -113 128c0 69 68 119 163 120c96 2 163 -54 169 -141l-43 -6c-7 65 -51 103 -122 105
c-68 2 -119 -33 -119 -80c0 -41 19 -59 103 -97c30 -13 51 -22 71 -32c89 -45 120 -80 120 -135c0 -71 -76 -127 -177 -127c-97 0 -167 62 -187 153z" />
    <glyph glyph-name="uni0162" unicode="&#x162;" horiz-adv-x="595" 
d="M274 623h-244v47h536v-47h-245v-623h-47v623zM216 -220l73 142h42v-21l-94 -121h-21z" />
    <glyph glyph-name="uni0163" unicode="&#x163;" horiz-adv-x="431" 
d="M154 603h47v-115h168v-45h-168v-281c0 -99 29 -122 102 -118c33 2 59 8 77 16l7 -47c-34 -12 -71 -18 -103 -18c-93 0 -130 46 -130 142v306h-114l9 45h105v115zM181 -220l72 142h43v-21l-94 -121h-21z" />
    <glyph glyph-name="Tcaron" unicode="&#x164;" horiz-adv-x="595" 
d="M148 850h37l113 -108l113 108h37l-132 -142h-37zM274 623h-244v47h536v-47h-245v-623h-47v623z" />
    <glyph glyph-name="tcaron" unicode="&#x165;" horiz-adv-x="431" 
d="M285 522h-21l50 227h42v-20zM148 603h47v-115h168v-45h-168v-281c0 -99 29 -122 102 -118c33 2 59 8 77 16l7 -47c-34 -12 -71 -18 -103 -18c-93 0 -130 46 -130 142v306h-114l9 45h105v115z" />
    <glyph glyph-name="Tbar" unicode="&#x166;" horiz-adv-x="540" 
d="M2 603v47h536v-47h-243v-250h155v-42h-155v-311h-48v311h-157v42h157v250h-245z" />
    <glyph glyph-name="tbar" unicode="&#x167;" horiz-adv-x="413" 
d="M148 603h47v-115h168v-45h-168v-161h167v-42h-167v-78c0 -99 29 -122 102 -118c33 2 59 8 77 16l7 -47c-34 -12 -71 -18 -103 -18c-93 0 -130 46 -130 142v103h-129v42h129v161h-114l9 45h105v115z" />
    <glyph glyph-name="Utilde" unicode="&#x168;" horiz-adv-x="679" 
d="M481 827l39 -6c-5 -48 -23 -116 -83 -116c-23 0 -51 10 -82 30c-59 41 -87 52 -118 48c-29 -4 -43 -25 -53 -79l-38 11c11 66 29 94 65 106c9 2 18 3 26 3c41 0 79 -24 115 -45c34 -21 58 -31 76 -31c40 0 50 48 53 79zM567 670h45l-1 -411c1 -146 -93 -264 -268 -264
c-178 0 -273 113 -273 264l-1 411h45v-410c0 -130 88 -217 231 -217c135 0 221 90 223 216z" />
    <glyph glyph-name="utilde" unicode="&#x169;" horiz-adv-x="555" 
d="M412 684l39 -6c-6 -48 -23 -117 -83 -117c-23 0 -51 11 -82 31c-59 40 -88 52 -118 48c-29 -5 -43 -25 -54 -79l-37 11c10 57 26 109 93 109c40 0 76 -25 112 -46c35 -21 59 -31 77 -31c41 0 50 48 53 80zM443 178v322h48v-500h-48v97c-38 -61 -95 -102 -184 -102
c-116 0 -205 105 -205 257v248h48v-248c0 -135 77 -218 181 -211c92 6 160 74 160 137z" />
    <glyph glyph-name="Umacron" unicode="&#x16a;" horiz-adv-x="679" 
d="M146 768v38h386v-38h-386zM567 670h45l-1 -411c1 -146 -93 -264 -268 -264c-178 0 -273 113 -273 264l-1 411h45v-410c0 -130 88 -217 231 -217c135 0 221 90 223 216z" />
    <glyph glyph-name="umacron" unicode="&#x16b;" horiz-adv-x="555" 
d="M82 612v38h386v-38h-386zM443 178v322h48v-500h-48v97c-38 -61 -95 -102 -184 -102c-116 0 -205 105 -205 257v248h48v-248c0 -135 77 -218 181 -211c92 6 160 74 160 137z" />
    <glyph glyph-name="Ubreve" unicode="&#x16c;" horiz-adv-x="679" 
d="M447 842h35c1 -82 -58 -142 -141 -143c-77 -1 -135 60 -134 143h34c0 -60 42 -104 102 -104c58 0 104 46 104 104zM567 670h45l-1 -411c1 -146 -93 -264 -268 -264c-178 0 -273 113 -273 264l-1 411h45v-410c0 -130 88 -217 231 -217c135 0 221 90 223 216z" />
    <glyph glyph-name="ubreve" unicode="&#x16d;" horiz-adv-x="555" 
d="M376 700h35c1 -82 -58 -142 -141 -143c-77 -1 -135 60 -134 143h35c0 -60 42 -104 101 -104c58 0 104 46 104 104zM443 178v322h48v-500h-48v97c-38 -61 -95 -102 -184 -102c-116 0 -205 105 -205 257v248h48v-248c0 -135 77 -218 181 -211c92 6 160 74 160 137z" />
    <glyph glyph-name="Uring" unicode="&#x16e;" horiz-adv-x="679" 
d="M219 821c0 70 57 127 126 127c70 0 126 -57 126 -127c0 -67 -56 -122 -126 -122c-69 0 -126 55 -126 122zM253 821c0 -49 42 -88 92 -88c51 0 93 39 93 88c0 53 -41 93 -93 93c-50 0 -92 -41 -92 -93zM567 670h45l-1 -411c1 -146 -93 -264 -268 -264
c-178 0 -273 113 -273 264l-1 411h45v-410c0 -130 88 -217 231 -217c135 0 221 90 223 216z" />
    <glyph glyph-name="uring" unicode="&#x16f;" horiz-adv-x="555" 
d="M149 679c0 70 57 127 126 127c70 0 126 -57 126 -127c0 -67 -56 -122 -126 -122c-69 0 -126 55 -126 122zM183 679c0 -49 41 -88 92 -88s92 39 92 88c0 53 -40 93 -92 93c-51 0 -92 -41 -92 -93zM443 178v322h48v-500h-48v97c-38 -61 -95 -102 -184 -102
c-116 0 -205 105 -205 257v248h48v-248c0 -135 77 -218 181 -211c92 6 160 74 160 137z" />
    <glyph glyph-name="Uhungarumlaut" unicode="&#x170;" horiz-adv-x="679" 
d="M189 708l73 142h43v-21l-95 -121h-21zM373 708l73 142h43v-21l-95 -121h-21zM567 670h45l-1 -411c1 -146 -93 -264 -268 -264c-178 0 -273 113 -273 264l-1 411h45v-410c0 -130 88 -217 231 -217c135 0 221 90 223 216z" />
    <glyph glyph-name="uhungarumlaut" unicode="&#x171;" horiz-adv-x="555" 
d="M143 558l73 142h42v-21l-95 -121h-20zM327 558l73 142h42v-21l-95 -121h-20zM443 178v322h48v-500h-48v97c-38 -61 -95 -102 -184 -102c-116 0 -205 105 -205 257v248h48v-248c0 -135 77 -218 181 -211c92 6 160 74 160 137z" />
    <glyph glyph-name="Uogonek" unicode="&#x172;" horiz-adv-x="653" 
d="M553 670h45l-1 -411c1 -96 -40 -180 -117 -226c-25 -36 -26 -89 -8 -130c23 -50 69 -76 112 -76c17 0 33 4 47 11l8 -38c-22 -9 -43 -13 -64 -13c-64 0 -119 40 -143 101c-16 43 -16 85 -1 123c-30 -11 -64 -16 -102 -16c-178 0 -273 113 -273 264l-1 411h45v-410
c0 -130 88 -217 231 -217c135 0 221 90 223 216z" />
    <glyph glyph-name="uogonek" unicode="&#x173;" horiz-adv-x="540" 
d="M440 178v322h48v-463l9 -14c-4 -4 -7 -9 -9 -15v-8h-4c-14 -34 -12 -76 3 -109c22 -51 69 -76 113 -76c16 0 32 3 46 10l8 -38c-22 -9 -44 -13 -64 -13c-65 0 -119 40 -144 102c-16 43 -15 86 0 124h-6v97c-38 -61 -95 -102 -184 -102c-116 0 -205 105 -205 257v248h48
v-248c0 -135 77 -218 181 -211c92 6 160 74 160 137z" />
    <glyph glyph-name="Wcircumflex" unicode="&#x174;" horiz-adv-x="910" 
d="M305 708l132 142h37l131 -142h-37l-113 108l-113 -108h-37zM827 670h51l-212 -670h-51l-160 579l-159 -579h-51l-213 670h50l187 -585l161 585h50l162 -585z" />
    <glyph glyph-name="wcircumflex" unicode="&#x175;" horiz-adv-x="832" 
d="M266 558l132 142h37l132 -142h-37l-113 108l-113 -108h-38zM222 0l-194 500h51l167 -430l146 430h51l145 -430l167 430h51l-195 -500h-51l-143 425l-144 -425h-51z" />
    <glyph glyph-name="Ycircumflex" unicode="&#x176;" horiz-adv-x="577" 
d="M138 708l132 142h37l132 -142h-38l-113 108l-113 -108h-37zM264 268l-246 402h55l214 -358l218 358h54l-248 -402v-268h-47v268z" />
    <glyph glyph-name="ycircumflex" unicode="&#x177;" horiz-adv-x="526" 
d="M111 558l131 142h37l132 -142h-37l-113 108l-113 -108h-37zM456 500h51l-212 -500c-22 -53 -67 -214 -196 -236l-7 44c90 18 135 144 155 192l-224 500h52l195 -444z" />
    <glyph glyph-name="Ydieresis" unicode="&#x178;" horiz-adv-x="577" 
d="M354 800c0 17 12 29 29 29c19 0 29 -12 29 -29c0 -18 -10 -30 -29 -30c-17 0 -29 12 -29 30zM164 800c0 17 13 29 30 29c18 0 29 -12 29 -29c0 -18 -11 -30 -29 -30c-17 0 -30 12 -30 30zM264 268l-246 402h55l214 -358l218 358h54l-248 -402v-268h-47v268z" />
    <glyph glyph-name="Zacute" unicode="&#x179;" horiz-adv-x="603" 
d="M240 708l80 142h43v-21l-102 -121h-21zM45 0v37l444 586h-431v47h498v-36l-441 -586h450v-48h-520z" />
    <glyph glyph-name="zacute" unicode="&#x17a;" horiz-adv-x="523" 
d="M229 558l81 142h43v-21l-103 -121h-21zM54 0v36l337 417h-324v47h392v-36l-335 -416h345v-48h-415z" />
    <glyph glyph-name="Zdotaccent" unicode="&#x17b;" horiz-adv-x="603" 
d="M272 819c0 18 12 29 29 29c19 0 30 -11 30 -29s-11 -29 -30 -29c-17 0 -29 11 -29 29zM45 0v37l444 586h-431v47h498v-36l-441 -586h450v-48h-520z" />
    <glyph glyph-name="zdotaccent" unicode="&#x17c;" horiz-adv-x="523" 
d="M233 670c0 18 12 29 29 29c19 0 29 -11 29 -29s-10 -29 -29 -29c-17 0 -29 11 -29 29zM54 0v36l337 417h-324v47h392v-36l-335 -416h345v-48h-415z" />
    <glyph glyph-name="Zcaron" unicode="&#x17d;" horiz-adv-x="603" 
d="M151 850h37l113 -108l113 108h38l-132 -142h-37zM45 0v37l444 586h-431v47h498v-36l-441 -586h450v-48h-520z" />
    <glyph glyph-name="zcaron" unicode="&#x17e;" horiz-adv-x="523" 
d="M112 700h37l113 -108l113 108h37l-131 -142h-37zM54 0v36l337 417h-324v47h392v-36l-335 -416h345v-48h-415z" />
    <glyph glyph-name="longs" unicode="&#x17f;" horiz-adv-x="330" 
d="M101 503v-648h-48v652c0 109 21 177 138 177c36 0 72 -7 103 -17l-7 -42c-27 10 -47 14 -77 16c-88 4 -109 -36 -109 -138z" />
    <glyph glyph-name="florin" unicode="&#x192;" horiz-adv-x="466" 
d="M172 421h-105l7 44h103l5 35c14 103 23 160 101 171c48 7 101 -2 142 -18l-7 -42c-25 12 -54 20 -84 20c-85 -1 -90 -27 -104 -131l-4 -35h166l-7 -44h-165l-29 -212c-10 -81 -24 -169 -83 -194c-22 -12 -54 -17 -92 -15l7 42c24 -3 51 2 65 11c42 24 51 115 59 182z" />
    <glyph glyph-name="uni0218" unicode="&#x218;" horiz-adv-x="553" 
d="M47 192l49 5c20 -80 104 -154 193 -155c105 -1 178 59 178 127c0 90 -86 120 -149 146c-18 7 -88 33 -112 43c-62 25 -135 78 -135 162c0 83 83 155 215 157c128 2 211 -73 219 -182l-44 -5c0 78 -71 144 -172 144c-104 0 -169 -58 -169 -114c0 -79 93 -113 131 -127
c19 -8 86 -35 101 -40c109 -38 165 -92 165 -181c0 -96 -90 -179 -228 -179c-110 0 -216 84 -242 199zM199 -220l72 142h43v-21l-94 -121h-21z" />
    <glyph glyph-name="uni0219" unicode="&#x219;" horiz-adv-x="463" 
d="M55 146l47 5c16 -66 71 -115 140 -115c72 0 127 38 127 84c0 41 -24 66 -99 103c-28 13 -60 27 -80 35c-83 36 -113 70 -113 128c0 69 68 119 163 120c96 2 163 -54 169 -141l-43 -6c-7 65 -51 103 -122 105c-68 2 -119 -33 -119 -80c0 -41 19 -59 103 -97
c30 -13 51 -22 71 -32c89 -45 120 -80 120 -135c0 -71 -76 -127 -177 -127c-97 0 -167 62 -187 153zM149 -220l72 142h43v-21l-95 -121h-20z" />
    <glyph glyph-name="uni021A" unicode="&#x21a;" horiz-adv-x="595" 
d="M274 623h-244v47h536v-47h-245v-623h-47v623zM216 -220l73 142h42v-21l-94 -121h-21z" />
    <glyph glyph-name="uni021B" unicode="&#x21b;" horiz-adv-x="431" 
d="M154 603h47v-115h168v-45h-168v-281c0 -99 29 -122 102 -118c33 2 59 8 77 16l7 -47c-34 -12 -71 -18 -103 -18c-93 0 -130 46 -130 142v306h-114l9 45h105v115zM181 -220l72 142h43v-21l-94 -121h-21z" />
    <glyph glyph-name="uni0237" unicode="&#x237;" horiz-adv-x="194" 
d="M75 650c0 18 13 29 29 29c17 0 30 -11 30 -29c0 -17 -13 -29 -30 -29c-16 0 -29 11 -29 29zM80 500h48v-561c0 -88 -49 -158 -116 -171c-19 -3 -40 -3 -63 0l8 47c12 -3 23 -2 30 -1c53 6 93 64 93 133v553z" />
    <glyph glyph-name="circumflex" unicode="&#x2c6;" horiz-adv-x="383" 
d="M42 558l132 142h37l131 -142h-37l-113 108l-113 -108h-37z" />
    <glyph glyph-name="caron" unicode="&#x2c7;" horiz-adv-x="383" 
d="M43 700h37l113 -108l113 108h37l-131 -142h-37z" />
    <glyph glyph-name="uni02C9" unicode="&#x2c9;" horiz-adv-x="433" 
d="M402 565h-375v50h375v-50z" />
    <glyph glyph-name="breve" unicode="&#x2d8;" horiz-adv-x="373" 
d="M327 700c1 -82 -58 -142 -141 -143c-77 -1 -135 60 -134 143h35c0 -60 42 -104 101 -104c58 0 104 46 104 104h35z" />
    <glyph glyph-name="dotaccent" unicode="&#x2d9;" horiz-adv-x="203" 
d="M69 669c0 18 12 29 29 29c19 0 29 -11 29 -29s-10 -29 -29 -29c-17 0 -29 11 -29 29z" />
    <glyph glyph-name="ring" unicode="&#x2da;" horiz-adv-x="305" 
d="M28 679c0 70 57 127 126 127c70 0 126 -57 126 -127c0 -67 -56 -122 -126 -122c-69 0 -126 55 -126 122zM62 679c0 -49 41 -88 92 -88s92 39 92 88c0 53 -41 93 -92 93s-92 -41 -92 -93z" />
    <glyph glyph-name="ogonek" unicode="&#x2db;" horiz-adv-x="216" 
d="M119 126l12 -29c-117 -64 -94 -168 -79 -201c28 -59 75 -75 113 -75c19 0 36 4 46 9l8 -38c-22 -8 -44 -12 -64 -12c-73 0 -130 50 -149 117c-14 47 -20 162 113 229z" />
    <glyph glyph-name="tilde" unicode="&#x2dc;" horiz-adv-x="405" 
d="M352 695l39 -6c-6 -47 -24 -117 -83 -117c-24 0 -52 11 -82 31c-60 40 -88 52 -119 48c-29 -5 -42 -25 -53 -79l-38 11c10 57 28 109 94 109c40 0 76 -25 112 -46c35 -21 59 -31 77 -31c10 0 18 3 25 8c15 12 24 37 28 72z" />
    <glyph glyph-name="hungarumlaut" unicode="&#x2dd;" horiz-adv-x="435" 
d="M61 558l73 142h42v-21l-95 -121h-20zM245 558l73 142h42v-21l-95 -121h-20z" />
    <glyph glyph-name="gravecomb" unicode="&#x300;" 
d="M-80 558h-20l-95 121v21h42z" />
    <glyph glyph-name="acutecomb" unicode="&#x301;" 
d="M-208 558l81 142h43v-21l-104 -121h-20z" />
    <glyph glyph-name="uni0302" unicode="&#x302;" 
d="M-338 558l131 142h37l132 -142h-37l-113 108l-113 -108h-37z" />
    <glyph glyph-name="tildecomb" unicode="&#x303;" horiz-adv-x="17" 
d="M-27 684l39 -6c-5 -48 -23 -117 -83 -117c-23 0 -51 11 -82 31c-59 40 -88 52 -118 48c-29 -5 -43 -25 -54 -79l-37 11c10 57 26 109 93 109c40 0 76 -25 112 -46c35 -21 59 -31 77 -31c41 0 50 48 53 80z" />
    <glyph glyph-name="uni0304" unicode="&#x304;" 
d="M-358 612v38h386v-38h-386z" />
    <glyph glyph-name="uni0306" unicode="&#x306;" 
d="M-86 700h35c1 -82 -58 -142 -141 -143c-77 -1 -135 60 -134 143h34c0 -60 43 -104 102 -104c58 0 104 46 104 104z" />
    <glyph glyph-name="uni0307" unicode="&#x307;" 
d="M-126 670c0 18 12 29 29 29c18 0 29 -11 29 -29s-11 -29 -29 -29c-17 0 -29 11 -29 29z" />
    <glyph glyph-name="uni0308" unicode="&#x308;" 
d="M-302 643c0 17 12 29 29 29c18 0 29 -12 29 -29c0 -18 -11 -30 -29 -30c-17 0 -29 12 -29 30zM-122 643c0 17 12 29 29 29c18 0 29 -12 29 -29c0 -18 -11 -30 -29 -30c-17 0 -29 12 -29 30z" />
    <glyph glyph-name="uni030A" unicode="&#x30a;" 
d="M-276 679c0 70 57 127 126 127c70 0 126 -57 126 -127c0 -67 -56 -122 -126 -122c-69 0 -126 55 -126 122zM-242 679c0 -49 41 -88 92 -88s92 39 92 88c0 53 -40 93 -92 93c-51 0 -92 -41 -92 -93z" />
    <glyph glyph-name="uni030B" unicode="&#x30b;" 
d="M-373 558l73 142h43v-21l-95 -121h-21zM-189 558l73 142h43v-21l-95 -121h-21z" />
    <glyph glyph-name="uni030C" unicode="&#x30c;" 
d="M-338 700h37l113 -108l113 108h37l-132 -142h-37z" />
    <glyph glyph-name="uni0312" unicode="&#x312;" 
d="M-47 975h20l-37 -202h-43v21z" />
    <glyph glyph-name="uni0326" unicode="&#x326;" 
d="M-195 -220l72 142h43v-21l-94 -121h-21z" />
    <glyph glyph-name="uni0327" unicode="&#x327;" 
d="M-142 3l28 23c34 -35 46 -91 29 -143c-23 -61 -85 -103 -152 -103c-19 0 -39 3 -58 11l7 38c14 -6 30 -10 46 -10c48 0 99 27 116 79c14 42 4 78 -16 105z" />
    <glyph glyph-name="uni0328" unicode="&#x328;" 
d="M-190 52l18 -27c-26 -37 -28 -91 -10 -133c23 -51 69 -76 113 -76c16 0 32 3 46 10l8 -38c-22 -9 -43 -13 -63 -13c-65 0 -120 41 -144 102c-24 64 -12 128 32 175z" />
    <glyph glyph-name="uni0394" unicode="&#x394;" horiz-adv-x="693" 
d="M74 0h-49l229 650h189l229 -650h-49c-85 0 -148 43 -275 43c-124 0 -186 -43 -274 -43zM286 603l-196 -556c79 5 143 42 258 42c117 0 182 -36 258 -42l-195 556h-125z" />
    <glyph glyph-name="uni03A9" unicode="&#x3a9;" horiz-adv-x="771" 
d="M47 322c0 183 153 333 336 333s336 -150 336 -333c0 -114 -60 -215 -151 -274h154v-48h-270l-3 -1h-1v49c124 25 224 145 224 274c0 156 -131 286 -289 286s-288 -130 -288 -286c0 -129 94 -245 223 -274v-49h-1l-3 1h-270v48h154c-91 59 -151 160 -151 274z" />
    <glyph glyph-name="uni03BC" unicode="&#x3bc;" horiz-adv-x="623" 
d="M480 252v248h47v-335c0 -76 18 -118 68 -118v-47c-65 0 -94 45 -106 102c-41 -69 -112 -107 -194 -107c-77 0 -145 33 -187 93v-288h-48v700h48v-248c0 -131 77 -214 188 -214c99 0 184 78 184 214z" />
    <glyph glyph-name="pi" unicode="&#x3c0;" horiz-adv-x="674" 
d="M44 453v47h589v-47h-132v-249c0 -110 7 -142 32 -154c6 -3 14 -4 23 -4c19 0 44 7 68 20l7 -48c-29 -14 -54 -22 -79 -22c-98 0 -99 101 -99 177v280h-230v-453h-48v453h-131z" />
    <glyph glyph-name="uni0401" unicode="&#x401;" horiz-adv-x="556" 
d="M165 785c0 17 13 29 30 29c18 0 29 -12 29 -29c0 -18 -11 -30 -29 -30c-17 0 -30 12 -30 30zM345 785c0 17 13 29 30 29c18 0 29 -12 29 -29c0 -18 -11 -30 -29 -30c-17 0 -30 12 -30 30zM67 0v670h439v-47h-392v-254h379v-47h-379v-274h392v-48h-439z" />
    <glyph glyph-name="uni0402" unicode="&#x402;" horiz-adv-x="743" 
d="M470 0v48c104 0 171 74 171 184c0 108 -74 179 -174 172c-82 -6 -150 -96 -150 -159v-245h-48v603h-221v47h536v-47h-267v-273c23 52 77 120 174 119c119 -1 197 -90 197 -220c0 -132 -82 -229 -218 -229z" />
    <glyph glyph-name="uni0403" unicode="&#x403;" horiz-adv-x="513" 
d="M244 757l81 142h43v-21l-103 -121h-21zM73 0v650h397v-44h-349v-606h-48z" />
    <glyph glyph-name="uni0404" unicode="&#x404;" horiz-adv-x="676" 
d="M389 -7c-183 0 -336 148 -336 329c0 182 153 333 336 333c89 0 179 -39 241 -104l-33 -34c-53 58 -129 91 -208 91c-151 0 -275 -117 -287 -263h370v-44h-370c11 -147 135 -260 287 -260c75 0 157 37 209 94l33 -34c-64 -66 -154 -108 -242 -108z" />
    <glyph glyph-name="uni0405" unicode="&#x405;" horiz-adv-x="553" 
d="M47 192l49 5c20 -80 104 -154 193 -155c105 -1 178 59 178 127c0 90 -86 120 -149 146c-18 7 -88 33 -112 43c-62 25 -135 78 -135 162c0 83 83 155 215 157c128 2 211 -73 219 -182l-44 -5c0 78 -71 144 -172 144c-104 0 -169 -58 -169 -114c0 -79 93 -113 131 -127
c19 -8 86 -35 101 -40c109 -38 165 -92 165 -181c0 -96 -90 -179 -228 -179c-110 0 -216 84 -242 199z" />
    <glyph glyph-name="uni0406" unicode="&#x406;" horiz-adv-x="211" 
d="M132 0h-47v670h47v-670z" />
    <glyph glyph-name="uni0407" unicode="&#x407;" horiz-adv-x="211" 
d="M-12 786c0 17 12 29 29 29c19 0 30 -12 30 -29c0 -18 -11 -30 -30 -30c-17 0 -29 12 -29 30zM168 786c0 17 12 29 29 29c19 0 30 -12 30 -29c0 -18 -11 -30 -30 -30c-17 0 -29 12 -29 30zM132 0h-47v670h47v-670z" />
    <glyph glyph-name="uni0408" unicode="&#x408;" horiz-adv-x="526" 
d="M206 -7c-58 0 -111 12 -157 33l11 46c42 -21 100 -31 146 -31c123 0 212 82 212 194v435h48v-435c0 -139 -111 -242 -260 -242z" />
    <glyph glyph-name="uni0409" unicode="&#x409;" horiz-adv-x="1003" 
d="M726 -1h-174v604h-326v-430c0 -74 -1 -176 -98 -176c-28 0 -57 9 -80 21l7 48c24 -13 48 -20 68 -20c8 0 16 1 22 4c26 12 33 44 33 154v446h422v-211h126c138 0 231 -78 231 -217c0 -143 -103 -223 -231 -223zM600 43h126c108 0 184 71 184 180c0 107 -72 173 -184 173
h-126v-353z" />
    <glyph glyph-name="uni040A" unicode="&#x40a;" horiz-adv-x="986" 
d="M66 650h48v-302h387v302h47v-227h133c138 0 231 -83 231 -201c0 -143 -103 -222 -231 -222h-180v301h-387v-301h-48v650zM548 379v-335h133c108 0 184 70 184 179c0 86 -72 156 -184 156h-133z" />
    <glyph glyph-name="uni040B" unicode="&#x40b;" horiz-adv-x="754" 
d="M39 603v47h536v-47h-244v-243c16 51 76 102 167 102c119 0 203 -103 203 -257v-205h-47v205c0 135 -72 218 -180 211c-92 -7 -137 -81 -143 -127v-289h-47v603h-245z" />
    <glyph glyph-name="uni040C" unicode="&#x40c;" horiz-adv-x="615" 
d="M239 700l81 142h43v-21l-103 -121h-21zM113 0h-48v650h48v-317l319 317h62l-329 -326l361 -324h-62l-351 316v-316z" />
    <glyph glyph-name="uni040E" unicode="&#x40e;" horiz-adv-x="581" 
d="M90 773v37h386v-37h-386zM479 650h51l-212 -427c-22 -52 -68 -214 -197 -237l-7 45c90 18 139 144 155 192l-224 427h52l196 -379z" />
    <glyph glyph-name="uni040F" unicode="&#x40f;" horiz-adv-x="621" 
d="M505 46v604h47v-650h-215v-134h-47v134h-216v650h48v-604h383z" />
    <glyph glyph-name="uni0410" unicode="&#x410;" horiz-adv-x="718" 
d="M72 0h-49l242 670h189l242 -670h-49l-73 202c-71 6 -130 42 -215 42c-84 0 -138 -37 -214 -42zM297 623l-136 -376c68 9 120 41 198 41s134 -31 198 -41l-135 376h-125z" />
    <glyph glyph-name="uni0411" unicode="&#x411;" horiz-adv-x="607" 
d="M68 651h440v-47h-392v-168h220c138 0 232 -76 232 -215c0 -143 -104 -220 -232 -220h-220v-1h-48v651zM336 392h-220v-347h220c107 0 184 66 184 177c0 110 -76 170 -184 170z" />
    <glyph glyph-name="uni0412" unicode="&#x412;" horiz-adv-x="594" 
d="M65 0v670h278c116 0 198 -73 198 -180c0 -70 -44 -128 -109 -154c73 -19 124 -72 124 -150c0 -116 -77 -186 -198 -186h-293zM343 626h-230v-274h230c81 0 151 63 151 138c0 80 -62 136 -151 136zM358 310h-245v-266h245c95 0 151 52 151 142c0 75 -67 124 -151 124z" />
    <glyph glyph-name="uni0413" unicode="&#x413;" horiz-adv-x="513" 
d="M73 0v650h397v-44h-349v-606h-48z" />
    <glyph glyph-name="uni0414" unicode="&#x414;" horiz-adv-x="779" 
d="M54 -134v182h63c77 204 98 405 63 602h462v-602h75v-182h-47v134h-568v-134h-48zM168 48h427v555h-360c23 -181 1 -366 -67 -555z" />
    <glyph glyph-name="uni0415" unicode="&#x415;" horiz-adv-x="556" 
d="M67 0v670h439v-47h-392v-254h379v-47h-379v-274h392v-48h-439z" />
    <glyph glyph-name="uni0416" unicode="&#x416;" horiz-adv-x="928" 
d="M489 0h-47v316l-352 -316h-61l360 324l-328 326h61l320 -317v317h47v-317l320 317h62l-329 -326l361 -324h-62l-352 316v-316z" />
    <glyph glyph-name="uni0417" unicode="&#x417;" horiz-adv-x="557" 
d="M41 88l7 52c53 -64 162 -99 232 -99c114 0 168 56 168 127c0 95 -112 159 -259 151v41c132 8 249 57 249 140c0 72 -64 124 -167 124c-63 0 -144 -14 -204 -52l-7 50c52 29 138 50 203 50c137 0 220 -68 220 -168c0 -76 -57 -132 -163 -158c106 -27 174 -89 174 -186
c0 -96 -75 -167 -222 -167c-79 0 -188 45 -231 95z" />
    <glyph glyph-name="uni0418" unicode="&#x418;" horiz-adv-x="711" 
d="M646 650v-650h-48v577l-484 -577h-47v650h47v-577l484 577h48z" />
    <glyph glyph-name="uni0419" unicode="&#x419;" horiz-adv-x="673" 
d="M141 773v37h386v-37h-386zM627 650v-650h-47v577l-484 -577h-48v650h48v-577l484 577h47z" />
    <glyph glyph-name="uni041A" unicode="&#x41a;" horiz-adv-x="564" 
d="M119 0h-47v650h47v-317l320 317h62l-329 -326l361 -324h-62l-352 316v-316z" />
    <glyph glyph-name="uni041B" unicode="&#x41b;" horiz-adv-x="681" 
d="M30 18l7 48c24 -13 48 -20 68 -20c8 0 16 1 22 4c26 12 33 44 33 154v446h450v-651h-48v604h-354v-430c0 -74 -1 -176 -98 -176c-28 0 -57 9 -80 21z" />
    <glyph glyph-name="uni041C" unicode="&#x41c;" horiz-adv-x="791" 
d="M125 605v-605h-48v670h59l262 -367l259 367h57v-670h-47v603l-261 -374h-16z" />
    <glyph glyph-name="uni041D" unicode="&#x41d;" horiz-adv-x="611" 
d="M54 0v670h48v-301h408v301h47v-670h-47v322h-408v-322h-48z" />
    <glyph glyph-name="uni041E" unicode="&#x41e;" horiz-adv-x="778" 
d="M58 333c0 189 153 344 336 344s336 -155 336 -344c0 -188 -153 -340 -336 -340s-336 152 -336 340zM105 333c0 -160 132 -294 289 -294c156 0 288 134 288 294c0 162 -131 298 -288 298s-289 -136 -289 -298z" />
    <glyph glyph-name="uni041F" unicode="&#x41f;" horiz-adv-x="631" 
d="M69 650h490v-651h-48v604h-395v-604h-47v651z" />
    <glyph glyph-name="uni0420" unicode="&#x420;" horiz-adv-x="588" 
d="M69 0v670h228c158 0 244 -81 244 -217c0 -138 -80 -220 -244 -220h-180v-233h-48zM297 625h-180v-347h180c131 0 197 62 197 176c0 108 -70 171 -197 171z" />
    <glyph glyph-name="uni0421" unicode="&#x421;" horiz-adv-x="662" 
d="M381 -7c-184 0 -336 162 -336 346c0 185 152 338 336 338c88 0 178 -39 241 -104l-34 -34c-53 58 -129 91 -207 91c-159 0 -289 -132 -289 -291c0 -160 129 -298 289 -298c74 0 156 37 208 94l34 -34c-64 -66 -155 -108 -242 -108z" />
    <glyph glyph-name="uni0422" unicode="&#x422;" horiz-adv-x="595" 
d="M274 623h-244v47h536v-47h-245v-623h-47v623z" />
    <glyph glyph-name="uni0423" unicode="&#x423;" horiz-adv-x="548" 
d="M469 650h51l-212 -424c-22 -52 -68 -213 -197 -237l-7 45c90 19 139 145 155 192l-224 424h52l196 -376z" />
    <glyph glyph-name="uni0424" unicode="&#x424;" horiz-adv-x="864" 
d="M406 0v70c-223 7 -353 117 -353 256c0 142 127 252 353 259v65h47v-65c232 -8 364 -118 364 -259c0 -138 -135 -248 -364 -256v-70h-47zM406 115v425c-190 -6 -305 -90 -305 -214c0 -120 117 -204 305 -211zM453 540v-425c194 7 317 92 317 211c0 123 -120 207 -317 214z
" />
    <glyph glyph-name="uni0425" unicode="&#x425;" horiz-adv-x="611" 
d="M278 334l-252 336h59l223 -297l224 297h58l-253 -336l250 -334h-58l-222 295l-222 -295h-58z" />
    <glyph glyph-name="uni0426" unicode="&#x426;" horiz-adv-x="681" 
d="M549 650h47v-546h28v-238h-48v134h-503v650h48v-602h428v602z" />
    <glyph glyph-name="uni0427" unicode="&#x427;" horiz-adv-x="584" 
d="M465 650h47v-650h-47v329c-16 -42 -82 -109 -194 -109c-121 0 -216 104 -216 257v173h47v-173c0 -131 80 -213 178 -213c92 0 185 68 185 152v234z" />
    <glyph glyph-name="uni0428" unicode="&#x428;" horiz-adv-x="964" 
d="M456 650h48v-602h336v602h48v-650h-813v650h47v-602h334v602z" />
    <glyph glyph-name="uni0429" unicode="&#x429;" horiz-adv-x="953" 
d="M456 650h48v-602h336v602h48v-538h25v-246h-47v134h-791v650h47v-602h334v602z" />
    <glyph glyph-name="uni042A" unicode="&#x42a;" horiz-adv-x="755" 
d="M37 603v47h258v-187h178c138 0 231 -93 231 -232c0 -143 -103 -231 -231 -231h-178v-1h-47v604h-211zM473 420h-178v-376h178c106 0 183 78 183 188c0 111 -75 188 -183 188z" />
    <glyph glyph-name="uni042B" unicode="&#x42b;" horiz-adv-x="723" 
d="M65 650h48v-187h179c138 0 231 -93 231 -232c0 -143 -103 -232 -231 -232h-227v651zM610 650h47v-651h-47v651zM292 420h-179v-377h179c106 0 183 79 183 189s-75 188 -183 188z" />
    <glyph glyph-name="uni042C" unicode="&#x42c;" horiz-adv-x="581" 
d="M71 650h48v-187h180c138 0 231 -93 231 -232c0 -143 -103 -232 -231 -232h-228v651zM299 420h-180v-377h180c106 0 183 79 183 189s-75 188 -183 188z" />
    <glyph glyph-name="uni042D" unicode="&#x42d;" horiz-adv-x="680" 
d="M286 -7c-87 0 -178 42 -242 108l33 34c53 -57 135 -94 209 -94c153 0 277 113 288 260h-370v44h370c-12 146 -137 263 -288 263c-79 0 -154 -33 -208 -91l-33 34c63 65 152 104 241 104c184 0 336 -151 336 -333c0 -181 -152 -329 -336 -329z" />
    <glyph glyph-name="uni042E" unicode="&#x42e;" horiz-adv-x="1061" 
d="M70 0v650h47v-302h217c14 171 161 307 335 307c183 0 336 -150 336 -333c0 -182 -153 -329 -336 -329c-176 0 -325 136 -335 309h-217v-302h-47zM381 322c0 -155 131 -283 288 -283s289 129 289 283c0 156 -132 287 -289 287s-288 -131 -288 -287z" />
    <glyph glyph-name="uni042F" unicode="&#x42f;" horiz-adv-x="626" 
d="M326 650h226v-650h-47v265h-179c-15 0 -30 0 -44 1l-168 -266h-57l173 274c-99 21 -148 81 -148 184c0 129 86 192 244 192zM505 606h-179c-124 0 -196 -45 -196 -147c0 -108 67 -151 196 -151h179v298z" />
    <glyph glyph-name="uni0430" unicode="&#x430;" horiz-adv-x="609" 
d="M43 248c0 144 104 257 243 257c104 0 174 -40 217 -120v115h47v-500h-47v123c-31 -76 -122 -130 -218 -130c-139 0 -242 113 -242 255zM300 38c101 0 203 83 203 166v87c0 82 -88 169 -202 169c-141 0 -210 -110 -210 -212c0 -120 86 -210 209 -210z" />
    <glyph glyph-name="uni0431" unicode="&#x431;" horiz-adv-x="595" 
d="M539 222c0 -138 -102 -229 -256 -229c-153 0 -236 89 -236 228c0 433 275 282 357 429l35 -27c-94 -156 -314 -22 -342 -331c22 58 107 145 240 145c108 0 202 -74 202 -215zM94 222c0 -116 66 -185 190 -185c123 0 207 73 207 185s-74 174 -191 167
c-117 -6 -206 -97 -206 -167z" />
    <glyph glyph-name="uni0432" unicode="&#x432;" horiz-adv-x="537" 
d="M68 500h237c115 0 181 -55 181 -141c0 -52 -35 -89 -84 -108c57 -17 96 -57 96 -115c0 -73 -73 -136 -183 -136h-247v500zM305 456h-189v-186h189c75 0 135 35 135 89c0 59 -49 97 -135 97zM116 228v-184h199c82 0 135 46 135 93c0 58 -56 91 -135 91h-199z" />
    <glyph glyph-name="uni0433" unicode="&#x433;" horiz-adv-x="439" 
d="M65 0v500h338v-44h-290v-456h-48z" />
    <glyph glyph-name="uni0434" unicode="&#x434;" horiz-adv-x="655" 
d="M41 -134v182h65c75 131 95 282 61 452h359v-452h75v-182h-48v134h-465v-134h-47zM158 48h320v405h-256c22 -150 1 -285 -64 -405z" />
    <glyph glyph-name="uni0435" unicode="&#x435;" horiz-adv-x="601" 
d="M305 -7c-140 0 -249 113 -249 255c0 143 109 257 249 257c139 0 249 -112 249 -255c0 -9 -1 -12 -1 -19h-449c8 -110 90 -193 201 -193c73 0 131 31 171 94l45 -12c-44 -78 -124 -127 -216 -127zM104 268h401c-8 113 -92 194 -200 194s-193 -83 -201 -194z" />
    <glyph glyph-name="uni0436" unicode="&#x436;" horiz-adv-x="771" 
d="M409 0h-48v233l-271 -233h-62l290 248l-264 252h61l246 -235v235h48v-234l244 234h62l-265 -252l291 -248h-62l-270 232v-232z" />
    <glyph glyph-name="uni0437" unicode="&#x437;" horiz-adv-x="446" 
d="M45 117c57 -47 126 -74 182 -74c84 0 129 37 129 96c0 69 -82 110 -195 110v36c66 2 180 7 186 90c5 61 -41 94 -120 94c-57 0 -114 -11 -157 -43l-4 47c27 22 95 40 153 40c110 0 174 -47 174 -125c-1 -68 -45 -104 -111 -121c72 -22 122 -66 122 -132
c0 -86 -63 -138 -185 -138c-55 0 -130 29 -181 70z" />
    <glyph glyph-name="uni0438" unicode="&#x438;" horiz-adv-x="585" 
d="M473 500h48v-500h-48v428l-362 -428h-47v500h47v-428z" />
    <glyph glyph-name="uni0439" unicode="&#x439;" horiz-adv-x="585" 
d="M95 608v38h386v-38h-386zM472 500h48v-500h-48v428l-362 -428h-47v500h47v-428z" />
    <glyph glyph-name="uni043A" unicode="&#x43a;" horiz-adv-x="465" 
d="M100 0h-48v500h48v-240l250 240h62l-265 -252l291 -248h-62l-276 237v-237z" />
    <glyph glyph-name="uni043B" unicode="&#x43b;" horiz-adv-x="615" 
d="M28 18l7 48c15 -8 42 -21 67 -21c9 0 17 2 24 5c33 14 33 102 33 154v296h391v-501h-48v454h-296v-280c0 -73 -4 -177 -99 -177c-25 0 -50 8 -79 22z" />
    <glyph glyph-name="uni043C" unicode="&#x43c;" horiz-adv-x="605" 
d="M103 0h-47v494h56l186 -294l187 294h55v-494h-47v418l-188 -289h-15l-187 289v-418z" />
    <glyph glyph-name="uni043D" unicode="&#x43d;" horiz-adv-x="535" 
d="M59 500h48v-223l316 1v222h47v-500h-47v230l-316 -1v-229h-48v500z" />
    <glyph glyph-name="uni043E" unicode="&#x43e;" horiz-adv-x="613" 
d="M308 -7c-141 0 -257 114 -257 255s116 257 257 257s257 -116 257 -257s-116 -255 -257 -255zM308 462c-113 0 -209 -94 -209 -214c0 -116 94 -211 209 -211c113 0 210 92 210 211c0 116 -94 214 -210 214z" />
    <glyph glyph-name="uni043F" unicode="&#x43f;" horiz-adv-x="571" 
d="M66 500h427v-501h-48v454h-332v-454h-47v501z" />
    <glyph glyph-name="uni0440" unicode="&#x440;" horiz-adv-x="624" 
d="M574 252c0 -144 -102 -257 -240 -257c-96 0 -178 46 -219 123v-268h-48v650h48v-120c41 81 120 127 219 127c135 0 240 -115 240 -255zM115 280v-69c0 -86 102 -170 204 -170c122 -1 208 87 208 211c0 120 -89 210 -208 210c-112 0 -204 -83 -204 -182z" />
    <glyph glyph-name="uni0441" unicode="&#x441;" horiz-adv-x="542" 
d="M313 -7c-142 0 -257 115 -257 255c0 141 116 257 257 257c72 0 140 -30 188 -82l-33 -33c-37 42 -96 69 -155 69c-115 0 -209 -95 -209 -211c0 -115 93 -209 209 -209c60 0 113 24 156 69l33 -33c-48 -51 -117 -82 -189 -82z" />
    <glyph glyph-name="uni0442" unicode="&#x442;" horiz-adv-x="505" 
d="M31 453v47h443v-47h-200v-453h-47v453h-196z" />
    <glyph glyph-name="uni0443" unicode="&#x443;" horiz-adv-x="526" 
d="M456 500h51l-212 -500c-22 -53 -67 -214 -196 -236l-7 44c90 18 135 144 155 192l-224 500h52l195 -444z" />
    <glyph glyph-name="uni0444" unicode="&#x444;" horiz-adv-x="725" 
d="M342 -200v194c-149 8 -288 96 -288 254c0 162 139 248 288 256v146h47v-146c151 -8 284 -95 284 -256c0 -158 -133 -246 -284 -254v-194h-47zM342 40v419c-139 -8 -240 -88 -240 -211c0 -120 103 -200 240 -208zM389 459v-419c137 8 237 87 237 208
c0 123 -98 202 -237 211z" />
    <glyph glyph-name="uni0445" unicode="&#x445;" horiz-adv-x="509" 
d="M225 250l-200 250h58l171 -214l171 214h58l-200 -250l200 -250h-58l-171 214l-171 -214h-58z" />
    <glyph glyph-name="uni0446" unicode="&#x446;" horiz-adv-x="601" 
d="M461 500h48v-396h28v-238h-47v134h-421v500h47v-452h345v452z" />
    <glyph glyph-name="uni0447" unicode="&#x447;" horiz-adv-x="500" 
d="M390 500h48v-500h-48v232c-16 -42 -67 -99 -160 -99c-119 0 -192 102 -192 257v110h47v-110c0 -132 58 -212 154 -212c87 0 151 70 151 151v171z" />
    <glyph glyph-name="uni0448" unicode="&#x448;" horiz-adv-x="790" 
d="M373 500h47v-452h256v452h48v-500h-664v500h47v-452h266v452z" />
    <glyph glyph-name="uni0449" unicode="&#x449;" horiz-adv-x="785" 
d="M368 500h47v-452h256v452h48v-370h21v-264h-48v134h-637v500h47v-452h266v452z" />
    <glyph glyph-name="uni044A" unicode="&#x44a;" horiz-adv-x="571" 
d="M17 453v47h182v-138h107c147 0 231 -65 231 -179s-87 -183 -231 -183h-154v453h-135zM306 317h-107v-272h107c117 0 183 51 183 139c0 86 -64 133 -183 133z" />
    <glyph glyph-name="uni044B" unicode="&#x44b;" horiz-adv-x="630" 
d="M61 500h48v-138h107c147 0 231 -65 231 -179s-87 -183 -231 -183h-155v500zM530 500h48v-500h-48v500zM216 317h-107v-272h107c117 0 183 51 183 139c0 86 -64 133 -183 133z" />
    <glyph glyph-name="uni044C" unicode="&#x44c;" horiz-adv-x="481" 
d="M59 500h48v-138h106c147 0 231 -65 231 -179s-87 -183 -231 -183h-154v500zM213 317h-106v-272h106c118 0 184 51 184 139c0 86 -65 133 -184 133z" />
    <glyph glyph-name="uni044D" unicode="&#x44d;" horiz-adv-x="518" 
d="M219 -7c-72 0 -141 31 -189 82l33 33c43 -45 96 -69 156 -69c111 0 201 86 209 195h-247v38h246c-12 105 -101 187 -208 187c-59 0 -118 -27 -155 -69l-33 33c48 52 116 82 188 82c141 0 257 -116 257 -257c0 -140 -115 -255 -257 -255z" />
    <glyph glyph-name="uni044E" unicode="&#x44e;" horiz-adv-x="798" 
d="M99 0h-47v500h47v-222h140c15 127 124 227 255 227c141 0 257 -116 257 -257s-116 -255 -257 -255c-136 0 -248 105 -257 239h-138v-232zM494 462c-113 0 -210 -94 -210 -214c0 -116 95 -211 210 -211c112 0 209 92 209 211c0 116 -93 214 -209 214z" />
    <glyph glyph-name="uni044F" unicode="&#x44f;" horiz-adv-x="542" 
d="M308 500h178v-500h-48v156h-130c-20 0 -38 0 -56 2l-148 -158h-65l156 166c-86 19 -131 68 -131 164c0 129 91 170 244 170zM438 200v256h-130c-128 0 -196 -32 -196 -125c0 -98 62 -131 196 -131h130z" />
    <glyph glyph-name="uni0451" unicode="&#x451;" horiz-adv-x="601" 
d="M184 647c0 17 12 29 29 29c18 0 29 -12 29 -29c0 -18 -11 -30 -29 -30c-17 0 -29 12 -29 30zM364 647c0 17 12 29 29 29c18 0 29 -12 29 -29c0 -18 -11 -30 -29 -30c-17 0 -29 12 -29 30zM305 -7c-140 0 -249 113 -249 255c0 143 109 257 249 257
c139 0 249 -112 249 -255c0 -9 -1 -12 -1 -19h-449c8 -110 90 -193 201 -193c73 0 131 31 171 94l45 -12c-44 -78 -124 -127 -216 -127zM104 268h401c-8 113 -92 194 -200 194s-193 -83 -201 -194z" />
    <glyph glyph-name="uni0452" unicode="&#x452;" horiz-adv-x="599" 
d="M129 323v-323h-47v555h-62v33h62v62h47v-62h214v-33h-214v-154c30 48 95 105 208 104s204 -102 204 -257v-250c0 -131 -75 -212 -197 -212v47c93 0 150 62 149 168v247c0 136 -79 218 -180 212c-92 -6 -184 -78 -184 -137z" />
    <glyph glyph-name="uni0453" unicode="&#x453;" horiz-adv-x="439" 
d="M187 558l81 142h43v-21l-103 -121h-21zM65 0v500h338v-44h-290v-456h-48z" />
    <glyph glyph-name="uni0454" unicode="&#x454;" horiz-adv-x="502" 
d="M290 -7c-142 0 -257 115 -257 255c0 141 116 257 257 257c72 0 140 -30 188 -82l-33 -33c-37 42 -96 69 -155 69c-107 0 -196 -82 -208 -187h246v-38h-247c7 -109 98 -195 209 -195c60 0 113 24 156 69l33 -33c-48 -51 -117 -82 -189 -82z" />
    <glyph glyph-name="uni0455" unicode="&#x455;" horiz-adv-x="463" 
d="M55 146l47 5c16 -66 71 -115 140 -115c72 0 127 38 127 84c0 41 -24 66 -99 103c-28 13 -60 27 -80 35c-83 36 -113 70 -113 128c0 69 68 119 163 120c96 2 163 -54 169 -141l-43 -6c-7 65 -51 103 -122 105c-68 2 -119 -33 -119 -80c0 -41 19 -59 103 -97
c30 -13 51 -22 71 -32c89 -45 120 -80 120 -135c0 -71 -76 -127 -177 -127c-97 0 -167 62 -187 153z" />
    <glyph glyph-name="uni0456" unicode="&#x456;" horiz-adv-x="182" 
d="M61 650c0 18 12 29 29 29c18 0 29 -11 29 -29s-11 -29 -29 -29c-17 0 -29 11 -29 29zM113 0h-48v500h48v-500z" />
    <glyph glyph-name="uni0457" unicode="&#x457;" horiz-adv-x="202" 
d="M-18 671c0 18 12 29 29 29c19 0 30 -11 30 -29s-11 -29 -30 -29c-17 0 -29 11 -29 29zM162 671c0 18 12 29 29 29c19 0 30 -11 30 -29s-11 -29 -30 -29c-17 0 -29 11 -29 29zM125 0h-48v500h48v-500z" />
    <glyph glyph-name="uni0458" unicode="&#x458;" horiz-adv-x="194" 
d="M75 650c0 18 13 29 29 29c17 0 30 -11 30 -29c0 -17 -13 -29 -30 -29c-16 0 -29 11 -29 29zM80 500h48v-561c0 -88 -49 -158 -116 -171c-19 -3 -40 -3 -63 0l8 47c12 -3 23 -2 30 -1c53 6 93 64 93 133v553z" />
    <glyph glyph-name="uni0459" unicode="&#x459;" horiz-adv-x="787" 
d="M134 500h334v-156h47c147 0 231 -60 231 -174s-87 -170 -231 -170h-94v453h-240v-280c0 -74 -3 -176 -98 -176c-25 0 -51 7 -79 21l6 48c15 -8 42 -21 67 -21c9 0 17 2 24 5c33 14 33 102 33 154v296zM515 301h-47v-257h47c115 0 184 40 184 127c0 86 -67 130 -184 130z
" />
    <glyph glyph-name="uni045A" unicode="&#x45a;" horiz-adv-x="775" 
d="M406 500h48v-156h61c147 0 231 -60 231 -174s-87 -170 -231 -170h-109v225h-307v-225h-48v500h48v-227h307v227zM515 301h-61v-257h61c115 0 184 40 184 127c0 86 -67 130 -184 130z" />
    <glyph glyph-name="uni045B" unicode="&#x45b;" horiz-adv-x="571" 
d="M112 0h-48v578h-61v32h61v60h48v-60h214v-32h-214v-177c23 60 99 104 185 104c120 0 204 -103 204 -257v-248h-48v248c0 135 -71 218 -179 211c-99 -7 -162 -76 -162 -136v-323z" />
    <glyph glyph-name="uni045C" unicode="&#x45c;" horiz-adv-x="465" 
d="M197 558l81 142h43v-21l-103 -121h-21zM100 0h-48v500h48v-240l250 240h62l-265 -252l291 -248h-62l-276 237v-237z" />
    <glyph glyph-name="uni045E" unicode="&#x45e;" horiz-adv-x="526" 
d="M362 700h35c1 -82 -58 -142 -141 -143c-77 -1 -135 60 -134 143h34c0 -60 43 -104 102 -104c58 0 104 46 104 104zM456 500h51l-212 -500c-22 -53 -67 -214 -196 -236l-7 44c90 18 135 144 155 192l-224 500h52l195 -444z" />
    <glyph glyph-name="uni045F" unicode="&#x45f;" horiz-adv-x="575" 
d="M469 46v454h47v-500h-203v-134h-47v134h-207v500h48v-454h362z" />
    <glyph glyph-name="uni0490" unicode="&#x490;" horiz-adv-x="475" 
d="M65 0v650h350v73h47v-117h-349v-606h-48z" />
    <glyph glyph-name="uni0491" unicode="&#x491;" horiz-adv-x="411" 
d="M59 0v497h295v73h47v-117h-294v-453h-48z" />
    <glyph glyph-name="Wgrave" unicode="&#x1e80;" horiz-adv-x="910" 
d="M462 709h-21l-95 121v21h43zM827 670h51l-212 -670h-51l-160 579l-159 -579h-51l-213 670h50l187 -585l161 585h50l162 -585z" />
    <glyph glyph-name="wgrave" unicode="&#x1e81;" horiz-adv-x="832" 
d="M433 558h-21l-95 121v21h43zM222 0l-194 500h51l167 -430l146 430h51l145 -430l167 430h51l-195 -500h-51l-143 425l-144 -425h-51z" />
    <glyph glyph-name="Wacute" unicode="&#x1e82;" horiz-adv-x="910" 
d="M444 708l80 142h43v-21l-102 -121h-21zM827 670h51l-212 -670h-51l-160 579l-159 -579h-51l-213 670h50l187 -585l161 585h50l162 -585z" />
    <glyph glyph-name="wacute" unicode="&#x1e83;" horiz-adv-x="832" 
d="M408 558l81 142h43v-21l-104 -121h-20zM222 0l-194 500h51l167 -430l146 430h51l145 -430l167 430h51l-195 -500h-51l-143 425l-144 -425h-51z" />
    <glyph glyph-name="Wdieresis" unicode="&#x1e84;" horiz-adv-x="910" 
d="M521 800c0 17 12 29 29 29c18 0 29 -12 29 -29c0 -18 -11 -30 -29 -30c-17 0 -29 12 -29 30zM331 800c0 17 12 29 29 29c19 0 30 -12 30 -29c0 -18 -11 -30 -30 -30c-17 0 -29 12 -29 30zM827 670h51l-212 -670h-51l-160 579l-159 -579h-51l-213 670h50l187 -585l161 585
h50l162 -585z" />
    <glyph glyph-name="wdieresis" unicode="&#x1e85;" horiz-adv-x="832" 
d="M296 643c0 17 13 29 30 29c18 0 29 -12 29 -29c0 -18 -11 -30 -29 -30c-17 0 -30 12 -30 30zM476 643c0 17 13 29 30 29c18 0 29 -12 29 -29c0 -18 -11 -30 -29 -30c-17 0 -30 12 -30 30zM222 0l-194 500h51l167 -430l146 430h51l145 -430l167 430h51l-195 -500h-51
l-143 425l-144 -425h-51z" />
    <glyph glyph-name="Ygrave" unicode="&#x1ef2;" horiz-adv-x="577" 
d="M346 709h-20l-95 121v21h42zM264 268l-246 402h55l214 -358l218 358h54l-248 -402v-268h-47v268z" />
    <glyph glyph-name="ygrave" unicode="&#x1ef3;" horiz-adv-x="526" 
d="M283 558h-20l-95 121v21h42zM456 500h51l-212 -500c-22 -53 -67 -214 -196 -236l-7 44c90 18 135 144 155 192l-224 500h52l195 -444z" />
    <glyph glyph-name="endash" unicode="&#x2013;" horiz-adv-x="543" 
d="M482 233h-417v45h417v-45z" />
    <glyph glyph-name="emdash" unicode="&#x2014;" horiz-adv-x="745" 
d="M680 278h-615v46h615v-46z" />
    <glyph glyph-name="quoteleft" unicode="&#x2018;" horiz-adv-x="246" 
d="M155 644h21l-50 -227h-43v21z" />
    <glyph glyph-name="quoteright" unicode="&#x2019;" horiz-adv-x="219" 
d="M80 422h-21l50 227h43v-20z" />
    <glyph glyph-name="quotesinglbase" unicode="&#x201a;" horiz-adv-x="242" 
d="M98 -128h-21l50 227h42v-21z" />
    <glyph glyph-name="quotedblleft" unicode="&#x201c;" horiz-adv-x="382" 
d="M147 699l-52 -269h-43v21l74 248h21zM335 699l-52 -269h-43v21l74 248h21z" />
    <glyph glyph-name="quotedblright" unicode="&#x201d;" horiz-adv-x="385" 
d="M44 430l52 269h43v-21l-74 -248h-21zM232 430l52 269h43v-21l-74 -248h-21z" />
    <glyph glyph-name="quotedblbase" unicode="&#x201e;" horiz-adv-x="428" 
d="M61 -128l71 255h48v-28l-84 -227h-35zM234 -128l71 255h48v-28l-84 -227h-35z" />
    <glyph glyph-name="dagger" unicode="&#x2020;" horiz-adv-x="480" 
d="M217 500v150h48v-150h171v-44h-171v-456h-48v456h-171v44h171z" />
    <glyph glyph-name="daggerdbl" unicode="&#x2021;" horiz-adv-x="480" 
d="M217 500v150h48v-150h171v-44h-171v-225h174v-43h-174v-188h-48v188h-168v43h168v225h-171v44h171z" />
    <glyph glyph-name="bullet" unicode="&#x2022;" horiz-adv-x="360" 
d="M105 350c0 46 33 76 77 76s77 -30 77 -76s-33 -77 -77 -77s-77 31 -77 77z" />
    <glyph glyph-name="ellipsis" unicode="&#x2026;" horiz-adv-x="613" 
d="M52 22c0 18 12 30 29 30s29 -12 29 -30c0 -17 -12 -29 -29 -29s-29 12 -29 29zM282 22c0 18 12 30 29 30s29 -12 29 -30c0 -17 -12 -29 -29 -29s-29 12 -29 29zM507 22c0 18 12 30 29 30s29 -12 29 -30c0 -17 -12 -29 -29 -29s-29 12 -29 29z" />
    <glyph glyph-name="perthousand" unicode="&#x2030;" horiz-adv-x="1139" 
d="M216 331c-92 0 -166 74 -166 166c0 95 70 163 166 163s166 -68 166 -163c0 -92 -74 -166 -166 -166zM216 622c-70 0 -126 -51 -126 -125c0 -70 59 -127 126 -127s126 56 126 127c0 73 -57 125 -126 125zM155 51l-24 22l461 505l26 -21zM553 -11c-92 0 -166 74 -166 166
c0 95 70 163 166 163s166 -68 166 -163c0 -92 -74 -166 -166 -166zM928 -11c-92 0 -166 74 -166 166c0 95 70 163 166 163s166 -68 166 -163c0 -92 -74 -166 -166 -166zM553 280c-70 0 -126 -51 -126 -125c0 -70 59 -127 126 -127s126 56 126 127c0 73 -57 125 -126 125z
M928 280c-70 0 -126 -51 -126 -125c0 -70 59 -127 126 -127s126 56 126 127c0 73 -57 125 -126 125z" />
    <glyph glyph-name="guilsinglleft" unicode="&#x2039;" horiz-adv-x="249" 
d="M221 476l-142 -178l142 -177l-30 -28l-163 205l163 205z" />
    <glyph glyph-name="guilsinglright" unicode="&#x203a;" horiz-adv-x="289" 
d="M33 121l142 177l-141 178l29 27l163 -205l-163 -205z" />
    <glyph glyph-name="fraction" unicode="&#x2044;" horiz-adv-x="190" 
d="M275 700l-316 -700h-39l317 700h38z" />
    <glyph glyph-name="franc" unicode="&#x20a3;" horiz-adv-x="552" 
d="M62 0v112h-125v49h125v509h439v-47h-392v-269h379v-47h-379v-146h204v-49h-204v-112h-47z" />
    <glyph glyph-name="peseta" unicode="&#x20a7;" horiz-adv-x="1029" 
d="M69 0v670h228c158 0 244 -81 244 -217c0 -138 -80 -220 -244 -220h-180v-233h-48zM297 625h-180v-347h180c131 0 197 62 197 176c0 108 -70 171 -197 171zM749 603h47v-115h168v-45h-168v-281c0 -99 29 -122 102 -118c33 2 59 8 78 16l6 -47c-34 -12 -71 -18 -103 -18
c-93 0 -130 46 -130 142v306h-114l9 45h105v115z" />
    <glyph glyph-name="Euro" unicode="&#x20ac;" horiz-adv-x="656" 
d="M402 -7c-153 0 -284 102 -324 241h-59v38h51c-3 17 -4 33 -4 50s1 34 4 51h-51v39h60c40 139 170 243 323 243c89 0 179 -39 241 -104l-33 -34c-54 58 -129 91 -208 91c-127 0 -236 -83 -274 -196h347v-39h-357c-3 -17 -4 -34 -4 -51s1 -34 4 -50h357v-38h-347
c38 -113 146 -193 274 -193c75 0 157 37 209 94l33 -34c-64 -66 -155 -108 -242 -108z" />
    <glyph glyph-name="uni20BA" unicode="&#x20ba;" horiz-adv-x="550" 
d="M461 298h47c0 -172 -143 -298 -337 -298h-48v271l-91 -25v41l91 26v95l-91 -25v41l91 26v200h48v-187l232 64v-41l-232 -65v-95l232 64v-41l-232 -65v-236c165 0 290 107 290 250z" />
    <glyph glyph-name="uni20BD" unicode="&#x20bd;" horiz-adv-x="601" 
d="M93 278v372h248c158 0 244 -78 244 -207c0 -132 -80 -210 -244 -210h-200v-87h307v-35h-307v-111h-48v111h-80v35h80v87h-80v45h80zM341 605h-200v-327h200c131 0 197 58 197 166c0 102 -70 161 -197 161z" />
    <glyph glyph-name="uni2116" unicode="&#x2116;" horiz-adv-x="1039" 
d="M852 349c-83 0 -152 68 -152 151c0 84 69 152 152 152s152 -68 152 -152c0 -83 -69 -151 -152 -151zM65 650h48l484 -577v577h47v-650h-47l-484 577v-577h-48v650zM852 614c-61 0 -112 -52 -112 -114c0 -60 52 -113 112 -113c61 0 112 53 112 113c0 61 -51 114 -112 114z
M1004 234h-304v44h304v-44z" />
    <glyph glyph-name="trademark" unicode="&#x2122;" horiz-adv-x="473" 
d="M99 641h-78v15h172v-15h-79v-199h-15v199zM252 636v-194h-15v214h19l84 -117l82 117h19v-214h-15v193l-84 -120h-5z" />
    <glyph glyph-name="estimated" unicode="&#x212e;" horiz-adv-x="654" 
d="M612 350l-445 1v-201c40 -50 92 -70 183 -70c80 0 167 50 223 127l23 -17c-55 -84 -157 -140 -259 -140c-159 0 -293 114 -293 286c0 166 99 309 291 309c139 0 277 -82 277 -295zM167 557v-176h326v182c-45 34 -105 52 -159 52c-65 0 -136 -25 -167 -58z" />
    <glyph glyph-name="partialdiff" unicode="&#x2202;" horiz-adv-x="548" 
d="M74 557l-7 47c51 31 107 49 177 51c151 5 244 -125 244 -351c0 -217 -67 -311 -223 -311c-125 0 -209 85 -209 211c0 118 64 191 179 198c81 6 160 -32 204 -56c-11 169 -78 261 -191 261c-52 0 -92 -10 -174 -50zM441 300c-37 21 -113 60 -197 59
c-117 -2 -140 -97 -140 -154c0 -99 69 -164 153 -164c166 0 184 120 184 259z" />
    <glyph glyph-name="product" unicode="&#x220f;" horiz-adv-x="640" 
d="M99 -200h-48v850h539v-850h-47v805h-444v-805z" />
    <glyph glyph-name="summation" unicode="&#x2211;" horiz-adv-x="563" 
d="M302 264l-252 340v46h460v-46h-401l246 -340l-246 -342h401v-46h-460v46z" />
    <glyph glyph-name="minus" unicode="&#x2212;" horiz-adv-x="555" 
d="M503 328h-450v46h450v-46z" />
    <glyph glyph-name="uni2219" unicode="&#x2219;" horiz-adv-x="245" 
d="M67 350c0 34 25 56 57 56c31 0 56 -22 56 -56c0 -35 -25 -57 -56 -57c-32 0 -57 22 -57 57z" />
    <glyph glyph-name="radical" unicode="&#x221a;" horiz-adv-x="630" 
d="M302 0l-138 278h-119v45h148l130 -262l232 662h49l-251 -723h-51z" />
    <glyph glyph-name="infinity" unicode="&#x221e;" horiz-adv-x="808" 
d="M224 161c-100 0 -173 74 -173 177c0 99 76 175 173 175c91 0 138 -69 180 -142c46 73 97 142 179 142c97 0 173 -76 173 -175c0 -103 -73 -177 -173 -177c-91 0 -141 65 -184 135c-46 -70 -97 -134 -175 -135zM224 473c-72 0 -130 -60 -130 -135c0 -77 57 -138 130 -138
c68 1 112 62 155 131c-42 72 -82 140 -155 142zM583 473c-67 -2 -113 -67 -158 -138c40 -70 81 -134 158 -135c73 0 131 59 131 138c0 75 -60 135 -131 135z" />
    <glyph glyph-name="integral" unicode="&#x222b;" horiz-adv-x="441" 
d="M5 1l7 42c35 -2 64 4 77 17c30 30 41 108 51 175l41 265c15 94 36 172 144 172c23 0 50 -4 89 -14l-7 -42c-20 8 -53 14 -75 13c-61 -1 -87 -28 -103 -129l-46 -291c-13 -81 -27 -164 -76 -190c-26 -16 -62 -20 -102 -18z" />
    <glyph glyph-name="approxequal" unicode="&#x2248;" horiz-adv-x="466" 
d="M380 513l39 -6c-6 -47 -24 -117 -83 -117c-24 0 -52 11 -82 31c-60 40 -88 52 -119 48c-29 -5 -42 -25 -53 -79l-38 11c10 57 28 109 94 109c40 0 76 -25 112 -46c35 -21 59 -31 77 -31c10 0 18 3 25 8c15 12 24 37 28 72zM380 314l39 -6c-6 -48 -23 -117 -84 -117
c-23 0 -51 10 -81 31c-60 40 -88 52 -119 47c-29 -4 -42 -24 -53 -78l-38 11c10 57 28 109 94 109c40 0 76 -25 112 -46c35 -21 59 -31 77 -31c40 0 50 49 53 80z" />
    <glyph glyph-name="notequal" unicode="&#x2260;" horiz-adv-x="525" 
d="M277 406h-232v44h251l59 139h40l-59 -139h144v-44h-163l-70 -163h233v-45h-252l-67 -157h-40l67 157h-143v45h162z" />
    <glyph glyph-name="lessequal" unicode="&#x2264;" horiz-adv-x="528" 
d="M41 441l442 161v-46l-380 -138l380 -136v-47l-442 158v48zM483 106h-438v45h438v-45z" />
    <glyph glyph-name="greaterequal" unicode="&#x2265;" horiz-adv-x="528" 
d="M41 556v46l442 -161v-48l-442 -158v47l380 136zM479 151v-45h-438v45h438z" />
    <glyph glyph-name="lozenge" unicode="&#x25ca;" horiz-adv-x="487" 
d="M266 650l179 -325l-179 -325h-51l-174 325l174 325h51zM93 325l148 -277l152 277l-152 277z" />
    <glyph glyph-name="longs_t" unicode="&#xfb05;" horiz-adv-x="627" 
d="M90 0h-48v500c0 76 -3 193 166 200c82 3 149 -14 189 -37v-174h168v-45h-168v-281c0 -98 29 -121 102 -118c33 2 59 8 77 17l7 -47c-34 -12 -70 -19 -101 -19c-18 0 -34 2 -48 6c-47 10 -84 40 -84 136v306h-114l9 45h105v151c-35 12 -74 18 -110 18
c-142 0 -150 -64 -150 -158v-500z" />
    <glyph glyph-name="R.alt" horiz-adv-x="610" 
d="M76 650h248c136 0 227 -63 227 -192c0 -132 -85 -194 -227 -194h-7c17 -124 96 -199 241 -223v-48c-170 25 -262 108 -279 271h-155v-264h-48v650zM124 606v-298h200c106 0 179 41 179 151c0 102 -76 147 -179 147h-200z" />
    <glyph glyph-name="eight.dnom" horiz-adv-x="336" 
d="M168 -16c-96 0 -154 61 -154 129c0 54 31 95 82 114c-37 18 -58 51 -58 91c0 58 49 114 130 114c80 0 131 -55 131 -113c0 -42 -23 -75 -62 -93c50 -20 84 -62 84 -111c0 -65 -59 -131 -153 -131zM168 402c-61 0 -95 -41 -95 -86c0 -50 40 -76 95 -76c56 0 96 27 96 78
c0 43 -39 84 -96 84zM168 213c-75 0 -119 -46 -119 -100c0 -47 42 -97 119 -97c72 0 118 53 118 99c0 50 -49 98 -118 98z" />
    <glyph glyph-name="eight.numr" horiz-adv-x="335" 
d="M168 266c-96 0 -154 61 -154 129c0 54 31 95 82 114c-37 18 -58 51 -58 91c0 58 49 114 130 114c80 0 131 -55 131 -113c0 -42 -23 -75 -62 -93c50 -20 84 -62 84 -111c0 -65 -59 -131 -153 -131zM168 684c-61 0 -95 -41 -95 -86c0 -50 40 -76 95 -76c56 0 96 27 96 78
c0 43 -39 84 -96 84zM168 495c-75 0 -119 -46 -119 -100c0 -47 42 -97 119 -97c72 0 118 53 118 99c0 50 -49 98 -118 98z" />
    <glyph glyph-name="eight.sinf" horiz-adv-x="335" 
d="M168 -174c-96 0 -154 60 -154 129c0 54 31 95 82 114c-37 18 -58 51 -58 91c0 58 49 114 130 114c80 0 131 -55 131 -113c0 -42 -23 -75 -62 -93c50 -20 84 -62 84 -111c0 -66 -59 -131 -153 -131zM168 244c-61 0 -95 -41 -95 -86c0 -50 40 -76 95 -76c56 0 96 27 96 78
c0 43 -39 84 -96 84zM168 55c-75 0 -119 -46 -119 -100c0 -47 42 -97 119 -97c72 0 118 52 118 99c0 50 -49 98 -118 98z" />
    <glyph glyph-name="eight.sups" horiz-adv-x="334" 
d="M168 426c-96 0 -154 61 -154 129c0 54 31 95 82 114c-37 18 -58 51 -58 91c0 58 49 114 130 114c80 0 131 -55 131 -113c0 -42 -23 -75 -62 -93c50 -20 84 -62 84 -111c0 -65 -59 -131 -153 -131zM168 844c-61 0 -95 -41 -95 -86c0 -50 40 -76 95 -76c56 0 96 27 96 78
c0 43 -39 84 -96 84zM168 655c-75 0 -119 -46 -119 -100c0 -47 42 -97 119 -97c72 0 118 53 118 99c0 50 -49 98 -118 98z" />
    <glyph glyph-name="f_f_j" horiz-adv-x="787" 
d="M425 0h-48v443h-254v-443h-47v443h-72l9 45h63v12c0 76 -3 193 165 200c80 3 147 -13 188 -35c24 20 60 33 114 35c82 3 151 -14 191 -37l-11 -40c-42 25 -93 35 -148 35c-142 0 -150 -64 -150 -158v-12h175v-45h-175v-443zM123 488h254v12c0 40 -1 93 24 133
c-38 17 -81 25 -127 25c-143 0 -151 -64 -151 -158v-12zM686 488h48v-549c0 -88 -49 -158 -116 -171c-23 -4 -49 -3 -74 3l7 47c15 -5 32 -5 42 -4c53 6 93 64 93 133v541z" />
    <glyph glyph-name="f_j" horiz-adv-x="528" 
d="M152 0h-47v443h-72l9 45h63v12c0 76 -3 193 165 200c82 3 151 -14 191 -37l-10 -40c-43 25 -93 35 -148 35c-143 0 -151 -64 -151 -158v-12h174v-45h-174v-443zM414 488h47v-549c0 -88 -49 -158 -116 -171c-22 -4 -48 -3 -74 3l7 47c16 -5 32 -5 43 -4c52 6 93 64 93 133
v541z" />
    <glyph glyph-name="five.dnom" horiz-adv-x="327" 
d="M6 47l6 41c37 -44 104 -68 153 -68c71 0 108 45 108 105c0 66 -64 109 -135 108c-30 -1 -59 -7 -86 -22l-20 16l13 205h238l-3 -34h-202l-10 -150c24 12 50 18 85 17c82 -1 155 -57 155 -141c0 -82 -54 -140 -147 -140c-53 0 -126 29 -155 63z" />
    <glyph glyph-name="five.numr" horiz-adv-x="323" 
d="M6 329l6 41c37 -44 104 -68 153 -68c71 0 108 45 108 105c0 66 -64 109 -135 108c-30 -1 -59 -7 -86 -22l-20 16l13 205h238l-3 -34h-202l-10 -150c24 12 50 18 85 17c82 -1 155 -57 155 -141c0 -82 -54 -140 -147 -140c-53 0 -126 29 -155 63z" />
    <glyph glyph-name="five.sinf" horiz-adv-x="336" 
d="M6 -111l6 41c37 -44 104 -69 153 -69c71 0 108 46 108 106c0 66 -64 109 -135 108c-30 -1 -59 -7 -86 -22l-20 16l13 205h238l-3 -34h-202l-10 -150c24 12 50 18 85 17c82 -1 155 -57 155 -141c0 -82 -54 -140 -147 -140c-53 0 -126 29 -155 63z" />
    <glyph glyph-name="five.sups" horiz-adv-x="326" 
d="M6 489l6 41c37 -44 104 -68 153 -68c71 0 108 45 108 105c0 66 -64 109 -135 108c-30 -1 -59 -7 -86 -22l-20 16l13 205h238l-3 -34h-202l-10 -150c24 12 50 18 85 17c82 -1 155 -57 155 -141c0 -82 -54 -140 -147 -140c-53 0 -126 29 -155 63z" />
    <glyph glyph-name="four.dnom" horiz-adv-x="357" 
d="M11 135l237 299h29v-299h64v-33h-64v-102h-35v102h-231v33zM242 374l-188 -239h188v239z" />
    <glyph glyph-name="four.numr" horiz-adv-x="357" 
d="M11 416l237 299h29v-299h64v-33h-64v-102h-35v102h-231v33zM242 655l-188 -239h188v239z" />
    <glyph glyph-name="four.sinf" horiz-adv-x="357" 
d="M11 -25l237 299h29v-299h64v-33h-64v-102h-35v102h-231v33zM242 214l-188 -239h188v239z" />
    <glyph glyph-name="four.sups" horiz-adv-x="357" 
d="M11 575l237 299h29v-299h64v-33h-64v-102h-35v102h-231v33zM242 814l-188 -239h188v239z" />
    <glyph glyph-name="i.loclTRK" horiz-adv-x="192" 
d="M71 671c0 18 12 29 29 29c18 0 29 -11 29 -29s-11 -29 -29 -29c-17 0 -29 11 -29 29zM124 0h-48v500h48v-500z" />
    <glyph glyph-name="nine.dnom" horiz-adv-x="331" 
d="M25 18l5 38c53 -29 79 -35 114 -35c76 0 125 67 133 181c-42 -31 -84 -41 -129 -41c-81 0 -132 53 -132 132c0 83 52 139 145 139c100 0 153 -69 153 -206c0 -142 -69 -242 -166 -242c-50 0 -85 13 -123 34zM279 238c0 107 -42 160 -122 160c-68 0 -106 -44 -106 -106
s36 -99 103 -99c39 0 87 15 125 45z" />
    <glyph glyph-name="nine.numr" horiz-adv-x="340" 
d="M25 301l5 38c53 -29 79 -35 114 -35c76 0 125 67 133 181c-42 -31 -84 -41 -129 -41c-81 0 -132 53 -132 132c0 83 52 139 145 139c100 0 153 -69 153 -206c0 -142 -69 -242 -166 -242c-50 0 -85 13 -123 34zM279 521c0 107 -42 160 -122 160c-68 0 -106 -44 -106 -106
s36 -99 103 -99c39 0 87 15 125 45z" />
    <glyph glyph-name="nine.sinf" horiz-adv-x="331" 
d="M25 -126l5 37c53 -29 79 -35 114 -35c76 0 125 68 133 182c-42 -31 -84 -41 -129 -41c-81 0 -132 53 -132 132c0 83 52 139 145 139c100 0 153 -69 153 -206c0 -142 -69 -242 -166 -242c-50 0 -85 13 -123 34zM279 94c0 107 -42 160 -122 160c-68 0 -106 -44 -106 -106
s36 -99 103 -99c39 0 87 15 125 45z" />
    <glyph glyph-name="nine.sups" horiz-adv-x="331" 
d="M25 460l5 38c53 -29 79 -35 114 -35c76 0 125 67 133 181c-42 -31 -84 -41 -129 -41c-81 0 -132 53 -132 132c0 83 52 139 145 139c100 0 153 -69 153 -206c0 -142 -69 -242 -166 -242c-50 0 -85 13 -123 34zM279 680c0 107 -42 160 -122 160c-68 0 -106 -44 -106 -106
s36 -99 103 -99c39 0 87 15 125 45z" />
    <glyph glyph-name="one.dnom" horiz-adv-x="213" 
d="M3 402l147 30h24v-432h-34v393l-132 -21z" />
    <glyph glyph-name="one.numr" horiz-adv-x="213" 
d="M3 684l147 30h24v-432h-34v393l-132 -21z" />
    <glyph glyph-name="one.sinf" horiz-adv-x="213" 
d="M3 242l147 30h24v-432h-34v393l-132 -21z" />
    <glyph glyph-name="one.sups" horiz-adv-x="214" 
d="M3 844l147 30h24v-432h-34v393l-132 -21z" />
    <glyph glyph-name="seven.dnom" horiz-adv-x="278" 
d="M220 401h-211l-5 33h259v-24l-175 -410h-38z" />
    <glyph glyph-name="seven.numr" horiz-adv-x="278" 
d="M220 681h-211l-5 33h259v-24l-175 -410h-38z" />
    <glyph glyph-name="seven.sinf" horiz-adv-x="281" 
d="M220 241h-211l-5 33h259v-24l-175 -410h-38z" />
    <glyph glyph-name="seven.sups" horiz-adv-x="278" 
d="M220 841h-211l-5 33h259v-24l-175 -410h-38z" />
    <glyph glyph-name="six.dnom" horiz-adv-x="332" 
d="M305 398l-5 -37c-53 29 -79 35 -114 35c-75 0 -125 -68 -133 -182c43 31 84 41 129 41c81 0 132 -53 132 -132c0 -83 -52 -139 -145 -139c-100 0 -153 69 -153 206c0 142 69 242 166 242c50 0 85 -13 123 -34zM52 178c0 -107 41 -160 121 -160c68 0 106 44 106 106
s-35 99 -103 99c-39 0 -86 -15 -124 -45z" />
    <glyph glyph-name="six.numr" horiz-adv-x="331" 
d="M305 680l-5 -37c-53 29 -79 35 -114 35c-75 0 -125 -68 -133 -182c43 31 84 41 129 41c81 0 132 -53 132 -132c0 -83 -52 -139 -145 -139c-100 0 -153 69 -153 206c0 142 69 242 166 242c50 0 85 -13 123 -34zM52 460c0 -107 41 -160 121 -160c68 0 106 44 106 106
s-35 99 -103 99c-39 0 -86 -15 -124 -45z" />
    <glyph glyph-name="six.sinf" horiz-adv-x="334" 
d="M305 240l-5 -37c-53 29 -79 35 -114 35c-75 0 -125 -68 -133 -182c43 31 84 41 129 41c81 0 132 -53 132 -132c0 -83 -52 -139 -145 -139c-100 0 -153 69 -153 206c0 142 69 242 166 242c50 0 85 -13 123 -34zM52 20c0 -107 41 -160 121 -160c68 0 106 44 106 106
s-35 99 -103 99c-39 0 -86 -15 -124 -45z" />
    <glyph glyph-name="six.sups" horiz-adv-x="332" 
d="M305 840l-5 -37c-53 29 -79 35 -114 35c-75 0 -125 -68 -133 -182c43 31 84 41 129 41c81 0 132 -53 132 -132c0 -83 -52 -139 -145 -139c-100 0 -153 69 -153 206c0 142 69 242 166 242c50 0 85 -13 123 -34zM52 620c0 -107 41 -160 121 -160c68 0 106 44 106 106
s-35 99 -103 99c-39 0 -86 -15 -124 -45z" />
    <glyph glyph-name="three.dnom" horiz-adv-x="339" 
d="M11 55l6 40c37 -43 103 -67 149 -67c75 0 112 42 112 91c0 59 -66 91 -168 86v32c31 1 160 -3 160 82c0 42 -38 77 -104 77c-41 0 -90 -12 -130 -36l-5 38c34 20 87 34 131 34c90 0 143 -50 143 -112c0 -50 -28 -81 -88 -96c60 -18 97 -55 97 -112
c0 -64 -56 -120 -152 -120c-53 0 -122 29 -151 63z" />
    <glyph glyph-name="three.numr" horiz-adv-x="339" 
d="M11 337l6 40c37 -43 103 -67 149 -67c75 0 112 42 112 91c0 59 -66 91 -168 86v32c31 1 160 -3 160 82c0 42 -38 77 -104 77c-41 0 -90 -12 -130 -36l-5 38c34 20 87 34 131 34c90 0 143 -50 143 -112c0 -50 -28 -81 -88 -96c60 -18 97 -55 97 -112
c0 -64 -56 -120 -152 -120c-53 0 -122 29 -151 63z" />
    <glyph glyph-name="three.sinf" horiz-adv-x="339" 
d="M11 -111l6 40c37 -43 103 -68 149 -68c75 0 112 43 112 92c0 59 -66 91 -168 86v32c31 1 160 -3 160 82c0 42 -38 77 -104 77c-41 0 -90 -12 -130 -36l-5 38c34 20 87 34 131 34c90 0 143 -50 143 -112c0 -50 -28 -81 -88 -96c60 -18 97 -55 97 -112
c0 -65 -56 -120 -152 -120c-53 0 -122 29 -151 63z" />
    <glyph glyph-name="three.sups" horiz-adv-x="339" 
d="M11 497l6 40c37 -43 103 -67 149 -67c75 0 112 42 112 91c0 59 -66 91 -168 86v32c31 1 160 -3 160 82c0 42 -38 77 -104 77c-41 0 -90 -12 -130 -36l-5 38c34 20 87 34 131 34c90 0 143 -50 143 -112c0 -50 -28 -81 -88 -96c60 -18 97 -55 97 -112
c0 -64 -56 -120 -152 -120c-53 0 -122 29 -151 63z" />
    <glyph glyph-name="two.dnom" horiz-adv-x="337" 
d="M41 335l-4 36c30 39 81 63 127 63c94 0 142 -44 142 -128c0 -39 -22 -81 -60 -119l-155 -152h219v-35h-280v27l169 161c52 49 72 84 72 125c0 55 -34 86 -101 86c-40 0 -79 -11 -129 -64z" />
    <glyph glyph-name="two.numr" horiz-adv-x="337" 
d="M41 616l-4 36c30 39 81 63 127 63c94 0 142 -44 142 -128c0 -39 -22 -81 -60 -119l-155 -152h219v-35h-280v27l169 161c52 49 72 84 72 125c0 55 -34 86 -101 86c-40 0 -79 -11 -129 -64z" />
    <glyph glyph-name="two.sinf" horiz-adv-x="349" 
d="M41 175l-4 36c30 39 81 63 127 63c94 0 142 -44 142 -128c0 -39 -22 -81 -60 -119l-155 -152h219v-35h-280v27l169 161c52 49 72 84 72 125c0 55 -34 86 -101 86c-40 0 -79 -11 -129 -64z" />
    <glyph glyph-name="two.sups" horiz-adv-x="340" 
d="M41 775l-4 36c30 39 81 63 127 63c94 0 142 -44 142 -128c0 -38 -22 -80 -60 -119l-155 -152h219v-35h-280v27l169 161c52 49 72 84 72 125c0 55 -34 86 -101 86c-40 0 -79 -11 -129 -64z" />
    <glyph glyph-name="uni03BC.1" horiz-adv-x="653" 
d="M497 252v248h48v-335c0 -76 18 -118 68 -118v-47c-65 0 -94 45 -106 102c-41 -69 -113 -107 -194 -107c-77 0 -145 33 -188 93v-288h-47v700h47v-248c0 -131 78 -214 189 -214c99 0 183 78 183 214z" />
    <glyph glyph-name="uni0414.loclBGR" horiz-adv-x="768" 
d="M109 0h-25v-134h-48v180h40l213 604h189l213 -604h40v-180h-47v134h-26c-85 0 -148 43 -275 43c-124 0 -186 -43 -274 -43zM321 603l-195 -556c78 6 142 42 257 42c117 0 183 -36 258 -42l-195 556h-125z" />
    <glyph glyph-name="uni0414.loclBGR.ss01" horiz-adv-x="769" 
d="M109 0h-73v46h40l213 604h189l213 -604h40v-46h-73c-85 0 -148 43 -275 43c-124 0 -186 -43 -274 -43zM321 603l-195 -556c78 6 142 42 257 42c117 0 183 -36 258 -42l-195 556h-125z" />
    <glyph glyph-name="uni0414.ss01" horiz-adv-x="741" 
d="M34 0v48h63c77 204 98 405 63 602h462v-602h75v-48h-663zM148 48h426v555h-359c23 -181 1 -366 -67 -555z" />
    <glyph glyph-name="uni041B.loclBGR" horiz-adv-x="706" 
d="M76 0h-49l229 650h189l229 -650h-49l-212 603h-125z" />
    <glyph glyph-name="uni0424.loclBGR" horiz-adv-x="769" 
d="M48 322c0 175 140 320 313 332v69h46v-69c172 -12 313 -157 313 -332c0 -174 -141 -317 -313 -328v-74h-46v74c-173 11 -313 154 -313 328zM95 322c0 -148 116 -268 266 -279v563c-148 -12 -266 -135 -266 -284zM407 606v-563c149 11 265 131 265 279
c0 149 -117 272 -265 284z" />
    <glyph glyph-name="uni0426.ss01" horiz-adv-x="712" 
d="M546 650h48v-602h74v-48h-598v650h48v-602h428v602z" />
    <glyph glyph-name="uni0429.ss01" horiz-adv-x="995" 
d="M451 650h47v-602h336v602h47v-602h75v-48h-888v650h48v-602h335v602z" />
    <glyph glyph-name="uni0433.loclBGR" horiz-adv-x="463" 
d="M372 151l46 -5c-20 -91 -89 -153 -187 -153c-101 0 -177 57 -177 127c0 55 32 90 121 135c20 10 43 20 70 32c83 37 104 55 104 97c0 47 -51 81 -119 79c-71 -2 -115 -40 -122 -104l-43 6c6 87 72 143 169 141c95 -1 162 -51 162 -120c0 -58 -30 -92 -112 -128
c-20 -8 -52 -21 -80 -35c-74 -36 -100 -63 -100 -103c0 -45 55 -84 127 -84c70 0 125 49 141 115z" />
    <glyph glyph-name="uni0434.loclBGR" horiz-adv-x="633" 
d="M512 0v131c-26 -82 -115 -138 -223 -138c-137 0 -236 110 -236 255c0 146 96 257 236 257c112 0 183 -41 223 -130v125h48v-500c0 -157 -104 -247 -276 -236c-81 5 -144 23 -202 61l7 48c58 -38 118 -58 195 -63c144 -9 228 61 228 190zM512 302c-27 96 -98 153 -198 158
c-124 7 -214 -82 -214 -212c0 -127 90 -215 212 -210c109 5 200 84 200 172v92z" />
    <glyph glyph-name="uni0436.loclBGR" horiz-adv-x="781" 
d="M413 0h-47v234l-274 -234h-63l295 252l-268 248h59l250 -229v379h48v-379l250 229h60l-268 -248l295 -252h-63l-274 235v-235z" />
    <glyph glyph-name="uni0438.loclBGR" horiz-adv-x="577" 
d="M454 500h47v-500h-47v97c-30 -48 -79 -102 -198 -102c-97 0 -197 95 -197 257v248h47v-248h1c0 -131 72 -216 173 -211c104 4 174 78 174 137v322z" />
    <glyph glyph-name="uni0439.loclBGR" horiz-adv-x="577" 
d="M92 591v36h386v-36h-386zM454 500h47v-500h-47v97c-30 -48 -74 -102 -191 -102c-102 0 -197 101 -197 257v248h48v-248c0 -131 76 -217 181 -211c94 5 159 78 159 137v322z" />
    <glyph glyph-name="uni043A.loclBGR" horiz-adv-x="482" 
d="M110 0h-48v650h48v-389l261 239h60l-268 -248l295 -252h-63l-285 244v-244z" />
    <glyph glyph-name="uni043B.loclBGR" horiz-adv-x="530" 
d="M296 500l212 -500h-51l-187 441l-195 -441h-51l221 500h51z" />
    <glyph glyph-name="uni043F.loclBGR" horiz-adv-x="572" 
d="M121 323v-323h-47v500h47v-97c39 61 97 102 186 102c116 0 205 -105 205 -257v-248h-48v248c0 135 -77 218 -181 212c-92 -6 -162 -75 -162 -137z" />
    <glyph glyph-name="uni0442.loclBGR" horiz-adv-x="908" 
d="M118 0h-48v500h48v-93c34 58 88 98 184 98c77 0 135 -46 165 -122c31 72 106 122 183 122c119 0 197 -102 197 -257v-248h-47v248c0 136 -69 219 -174 212c-59 -4 -125 -61 -146 -121c6 -28 10 -58 10 -91v-248h-48v248c0 137 -61 215 -158 213
c-93 -2 -166 -73 -166 -129v-332z" />
    <glyph glyph-name="uni0446.loclBGR" horiz-adv-x="628" 
d="M471 246v254h47v-302c0 -104 15 -153 72 -153v-179h-47v143c-52 21 -68 76 -71 117c-30 -78 -96 -131 -193 -131c-119 0 -214 89 -214 257v248h48v-248c0 -161 98 -212 173 -212c102 0 185 75 185 206z" />
    <glyph glyph-name="uni0448.loclBGR" horiz-adv-x="905" 
d="M792 505h47v-500h-47v93c-35 -58 -88 -98 -184 -98c-78 0 -135 46 -165 122c-32 -71 -106 -122 -184 -122c-119 0 -197 102 -197 257v248h48v-248c0 -135 68 -219 173 -211c59 3 126 60 147 120c-7 28 -10 58 -10 91v248h48v-248c0 -137 61 -215 157 -213
c94 2 167 73 167 129v332z" />
    <glyph glyph-name="uni0449.loclBGR" horiz-adv-x="950" 
d="M59 252v248h47v-248c0 -126 60 -210 152 -211c55 -1 125 28 165 96c-10 33 -15 71 -15 115v248h48v-248c0 -161 80 -212 155 -212c102 0 177 75 177 206v254h48v-302c0 -104 14 -153 71 -153v-179h-47v143c-50 20 -67 74 -71 114c-28 -76 -89 -128 -185 -128
c-74 0 -132 35 -165 102c-39 -68 -118 -102 -187 -102c-119 0 -193 102 -193 257z" />
    <glyph glyph-name="uni044A.loclBGR" horiz-adv-x="596" 
d="M20 500h196v-145h124c145 0 216 -62 216 -178c0 -103 -70 -178 -186 -178c-187 0 -200 111 -200 179v275h-150v47zM340 310h-124v-132c0 -88 40 -137 154 -137c89 0 138 58 138 137c0 87 -52 132 -168 132z" />
    <glyph glyph-name="uni044C.loclBGR" horiz-adv-x="476" 
d="M54 500h46v-145h123c145 0 216 -62 216 -178c0 -103 -70 -178 -186 -178c-187 0 -199 111 -199 179v322zM223 310h-123v-132c0 -88 40 -137 153 -137c89 0 139 58 139 137c0 87 -53 132 -169 132z" />
    <glyph glyph-name="uni044E.loclBGR" horiz-adv-x="831" 
d="M529 -7c-134 0 -245 103 -256 234h-160v-227h-47v650h47v-377h160c13 129 123 232 256 232c141 0 257 -116 257 -257s-116 -255 -257 -255zM529 462c-113 0 -210 -94 -210 -214c0 -116 95 -211 210 -211c112 0 209 92 209 211c0 116 -93 214 -209 214z" />
    <glyph glyph-name="y.alt" horiz-adv-x="581" 
d="M472 0v102c-27 -57 -87 -109 -187 -109c-141 0 -231 114 -231 255v252h47v-252c0 -137 92 -213 199 -211c96 3 172 68 172 139v324h48v-500c0 -157 -78 -236 -251 -236c-61 0 -143 15 -194 49l7 47c41 -28 136 -50 187 -50c138 0 203 58 203 190z" />
    <glyph glyph-name="zero.dnom" horiz-adv-x="409" 
d="M10 219c0 132 80 213 195 213c114 0 193 -81 193 -213c0 -130 -78 -215 -193 -215c-116 0 -195 86 -195 215zM46 219c0 -109 63 -180 159 -180s158 70 158 180c0 112 -61 177 -158 177c-98 0 -159 -66 -159 -177z" />
    <glyph glyph-name="zero.numr" horiz-adv-x="409" 
d="M10 501c0 132 80 213 195 213c114 0 193 -81 193 -213c0 -130 -78 -215 -193 -215c-116 0 -195 86 -195 215zM46 501c0 -109 63 -180 159 -180s158 70 158 180c0 112 -61 177 -158 177c-98 0 -159 -66 -159 -177z" />
    <glyph glyph-name="zero.sinf" horiz-adv-x="409" 
d="M10 41c0 132 80 213 195 213c114 0 193 -81 193 -213c0 -130 -78 -215 -193 -215c-116 0 -195 86 -195 215zM46 41c0 -109 63 -180 159 -180s158 70 158 180c0 112 -61 177 -158 177c-98 0 -159 -66 -159 -177z" />
    <glyph glyph-name="zero.sups" horiz-adv-x="409" 
d="M10 662c0 132 80 213 195 213c114 0 193 -81 193 -213c0 -130 -78 -215 -193 -215c-116 0 -195 86 -195 215zM46 662c0 -109 63 -180 159 -180s158 70 158 180c0 112 -61 177 -158 177c-98 0 -159 -66 -159 -177z" />
    </font>
</defs>
</svg>
